STARTFONT 2.1
COMMENT
COMMENT Converted from OpenType font "Comic Sans MS.ttf" by "otf2bdf 3.0".
COMMENT
FONT -FreeType-Comic Sans MS-Medium-R-Normal--28-200-100-100-P-148-ISO10646-1
SIZE 20 100 100
FONTBOUNDINGBOX 35 40 -2 -8
STARTPROPERTIES 19
FOUNDRY "FreeType"
FAMILY_NAME "Comic Sans MS"
WEIGHT_NAME "Medium"
SLANT "R"
SETWIDTH_NAME "Normal"
ADD_STYLE_NAME ""
PIXEL_SIZE 28
POINT_SIZE 200
RESOLUTION_X 100
RESOLUTION_Y 100
SPACING "P"
AVERAGE_WIDTH 148
CHARSET_REGISTRY "ISO10646"
CHARSET_ENCODING "1"
FONT_ASCENT 30
FONT_DESCENT 8
COPYRIGHT "© 2006 Microsoft Corporation. All rights reserved."
_OTF_FONTFILE "Comic Sans MS.ttf"
_OTF_PSNAME "ComicSansMS"
ENDPROPERTIES
CHARS 582
STARTCHAR 0020
ENCODING 32
SWIDTH 288 0
DWIDTH 8 0
BBX 0 0 0 0
BITMAP
ENDCHAR
STARTCHAR 0021
ENCODING 33
SWIDTH 252 0
DWIDTH 7 0
BBX 3 23 2 -1
BITMAP
C0
E0
E0
E0
E0
E0
E0
E0
E0
E0
E0
E0
E0
E0
E0
E0
E0
C0
00
00
C0
C0
C0
ENDCHAR
STARTCHAR 0022
ENCODING 34
SWIDTH 432 0
DWIDTH 12 0
BBX 7 9 2 12
BITMAP
C6
C6
C6
C6
C6
C6
C6
C6
C6
ENDCHAR
STARTCHAR 0023
ENCODING 35
SWIDTH 864 0
DWIDTH 24 0
BBX 23 22 0 0
BITMAP
006030
00E030
00E070
00C070
01C060
3FFFFE
3FFFFE
3FFFFE
0380C0
0381C0
0301C0
0701C0
070180
7FFFFC
FFFFFC
7FFFFC
0E0700
0C0700
1C0700
1C0600
180E00
180600
ENDCHAR
STARTCHAR 0024
ENCODING 36
SWIDTH 684 0
DWIDTH 19 0
BBX 16 29 1 -5
BITMAP
0180
0180
0180
03F0
0FFC
1FFE
3D8C
3980
3980
7180
7180
3D80
3FF0
1FFC
07FE
019E
0187
0187
0187
618E
F19E
7FFC
7FF8
1FE0
0180
0180
0180
0180
0180
ENDCHAR
STARTCHAR 0025
ENCODING 37
SWIDTH 828 0
DWIDTH 23 0
BBX 20 22 2 0
BITMAP
000600
3C0E00
7E0C00
E71C00
C31800
C33800
E33800
7F7000
3C7000
006000
00E000
00C000
01C000
0187C0
038FE0
031C70
071830
061830
0E1870
0C1C60
0C0FE0
0C0780
ENDCHAR
STARTCHAR 0026
ENCODING 38
SWIDTH 648 0
DWIDTH 18 0
BBX 16 23 1 -2
BITMAP
00E0
01F0
03F0
0338
0330
0370
03F0
03E0
03C0
0F80
1FC2
3CE6
70E6
6076
E076
C03E
E01C
E01C
F07E
7FF6
3FE7
0F83
0003
ENDCHAR
STARTCHAR 0027
ENCODING 39
SWIDTH 396 0
DWIDTH 11 0
BBX 2 7 4 16
BITMAP
C0
C0
C0
C0
C0
C0
C0
ENDCHAR
STARTCHAR 0028
ENCODING 40
SWIDTH 360 0
DWIDTH 10 0
BBX 7 28 2 -6
BITMAP
06
0E
1E
1C
38
70
70
60
E0
E0
E0
E0
C0
C0
C0
C0
C0
C0
E0
E0
E0
60
70
78
38
1E
0E
06
ENDCHAR
STARTCHAR 0029
ENCODING 41
SWIDTH 360 0
DWIDTH 10 0
BBX 8 28 2 -6
BITMAP
C0
E0
F0
78
38
1C
1C
0C
0E
0E
0E
06
06
06
07
06
06
06
0E
0E
0E
0C
1C
1C
38
70
E0
C0
ENDCHAR
STARTCHAR 002A
ENCODING 42
SWIDTH 540 0
DWIDTH 15 0
BBX 12 12 1 11
BITMAP
0600
0E00
0E00
CE00
F7F0
7FF0
0FE0
1F00
3F80
71C0
60E0
0040
ENDCHAR
STARTCHAR 002B
ENCODING 43
SWIDTH 468 0
DWIDTH 13 0
BBX 11 11 1 4
BITMAP
0C00
0E00
0E00
0E00
FFE0
FFE0
FFE0
0E00
0E00
0E00
0C00
ENDCHAR
STARTCHAR 002C
ENCODING 44
SWIDTH 288 0
DWIDTH 8 0
BBX 4 7 3 -5
BITMAP
30
70
60
E0
E0
C0
C0
ENDCHAR
STARTCHAR 002D
ENCODING 45
SWIDTH 432 0
DWIDTH 12 0
BBX 8 3 2 6
BITMAP
FF
FF
FF
ENDCHAR
STARTCHAR 002E
ENCODING 46
SWIDTH 252 0
DWIDTH 7 0
BBX 3 3 2 0
BITMAP
E0
E0
E0
ENDCHAR
STARTCHAR 002F
ENCODING 47
SWIDTH 504 0
DWIDTH 14 0
BBX 12 23 1 0
BITMAP
0030
0070
0070
0060
00E0
00C0
01C0
01C0
0380
0380
0700
0700
0E00
0E00
1C00
1C00
3800
3800
7000
7000
6000
E000
C000
ENDCHAR
STARTCHAR 0030
ENCODING 48
SWIDTH 612 0
DWIDTH 17 0
BBX 15 21 1 0
BITMAP
07C0
1FF0
3FF8
3C3C
701C
700E
E00E
E00E
E00E
C00E
C00E
E00E
E00E
E00E
E00E
601C
701C
787C
3FF8
1FF0
07C0
ENDCHAR
STARTCHAR 0031
ENCODING 49
SWIDTH 468 0
DWIDTH 13 0
BBX 9 21 2 0
BITMAP
0E00
1E00
7E00
FE00
EE00
0E00
0E00
0E00
0C00
0C00
1C00
1C00
1C00
1C00
1C00
1C00
1C00
0C00
7F80
FF80
FF80
ENDCHAR
STARTCHAR 0032
ENCODING 50
SWIDTH 612 0
DWIDTH 17 0
BBX 13 21 2 0
BITMAP
07C0
1FE0
3FF0
7878
F038
E038
0038
0070
00F0
01E0
03C0
0F00
1E00
3800
7000
6000
E000
E000
FFF0
FFF8
7FF8
ENDCHAR
STARTCHAR 0033
ENCODING 51
SWIDTH 612 0
DWIDTH 17 0
BBX 13 21 2 0
BITMAP
0F80
3FE0
7FF0
7070
6030
0030
0030
00F0
0FE0
1F80
0FE0
00F0
0070
0038
0038
C038
E038
F0F0
7FE0
3FE0
1F80
ENDCHAR
STARTCHAR 0034
ENCODING 52
SWIDTH 612 0
DWIDTH 17 0
BBX 15 21 1 0
BITMAP
0070
00F0
01F0
01F0
03B0
0730
0730
0E30
1C30
1C30
3830
7030
FFFE
FFFE
FFFE
0030
0030
0030
0070
0070
0030
ENDCHAR
STARTCHAR 0035
ENCODING 53
SWIDTH 612 0
DWIDTH 17 0
BBX 14 21 2 0
BITMAP
FFF8
FFF8
7FF0
6000
E000
E000
E7C0
FFF0
FFF8
F838
F018
E01C
C01C
001C
001C
0038
C038
E0F8
FFF0
7FE0
1F80
ENDCHAR
STARTCHAR 0036
ENCODING 54
SWIDTH 612 0
DWIDTH 17 0
BBX 13 21 2 0
BITMAP
0180
0380
0700
1E00
1C00
3800
7000
7000
E7C0
FFE0
FFF0
F078
C038
C038
C038
E038
E038
F070
7FF0
3FE0
1F80
ENDCHAR
STARTCHAR 0037
ENCODING 55
SWIDTH 612 0
DWIDTH 17 0
BBX 15 21 1 0
BITMAP
FFFE
FFFE
7FFE
001C
0038
0078
0070
00E0
00E0
01C0
01C0
0380
0380
0700
0700
0700
0E00
0E00
1C00
1C00
1800
ENDCHAR
STARTCHAR 0038
ENCODING 56
SWIDTH 612 0
DWIDTH 17 0
BBX 13 21 2 0
BITMAP
0FC0
3FE0
7FF0
7070
E070
E030
E070
78F0
7FE0
3FC0
3FF0
78F0
E038
E038
C018
C038
E038
F078
FFF0
7FE0
1FC0
ENDCHAR
STARTCHAR 0039
ENCODING 57
SWIDTH 612 0
DWIDTH 17 0
BBX 14 22 2 -1
BITMAP
0FC0
3FE0
7FF0
F0F8
E038
C03C
C01C
C01C
C01C
E03C
F07C
7FF8
3FF8
0F38
0070
0070
00E0
03C0
0780
3F00
7C00
7000
ENDCHAR
STARTCHAR 003A
ENCODING 58
SWIDTH 288 0
DWIDTH 8 0
BBX 3 12 3 2
BITMAP
C0
C0
C0
C0
00
00
00
00
C0
E0
E0
C0
ENDCHAR
STARTCHAR 003B
ENCODING 59
SWIDTH 288 0
DWIDTH 8 0
BBX 5 17 1 -3
BITMAP
30
38
38
30
00
00
00
00
00
00
00
30
38
70
E0
E0
C0
ENDCHAR
STARTCHAR 003C
ENCODING 60
SWIDTH 396 0
DWIDTH 11 0
BBX 9 12 0 3
BITMAP
0300
0780
0F00
1E00
3C00
7800
F000
7C00
1C00
0E00
0700
0300
ENDCHAR
STARTCHAR 003D
ENCODING 61
SWIDTH 504 0
DWIDTH 14 0
BBX 11 11 1 4
BITMAP
7FE0
FFE0
7FE0
0000
0000
0000
0000
0000
7FE0
FFE0
7FE0
ENDCHAR
STARTCHAR 003E
ENCODING 62
SWIDTH 396 0
DWIDTH 11 0
BBX 9 13 1 3
BITMAP
6000
7000
3800
0C00
0200
0700
0F80
1F00
3E00
7C00
F800
F000
C000
ENDCHAR
STARTCHAR 003F
ENCODING 63
SWIDTH 540 0
DWIDTH 15 0
BBX 12 21 1 -1
BITMAP
1E00
7F80
FFC0
E1E0
00E0
0070
0070
0070
0070
00F0
01F0
07E0
0FE0
1F80
1E00
1800
0000
0000
3800
3800
3000
ENDCHAR
STARTCHAR 0040
ENCODING 64
SWIDTH 936 0
DWIDTH 26 0
BBX 23 25 1 -3
BITMAP
00FE00
03FFC0
07FFE0
0F81F0
1E0078
3C003C
38381C
70F80E
71F80E
71C00E
73860E
638E0E
E30E0E
639E1C
63FFFC
71F7F8
70E3F0
700000
380000
3C0000
1E0060
0F83E0
07FFE0
01FFC0
007F00
ENDCHAR
STARTCHAR 0041
ENCODING 65
SWIDTH 720 0
DWIDTH 20 0
BBX 16 21 2 0
BITMAP
0030
0070
0078
00F8
00F8
01F8
03F8
039C
071C
071C
0E1C
0EFC
1FFE
3FFE
3E0E
300E
7007
7007
E007
E007
C003
ENDCHAR
STARTCHAR 0042
ENCODING 66
SWIDTH 648 0
DWIDTH 18 0
BBX 13 22 3 -1
BITMAP
7F00
FF80
FFE0
E1E0
E070
E070
E070
E070
E0F0
E1E0
FFE0
FFC0
FFE0
C1F0
C038
C018
C038
C078
C3F0
FFE0
FFC0
FE00
ENDCHAR
STARTCHAR 0043
ENCODING 67
SWIDTH 612 0
DWIDTH 17 0
BBX 15 21 1 0
BITMAP
00FE
01FE
03FE
078E
0F06
1E00
3C00
3800
7800
7000
7000
E000
E000
E000
E000
E00C
701E
787C
3FF8
1FF0
0FC0
ENDCHAR
STARTCHAR 0044
ENCODING 68
SWIDTH 720 0
DWIDTH 20 0
BBX 17 21 2 0
BITMAP
700000
7C0000
7F8000
67E000
61F000
607800
601C00
600E00
600700
700700
700380
600380
600380
600380
600780
600700
600F00
F03E00
FFFC00
7FF800
1FE000
ENDCHAR
STARTCHAR 0045
ENCODING 69
SWIDTH 612 0
DWIDTH 17 0
BBX 15 21 2 0
BITMAP
FFF8
FFFE
FFFC
E000
E000
E000
E000
E000
E1F8
FFFC
FFF8
FE00
E000
E000
E000
E000
E000
E000
FFF8
7FF8
3FF8
ENDCHAR
STARTCHAR 0046
ENCODING 70
SWIDTH 612 0
DWIDTH 17 0
BBX 14 21 2 0
BITMAP
7FF0
7FFC
7FFC
780C
6000
6000
6000
6000
67F8
FFF8
FFF8
F800
E000
E000
E000
E000
E000
E000
E000
E000
6000
ENDCHAR
STARTCHAR 0047
ENCODING 71
SWIDTH 684 0
DWIDTH 19 0
BBX 18 21 1 0
BITMAP
00F000
03FC00
07FE00
0F0F00
1E0600
1C0000
380000
380000
700000
70FF80
E7FFC0
E7FF80
E38380
E00700
E00700
E00E00
E01E00
707C00
7FF800
3FF000
0FC000
ENDCHAR
STARTCHAR 0048
ENCODING 72
SWIDTH 792 0
DWIDTH 22 0
BBX 18 21 2 0
BITMAP
6000C0
6001C0
6001C0
6001C0
6001C0
E001C0
E001C0
E001C0
E001C0
E03FC0
6FFF80
7FFF80
7FC180
F00180
E00180
E00180
E00180
E00180
E001C0
E001C0
C00180
ENDCHAR
STARTCHAR 0049
ENCODING 73
SWIDTH 540 0
DWIDTH 15 0
BBX 13 21 1 0
BITMAP
FFF0
FFF8
FFF8
0700
0700
0700
0600
0600
0600
0600
0600
0600
0600
0600
0600
0600
0600
0600
7FF8
FFF8
7FF8
ENDCHAR
STARTCHAR 004A
ENCODING 74
SWIDTH 684 0
DWIDTH 19 0
BBX 17 23 1 -2
BITMAP
0FFF00
0FFF80
0FFF00
007000
007000
007000
007000
007000
007000
007000
007000
007000
007000
007000
007000
607000
E06000
E06000
70E000
7CE000
3FE000
1FC000
078000
ENDCHAR
STARTCHAR 004B
ENCODING 75
SWIDTH 612 0
DWIDTH 17 0
BBX 14 21 3 0
BITMAP
6018
E038
E078
E0F0
E1E0
E3C0
E780
EF00
FE00
FC00
F800
F800
FC00
FE00
EF00
E780
E3C0
E1F0
E0FC
E07C
E01C
ENDCHAR
STARTCHAR 004C
ENCODING 76
SWIDTH 540 0
DWIDTH 15 0
BBX 14 21 1 0
BITMAP
6000
7000
7000
7000
7000
7000
7000
7000
7000
7000
7000
7000
6000
6000
6000
6000
6000
E07C
FFFC
FFFC
7FC0
ENDCHAR
STARTCHAR 004D
ENCODING 77
SWIDTH 900 0
DWIDTH 25 0
BBX 22 22 2 -1
BITMAP
0C0180
0E03C0
1E03C0
1E03C0
1F03C0
1F07C0
3F07E0
3F07E0
3F07E0
3B0EE0
3B8E60
738E60
739C70
739C70
71DC70
E1F870
E1F838
E0F838
E0F038
E0F038
C0F01C
C06018
ENDCHAR
STARTCHAR 004E
ENCODING 78
SWIDTH 792 0
DWIDTH 22 0
BBX 19 21 2 0
BITMAP
C000C0
E001C0
F001E0
F800E0
F800E0
FC00E0
EE00E0
EF00E0
E700E0
E380E0
E1C0E0
E0E0E0
E0F0E0
E078E0
E03CE0
E01EE0
E00FE0
E007E0
E003E0
E001E0
C000C0
ENDCHAR
STARTCHAR 004F
ENCODING 79
SWIDTH 792 0
DWIDTH 22 0
BBX 19 21 2 0
BITMAP
01FC00
07FF00
0FFF80
1F03C0
3C01E0
7800E0
7000E0
7000E0
E000E0
E000E0
E000E0
C000E0
C000E0
C001C0
E001C0
E00380
700780
7C1F00
3FFE00
1FFC00
03F000
ENDCHAR
STARTCHAR 0050
ENCODING 80
SWIDTH 540 0
DWIDTH 15 0
BBX 13 21 1 0
BITMAP
7F00
7FC0
7FE0
60F0
6070
6038
6038
6038
6070
60F0
7FE0
7FC0
FF00
E000
E000
E000
E000
E000
E000
E000
6000
ENDCHAR
STARTCHAR 0051
ENCODING 81
SWIDTH 900 0
DWIDTH 25 0
BBX 23 27 1 -6
BITMAP
007E00
03FF80
07FFE0
0F81F0
1E00F0
3C0078
780038
700038
70001C
E0001C
E0001C
E0001C
E0001C
E0001C
E0001C
70303C
703838
383C78
3C1FF0
1F0FE0
0FFFC0
07FFE0
01FCF0
000078
00003C
00001E
00000E
ENDCHAR
STARTCHAR 0052
ENCODING 82
SWIDTH 648 0
DWIDTH 18 0
BBX 15 21 2 0
BITMAP
FC00
FF80
FFC0
E3F0
E0F0
E078
E038
E01C
E01C
E01C
E038
E0F0
FFE0
FF80
FF80
CFE0
C1F0
C0F8
E03C
E01E
C00C
ENDCHAR
STARTCHAR 0053
ENCODING 83
SWIDTH 684 0
DWIDTH 19 0
BBX 16 22 2 -1
BITMAP
01F8
07FE
0FFE
1E0E
3800
3800
3800
3C00
3FF0
1FFC
07FE
003E
000F
0007
0007
0007
C007
E00E
F03E
7FFC
3FF0
0FC0
ENDCHAR
STARTCHAR 0054
ENCODING 84
SWIDTH 684 0
DWIDTH 19 0
BBX 18 21 2 0
BITMAP
FFFF80
FFFFC0
7FFFC0
018000
018000
01C000
01C000
01C000
01C000
01C000
01C000
01C000
01C000
01C000
01C000
01C000
01C000
01C000
01C000
01C000
00C000
ENDCHAR
STARTCHAR 0055
ENCODING 85
SWIDTH 756 0
DWIDTH 21 0
BBX 17 21 2 0
BITMAP
600180
E00380
E00380
E00380
E00380
E00380
E00380
E00380
E00380
E00380
E00380
E00380
E00700
E00700
700700
700F00
780E00
3C1E00
3FFC00
1FF800
07E000
ENDCHAR
STARTCHAR 0056
ENCODING 86
SWIDTH 648 0
DWIDTH 18 0
BBX 16 21 2 0
BITMAP
C003
E007
E00F
E00E
600E
701C
701C
701C
3838
3838
3870
1870
1C70
1CE0
1CE0
0EE0
0FC0
0FC0
07C0
0780
0780
ENDCHAR
STARTCHAR 0057
ENCODING 87
SWIDTH 1044 0
DWIDTH 29 0
BBX 27 22 2 -1
BITMAP
E00C00C0
E00E01E0
E01E01C0
701E01C0
703E01C0
703E0380
383F0380
387F0300
38770700
38770700
1C730600
1CE30E00
1CE38C00
1CE39C00
0DC39C00
0FC19800
0F81B800
0F81F000
0781F000
0701F000
0700E000
0000E000
ENDCHAR
STARTCHAR 0058
ENCODING 88
SWIDTH 720 0
DWIDTH 20 0
BBX 18 21 1 0
BITMAP
6000C0
7001C0
7803C0
3C0780
1E0700
0F0E00
071E00
03BC00
03F800
01F000
00F000
01F000
03F800
07BC00
0F1C00
1E0E00
3C0F00
780780
700380
E001C0
C000C0
ENDCHAR
STARTCHAR 0059
ENCODING 89
SWIDTH 648 0
DWIDTH 18 0
BBX 17 22 0 -1
BITMAP
600300
E00380
700700
780700
380E00
1C0E00
1E1E00
0E1C00
071C00
073800
07B800
03F800
01F000
00F000
00E000
01E000
01C000
03C000
038000
038000
070000
030000
ENDCHAR
STARTCHAR 005A
ENCODING 90
SWIDTH 684 0
DWIDTH 19 0
BBX 18 21 1 0
BITMAP
7FFF80
FFFFC0
7FFF80
000F00
001E00
003C00
007800
00F000
01E000
01C000
038000
070000
0F0000
0E0000
1C0000
380000
780000
700000
FFFF80
FFFFC0
FFFFC0
ENDCHAR
STARTCHAR 005B
ENCODING 91
SWIDTH 396 0
DWIDTH 11 0
BBX 8 28 2 -6
BITMAP
7E
7E
7E
60
60
60
60
60
60
60
60
60
60
60
60
60
60
60
60
E0
E0
E0
E0
E0
E0
FE
FF
7E
ENDCHAR
STARTCHAR 005C
ENCODING 92
SWIDTH 540 0
DWIDTH 15 0
BBX 12 23 2 -2
BITMAP
6000
E000
7000
7000
3800
3800
1C00
1C00
0E00
0E00
0600
0700
0700
0380
0380
0180
01C0
01C0
00E0
00E0
0060
0070
0030
ENDCHAR
STARTCHAR 005D
ENCODING 93
SWIDTH 396 0
DWIDTH 11 0
BBX 8 28 2 -6
BITMAP
7E
7E
7E
06
06
06
06
06
06
06
06
06
06
06
06
06
06
06
06
06
06
07
07
07
07
7F
FF
7E
ENDCHAR
STARTCHAR 005E
ENCODING 94
SWIDTH 576 0
DWIDTH 16 0
BBX 11 7 3 15
BITMAP
0C00
1E00
3F00
7B80
71C0
E0E0
C060
ENDCHAR
STARTCHAR 005F
ENCODING 95
SWIDTH 648 0
DWIDTH 18 0
BBX 18 2 0 -5
BITMAP
FFFFC0
FFFFC0
ENDCHAR
STARTCHAR 0060
ENCODING 96
SWIDTH 576 0
DWIDTH 16 0
BBX 6 7 2 15
BITMAP
C0
E0
70
38
38
1C
0C
ENDCHAR
STARTCHAR 0061
ENCODING 97
SWIDTH 504 0
DWIDTH 14 0
BBX 13 14 1 0
BITMAP
07C0
1FF0
3FF0
7870
F060
E060
E060
C060
C060
E070
F0F0
7FF0
7FF8
1F38
ENDCHAR
STARTCHAR 0062
ENCODING 98
SWIDTH 612 0
DWIDTH 17 0
BBX 13 22 2 0
BITMAP
6000
E000
E000
E000
E000
E000
E000
E000
E780
FFE0
FFF0
F878
E038
E018
E018
E018
E038
E038
F070
FFF0
FFE0
DF80
ENDCHAR
STARTCHAR 0063
ENCODING 99
SWIDTH 504 0
DWIDTH 14 0
BBX 12 14 1 0
BITMAP
07C0
0FE0
1FF0
3830
7000
7000
6000
E000
E000
6030
7870
7FF0
3FE0
0F80
ENDCHAR
STARTCHAR 0064
ENCODING 100
SWIDTH 576 0
DWIDTH 16 0
BBX 14 22 1 0
BITMAP
000C
001C
001C
001C
001C
001C
001C
001C
07DC
1FFC
3FF8
7838
7018
6018
E018
E018
E018
7018
7878
3FFC
1FFC
0FCC
ENDCHAR
STARTCHAR 0065
ENCODING 101
SWIDTH 540 0
DWIDTH 15 0
BBX 14 14 1 0
BITMAP
0FC0
1FF0
3FF0
7830
7070
E1E0
EF80
FE00
F000
E00C
783C
7FF8
3FF0
0FC0
ENDCHAR
STARTCHAR 0066
ENCODING 102
SWIDTH 504 0
DWIDTH 14 0
BBX 12 24 1 -2
BITMAP
01E0
03F0
07F0
0F00
0E00
0E00
0C00
0C00
7FE0
FFF0
FFE0
0C00
0C00
0C00
0C00
0C00
0C00
0C00
0C00
0C00
0C00
1C00
1C00
0C00
ENDCHAR
STARTCHAR 0067
ENCODING 103
SWIDTH 540 0
DWIDTH 15 0
BBX 13 22 1 -8
BITMAP
07C0
1FF0
3FF8
7838
F038
E038
E030
C070
E070
E0F0
F1F0
7FF0
3F70
1E70
0070
0070
0060
00E0
01E0
FFC0
FFC0
7F00
ENDCHAR
STARTCHAR 0068
ENCODING 104
SWIDTH 576 0
DWIDTH 16 0
BBX 13 22 2 0
BITMAP
E000
E000
E000
E000
E000
E000
E000
E000
E3C0
EFE0
FFF0
FC70
F870
F070
F070
E070
E070
E070
E030
E030
E038
C030
ENDCHAR
STARTCHAR 0069
ENCODING 105
SWIDTH 288 0
DWIDTH 8 0
BBX 4 20 2 0
BITMAP
70
70
70
00
00
00
60
60
60
60
60
E0
E0
E0
E0
E0
E0
60
60
60
ENDCHAR
STARTCHAR 006A
ENCODING 106
SWIDTH 396 0
DWIDTH 11 0
BBX 9 28 0 -8
BITMAP
0700
0700
0700
0000
0000
0000
0300
0700
0700
0700
0300
0300
0300
0380
0380
0380
0380
0380
0380
0380
0380
C380
E380
E380
7380
7F00
3F00
1E00
ENDCHAR
STARTCHAR 006B
ENCODING 107
SWIDTH 540 0
DWIDTH 15 0
BBX 13 22 2 -1
BITMAP
6000
6000
6000
6000
6000
6000
6070
60F0
60F0
61E0
63C0
6780
6F00
7F00
7F80
F3C0
E1C0
E0E0
E0F0
E070
E038
6030
ENDCHAR
STARTCHAR 006C
ENCODING 108
SWIDTH 288 0
DWIDTH 8 0
BBX 4 22 2 0
BITMAP
60
70
70
60
60
60
60
60
60
60
60
60
60
60
60
60
E0
E0
E0
E0
E0
60
ENDCHAR
STARTCHAR 006D
ENCODING 109
SWIDTH 792 0
DWIDTH 22 0
BBX 19 15 2 -1
BITMAP
C78F00
CFFF80
DFFF80
DDF380
F9C180
F1C1C0
E1C1C0
E1C1C0
E0C1C0
C0C1C0
C0C0C0
C0C0C0
E0E0E0
C0E0C0
00C000
ENDCHAR
STARTCHAR 006E
ENCODING 110
SWIDTH 540 0
DWIDTH 15 0
BBX 12 14 2 0
BITMAP
C380
EFC0
FFE0
FCE0
F860
F060
E060
E0E0
E0E0
C060
C070
C070
E070
C060
ENDCHAR
STARTCHAR 006F
ENCODING 111
SWIDTH 540 0
DWIDTH 15 0
BBX 12 14 1 0
BITMAP
0F80
1FE0
3FE0
78F0
7070
E030
E030
E030
E030
E070
70E0
7FE0
3FC0
0F80
ENDCHAR
STARTCHAR 0070
ENCODING 112
SWIDTH 540 0
DWIDTH 15 0
BBX 12 23 2 -8
BITMAP
C000
CF80
FFC0
FFE0
F0E0
E060
E070
E070
E070
E070
E070
E0E0
FFE0
FFC0
FF00
E000
E000
E000
E000
E000
E000
E000
C000
ENDCHAR
STARTCHAR 0071
ENCODING 113
SWIDTH 540 0
DWIDTH 15 0
BBX 12 22 1 -8
BITMAP
07B0
1FF0
3FF0
7C70
7070
E070
E070
E070
E070
E060
F0E0
7FE0
3FE0
0FE0
00E0
00E0
00E0
00E0
00E0
00C0
00C0
00C0
ENDCHAR
STARTCHAR 0072
ENCODING 114
SWIDTH 468 0
DWIDTH 13 0
BBX 11 14 2 0
BITMAP
C3C0
CFC0
DFC0
FCE0
F0E0
E0C0
C000
C000
C000
C000
C000
C000
C000
C000
ENDCHAR
STARTCHAR 0073
ENCODING 115
SWIDTH 504 0
DWIDTH 14 0
BBX 11 15 1 0
BITMAP
00E0
0FE0
3FE0
7E60
7060
6000
7E00
3F80
03C0
00E0
00E0
C0E0
FFE0
FFC0
3F00
ENDCHAR
STARTCHAR 0074
ENCODING 116
SWIDTH 468 0
DWIDTH 13 0
BBX 11 19 1 0
BITMAP
0C00
0E00
0E00
0E00
0E00
FFE0
FFE0
7FE0
0E00
0E00
0E00
0E00
0E00
0E00
0E00
0E00
0E00
0E00
0600
ENDCHAR
STARTCHAR 0075
ENCODING 117
SWIDTH 540 0
DWIDTH 15 0
BBX 12 14 1 0
BITMAP
6030
7030
6070
6070
E070
E070
6070
6070
6070
7070
7070
7FF0
3FF0
1FB0
ENDCHAR
STARTCHAR 0076
ENCODING 118
SWIDTH 504 0
DWIDTH 14 0
BBX 12 15 1 -1
BITMAP
C030
E070
E070
6060
70E0
70E0
39C0
39C0
1980
1F80
1F00
0F00
0F00
0600
0200
ENDCHAR
STARTCHAR 0077
ENCODING 119
SWIDTH 684 0
DWIDTH 19 0
BBX 17 14 1 0
BITMAP
C0C180
E1C180
E1C380
E3E380
E3E380
636300
676700
766700
767600
7E7E00
3C3E00
3C3C00
383C00
181800
ENDCHAR
STARTCHAR 0078
ENCODING 120
SWIDTH 612 0
DWIDTH 17 0
BBX 15 15 1 -1
BITMAP
300C
780E
383C
1C78
0EF0
07E0
07C0
0780
0FC0
1CE0
38F0
7070
E038
C01C
000C
ENDCHAR
STARTCHAR 0079
ENCODING 121
SWIDTH 540 0
DWIDTH 15 0
BBX 14 22 0 -8
BITMAP
E01C
E01C
F03C
7038
3878
3870
1C70
1CE0
0EE0
0FC0
07C0
0780
0380
0700
0700
0700
0E00
0E00
1C00
1C00
1C00
1800
ENDCHAR
STARTCHAR 007A
ENCODING 122
SWIDTH 540 0
DWIDTH 15 0
BBX 12 14 2 0
BITMAP
FFF0
FFF0
FFF0
00E0
01C0
0380
0700
0700
0E00
1C00
3800
7FF0
FFF0
FFF0
ENDCHAR
STARTCHAR 007B
ENCODING 123
SWIDTH 360 0
DWIDTH 10 0
BBX 9 28 0 -6
BITMAP
0780
0F80
1F80
1C00
1800
1800
1800
1800
1800
1800
1800
1800
3800
7800
F000
F000
7800
3800
1800
1800
3800
3800
1800
1C00
1C00
0F80
0F80
0780
ENDCHAR
STARTCHAR 007C
ENCODING 124
SWIDTH 432 0
DWIDTH 12 0
BBX 2 28 5 -5
BITMAP
C0
C0
C0
C0
C0
C0
C0
C0
C0
C0
C0
C0
C0
C0
C0
C0
C0
C0
C0
C0
C0
C0
C0
C0
C0
C0
C0
C0
ENDCHAR
STARTCHAR 007D
ENCODING 125
SWIDTH 360 0
DWIDTH 10 0
BBX 9 28 0 -6
BITMAP
7000
FC00
FC00
1E00
0E00
0E00
0E00
0E00
0E00
0E00
0E00
0E00
0F00
0780
0380
0780
0700
0E00
0E00
0600
0600
0600
0E00
0E00
1C00
7C00
F800
7000
ENDCHAR
STARTCHAR 007E
ENCODING 126
SWIDTH 612 0
DWIDTH 17 0
BBX 15 7 1 6
BITMAP
0E00
3F04
7F0E
738C
E1FC
60FC
0070
ENDCHAR
STARTCHAR 00A0
ENCODING 160
SWIDTH 288 0
DWIDTH 8 0
BBX 0 0 0 0
BITMAP
ENDCHAR
STARTCHAR 00A1
ENCODING 161
SWIDTH 252 0
DWIDTH 7 0
BBX 2 23 2 -1
BITMAP
C0
C0
C0
00
00
C0
C0
C0
C0
C0
C0
C0
C0
C0
C0
C0
C0
C0
C0
C0
C0
C0
C0
ENDCHAR
STARTCHAR 00A2
ENCODING 162
SWIDTH 612 0
DWIDTH 17 0
BBX 13 24 2 0
BITMAP
0200
0700
0700
0700
0FD8
1FF8
3FF8
7F70
7730
E700
C700
C600
C600
C600
C618
C618
E638
F670
7FF0
3FE0
1F80
0600
0600
0600
ENDCHAR
STARTCHAR 00A3
ENCODING 163
SWIDTH 792 0
DWIDTH 22 0
BBX 19 25 1 -3
BITMAP
00FC00
03FF00
07FF80
078380
0E0180
0E0000
1C0000
1C0000
1C0000
1C0000
FFFC00
FFFE00
FFFC00
0C0000
0C0000
0E0000
0E0000
0E0000
0E0060
0C00E0
1F80E0
3FE1E0
3FFFC0
007F80
001F00
ENDCHAR
STARTCHAR 00A4
ENCODING 164
SWIDTH 612 0
DWIDTH 17 0
BBX 16 16 1 2
BITMAP
6000
7006
780F
3FFE
1FFC
1FF0
3C70
3830
3830
1C70
3FF0
7FF0
F3F8
E03C
C01C
000C
ENDCHAR
STARTCHAR 00A5
ENCODING 165
SWIDTH 648 0
DWIDTH 18 0
BBX 14 21 2 0
BITMAP
C00C
C01C
6018
7018
3030
3030
1860
7C78
7CF8
7FF8
0780
0780
0300
3FF0
3FF0
1FF0
0300
0300
0300
0300
0300
ENDCHAR
STARTCHAR 00A6
ENCODING 166
SWIDTH 396 0
DWIDTH 11 0
BBX 3 22 4 0
BITMAP
60
60
60
60
60
60
60
60
60
00
00
00
40
E0
E0
E0
60
60
60
60
60
60
ENDCHAR
STARTCHAR 00A7
ENCODING 167
SWIDTH 648 0
DWIDTH 18 0
BBX 13 21 2 0
BITMAP
0FC0
1FF0
3FF0
3878
3018
3000
3C00
7F00
67E0
60F0
7038
3C18
1FD8
01F0
C038
C018
E038
F078
7FF8
7FF0
1FC0
ENDCHAR
STARTCHAR 00A8
ENCODING 168
SWIDTH 576 0
DWIDTH 16 0
BBX 10 3 3 16
BITMAP
E1C0
E1C0
E1C0
ENDCHAR
STARTCHAR 00A9
ENCODING 169
SWIDTH 792 0
DWIDTH 22 0
BBX 20 22 1 0
BITMAP
00FC00
03FF00
07FF80
0F83C0
1C00E0
3878E0
71F860
73F870
678070
E70070
E60070
E60C70
E71C70
E7FC60
E3F8E0
60F0E0
7001C0
780380
3E0F80
1FFF00
0FFE00
03F800
ENDCHAR
STARTCHAR 00AA
ENCODING 170
SWIDTH 540 0
DWIDTH 15 0
BBX 11 11 1 12
BITMAP
1FC0
3FE0
7FE0
70E0
E0E0
E1E0
E1E0
73E0
7FE0
3F60
1E60
ENDCHAR
STARTCHAR 00AB
ENCODING 171
SWIDTH 576 0
DWIDTH 16 0
BBX 15 12 0 3
BITMAP
0304
078E
0F1C
1E38
3CF0
79E0
F1C0
78E0
1C78
0E3C
071C
030C
ENDCHAR
STARTCHAR 00AC
ENCODING 172
SWIDTH 468 0
DWIDTH 13 0
BBX 11 7 1 3
BITMAP
FFE0
FFE0
FFE0
0060
0060
0060
0060
ENDCHAR
STARTCHAR 00AD
ENCODING 173
SWIDTH 432 0
DWIDTH 12 0
BBX 8 3 2 6
BITMAP
FF
FF
FF
ENDCHAR
STARTCHAR 00AE
ENCODING 174
SWIDTH 792 0
DWIDTH 22 0
BBX 20 19 1 3
BITMAP
00FE00
07FF00
1FFF80
1F03C0
39F8E0
73FEE0
73FE70
630E70
E3FC30
E7F830
E7E070
E67070
E63C60
761CE0
7003C0
3C0780
1FFF00
0FFE00
03F800
ENDCHAR
STARTCHAR 00AF
ENCODING 175
SWIDTH 648 0
DWIDTH 18 0
BBX 18 2 0 23
BITMAP
FFFFC0
FFFFC0
ENDCHAR
STARTCHAR 00B0
ENCODING 176
SWIDTH 396 0
DWIDTH 11 0
BBX 9 10 1 13
BITMAP
1E00
7F00
E380
C180
C180
C180
C180
E380
7F00
3E00
ENDCHAR
STARTCHAR 00B1
ENCODING 177
SWIDTH 468 0
DWIDTH 13 0
BBX 11 16 1 -1
BITMAP
0C00
0E00
0E00
0E00
FFE0
FFE0
FFE0
0E00
0E00
0E00
0C00
0000
0000
FFE0
FFE0
FFE0
ENDCHAR
STARTCHAR 00B2
ENCODING 178
SWIDTH 648 0
DWIDTH 18 0
BBX 8 12 5 12
BITMAP
3C
7E
E7
C3
07
0E
1E
3C
70
E0
FF
7F
ENDCHAR
STARTCHAR 00B3
ENCODING 179
SWIDTH 648 0
DWIDTH 18 0
BBX 7 11 6 12
BITMAP
78
FC
0C
0C
3C
3C
0E
06
06
FC
F8
ENDCHAR
STARTCHAR 00B4
ENCODING 180
SWIDTH 576 0
DWIDTH 16 0
BBX 6 6 3 16
BITMAP
1C
1C
38
70
E0
C0
ENDCHAR
STARTCHAR 00B5
ENCODING 181
SWIDTH 540 0
DWIDTH 15 0
BBX 16 20 0 -6
BITMAP
0603
0607
0E07
0E07
0C0E
1C0E
1C0E
1C0E
1C0C
181C
181C
181C
3FF8
3FF8
3F98
7000
7000
6000
E000
6000
ENDCHAR
STARTCHAR 00B6
ENCODING 182
SWIDTH 684 0
DWIDTH 19 0
BBX 17 24 1 -3
BITMAP
003B00
01FF80
0FFB80
1FF980
3F3980
783980
703980
E03980
E03B80
C03380
C03380
E03300
787300
7FF300
1FF700
07F700
007700
006600
006600
00EE00
00EE00
00EE00
00CC00
00CC00
ENDCHAR
STARTCHAR 00B7
ENCODING 183
SWIDTH 252 0
DWIDTH 7 0
BBX 3 3 2 9
BITMAP
E0
E0
E0
ENDCHAR
STARTCHAR 00B8
ENCODING 184
SWIDTH 576 0
DWIDTH 16 0
BBX 7 8 5 -6
BITMAP
70
78
1C
0E
06
CE
FC
78
ENDCHAR
STARTCHAR 00B9
ENCODING 185
SWIDTH 648 0
DWIDTH 18 0
BBX 7 12 6 12
BITMAP
30
70
F0
F0
30
30
30
30
30
30
FE
FE
ENDCHAR
STARTCHAR 00BA
ENCODING 186
SWIDTH 468 0
DWIDTH 13 0
BBX 11 11 1 12
BITMAP
1E00
3F80
7FC0
F1C0
E0E0
C0E0
E0E0
E1C0
FFC0
7F80
1F00
ENDCHAR
STARTCHAR 00BB
ENCODING 187
SWIDTH 576 0
DWIDTH 16 0
BBX 15 12 0 3
BITMAP
4180
E3C0
71E0
38F0
1E78
0F3C
079E
0F3C
1C70
78E0
71C0
6180
ENDCHAR
STARTCHAR 00BC
ENCODING 188
SWIDTH 648 0
DWIDTH 18 0
BBX 15 28 2 -5
BITMAP
0300
0700
0F00
0F00
0300
0300
0300
0300
0300
0FE0
0FE0
0000
0000
FFFC
FFFE
0000
0180
0380
0380
0780
0F80
1D80
3980
3F80
3FF0
0180
0180
0180
ENDCHAR
STARTCHAR 00BD
ENCODING 189
SWIDTH 648 0
DWIDTH 18 0
BBX 14 28 2 -5
BITMAP
0300
0700
0F00
0F00
0300
0300
0300
0300
0300
0FE0
0FE0
0000
0000
FFFC
FFFC
0000
0780
0FC0
1CE0
1860
00E0
01C0
03C0
0780
0E00
1C00
1FE0
0FE0
ENDCHAR
STARTCHAR 00BE
ENCODING 190
SWIDTH 648 0
DWIDTH 18 0
BBX 15 29 2 -5
BITMAP
0780
0FC0
00C0
00C0
01C0
03C0
03C0
0060
0060
00E0
0FC0
0F80
0000
0000
FFFC
FFFE
0000
0180
0380
0380
0780
0F80
1D80
3980
3FE0
3FF0
0180
0180
0180
ENDCHAR
STARTCHAR 00BF
ENCODING 191
SWIDTH 540 0
DWIDTH 15 0
BBX 12 21 1 -1
BITMAP
01C0
01C0
01C0
0000
0000
0380
0780
0F00
1E00
7E00
7C00
F800
F000
E000
E000
C000
E030
78F0
3FF0
1FE0
0F80
ENDCHAR
STARTCHAR 00C0
ENCODING 192
SWIDTH 720 0
DWIDTH 20 0
BBX 16 28 2 0
BITMAP
0180
01C0
00E0
0070
0038
0038
0018
0030
0070
0078
00F8
00F8
01F8
03F8
039C
071C
071C
0E1C
0EFC
1FFE
3FFE
3E0E
300E
7007
7007
E007
E007
C003
ENDCHAR
STARTCHAR 00C1
ENCODING 193
SWIDTH 720 0
DWIDTH 20 0
BBX 16 28 2 0
BITMAP
0006
000F
001E
003C
0038
0030
0000
0030
0070
0078
00F8
00F8
01F8
03F8
039C
071C
071C
0E1C
0EFC
1FFE
3FFE
3E0E
300E
7007
7007
E007
E007
C003
ENDCHAR
STARTCHAR 00C2
ENCODING 194
SWIDTH 720 0
DWIDTH 20 0
BBX 16 28 2 0
BITMAP
0030
0078
00FC
01DE
038F
0707
0603
0030
0070
0078
00F8
00F8
01F8
03F8
039C
071C
071C
0E1C
0EFC
1FFE
3FFE
3E0E
300E
7007
7007
E007
E007
C003
ENDCHAR
STARTCHAR 00C3
ENCODING 195
SWIDTH 720 0
DWIDTH 20 0
BBX 18 27 2 0
BITMAP
01E0C0
03F0C0
073980
061F80
000F00
000000
003000
007000
007800
00F800
00F800
01F800
03F800
039C00
071C00
071C00
0E1C00
0EFC00
1FFE00
3FFE00
3E0E00
300E00
700700
700700
E00700
E00700
C00300
ENDCHAR
STARTCHAR 00C4
ENCODING 196
SWIDTH 720 0
DWIDTH 20 0
BBX 16 25 2 0
BITMAP
0187
0387
0387
0000
0030
0070
0078
00F8
00F8
01F8
03F8
039C
071C
071C
0E1C
0EFC
1FFE
3FFE
3E0E
300E
7007
7007
E007
E007
C003
ENDCHAR
STARTCHAR 00C5
ENCODING 197
SWIDTH 720 0
DWIDTH 20 0
BBX 16 27 2 0
BITMAP
007C
00FE
01C7
0183
0183
01C7
01FE
007C
0078
00F8
00F8
01F8
03F8
039C
071C
071C
0E1C
0EFC
1FFE
3FFE
3E0E
300E
7007
7007
E007
E007
C003
ENDCHAR
STARTCHAR 00C6
ENCODING 198
SWIDTH 1080 0
DWIDTH 30 0
BBX 29 23 1 -1
BITMAP
0001FFF0
0007FFF8
000FFFF8
001FE000
001DC000
0039C000
0079C000
00F1C000
00C1C3F0
01FFFFF0
03FFFFF0
07FFFF00
06018000
0C018000
1C018000
38018000
38018000
70018000
70018000
E001C000
E001FFF0
C000FFF0
00007FF0
ENDCHAR
STARTCHAR 00C7
ENCODING 199
SWIDTH 612 0
DWIDTH 17 0
BBX 15 26 1 -5
BITMAP
00FE
01FE
03FE
078E
0F06
1E06
1C00
3800
3800
7000
7000
6000
E000
E000
E000
E000
600C
701E
787C
3FF8
1FE0
0380
00C0
01C0
3F80
3F00
ENDCHAR
STARTCHAR 00C8
ENCODING 200
SWIDTH 612 0
DWIDTH 17 0
BBX 15 30 2 0
BITMAP
0600
0700
0380
01C0
00E0
00E0
0060
0000
0000
FFF8
FFFE
FFFC
E000
E000
E000
E000
E000
E1F8
FFFC
FFF8
FE00
E000
E000
E000
E000
E000
E000
FFF8
7FF8
3FF8
ENDCHAR
STARTCHAR 00C9
ENCODING 201
SWIDTH 612 0
DWIDTH 17 0
BBX 15 30 2 0
BITMAP
0018
0038
0070
00E0
01C0
01C0
0000
0000
0000
FFF8
FFFE
FFFC
E000
E000
E000
E000
E000
E1F8
FFFC
FFF8
FE00
E000
E000
E000
E000
E000
E000
FFF8
7FF8
3FF8
ENDCHAR
STARTCHAR 00CA
ENCODING 202
SWIDTH 612 0
DWIDTH 17 0
BBX 15 31 2 0
BITMAP
0180
03E0
03F0
0770
0E38
1C1C
180C
0000
0000
0000
FFF8
FFFE
FFFC
E000
E000
E000
E000
E000
E1F8
FFFC
FFF8
FE00
E000
E000
E000
E000
E000
E000
FFF8
7FF8
3FF8
ENDCHAR
STARTCHAR 00CB
ENCODING 203
SWIDTH 612 0
DWIDTH 17 0
BBX 15 27 2 0
BITMAP
0E18
0E3C
0C1C
0000
0000
0000
FFF8
FFFE
FFFC
E000
E000
E000
E000
E000
E1F8
FFFC
FFF8
FE00
E000
E000
E000
E000
E000
E000
FFF8
7FF8
3FF8
ENDCHAR
STARTCHAR 00CC
ENCODING 204
SWIDTH 540 0
DWIDTH 15 0
BBX 13 29 1 0
BITMAP
0C00
1E00
0F00
0700
0380
0380
0180
0000
FFF0
FFF8
FFF8
0700
0700
0700
0600
0600
0600
0600
0600
0600
0600
0600
0600
0600
0600
0600
7FF8
FFF8
7FF8
ENDCHAR
STARTCHAR 00CD
ENCODING 205
SWIDTH 540 0
DWIDTH 15 0
BBX 13 28 1 0
BITMAP
0060
00E0
01C0
0380
0700
0600
0000
FFF0
FFF8
FFF8
0700
0700
0700
0600
0600
0600
0600
0600
0600
0600
0600
0600
0600
0600
0600
7FF8
FFF8
7FF8
ENDCHAR
STARTCHAR 00CE
ENCODING 206
SWIDTH 540 0
DWIDTH 15 0
BBX 13 30 1 0
BITMAP
0300
0780
0FC0
1EE0
3C70
7838
3030
0000
0000
FFF0
FFF8
FFF8
0700
0700
0700
0600
0600
0600
0600
0600
0600
0600
0600
0600
0600
0600
0600
7FF8
FFF8
7FF8
ENDCHAR
STARTCHAR 00CF
ENCODING 207
SWIDTH 540 0
DWIDTH 15 0
BBX 13 25 1 0
BITMAP
1870
3870
3870
0000
FFF0
FFF8
FFF8
0700
0700
0700
0600
0600
0600
0600
0600
0600
0600
0600
0600
0600
0600
0600
7FF8
FFF8
7FF8
ENDCHAR
STARTCHAR 00D0
ENCODING 208
SWIDTH 720 0
DWIDTH 20 0
BBX 20 22 -1 -1
BITMAP
0E0000
0F8000
0FE000
0CF800
0C3E00
0C0F00
0C0780
0C01C0
0E00E0
0E00E0
7FE060
FFE070
7FE070
0C0070
0C0070
0C00E0
0C00E0
0C01E0
1E07C0
0FFF80
0FFF00
01FC00
ENDCHAR
STARTCHAR 00D1
ENCODING 209
SWIDTH 792 0
DWIDTH 22 0
BBX 19 27 2 0
BITMAP
078300
0FC700
1CE600
187E00
003C00
000000
C000C0
E001C0
F001E0
F800E0
F800E0
FC00E0
EE00E0
EF00E0
E700E0
E380E0
E1C0E0
E0E0E0
E0F0E0
E078E0
E03CE0
E01EE0
E00FE0
E007E0
E003E0
E001E0
C000C0
ENDCHAR
STARTCHAR 00D2
ENCODING 210
SWIDTH 792 0
DWIDTH 22 0
BBX 19 28 2 0
BITMAP
006000
007000
003800
003C00
001C00
000E00
000400
01FC00
07FF00
0FFF80
1F03C0
3C01E0
7800E0
7000E0
7000E0
E000E0
E000E0
E000E0
C000E0
C000E0
C001C0
E001C0
E00380
700780
7C1F00
3FFE00
1FFC00
03F000
ENDCHAR
STARTCHAR 00D3
ENCODING 211
SWIDTH 792 0
DWIDTH 22 0
BBX 19 28 2 0
BITMAP
000300
000700
000E00
001C00
003800
003800
000000
01FC00
07FF00
0FFF80
1F03C0
3C01E0
7800E0
7000E0
7000E0
E000E0
E000E0
E000E0
C000E0
C000E0
C001C0
E001C0
E00380
700780
7C1F00
3FFE00
1FFC00
03F000
ENDCHAR
STARTCHAR 00D4
ENCODING 212
SWIDTH 792 0
DWIDTH 22 0
BBX 19 29 2 0
BITMAP
003800
003C00
007E00
00EF00
01C780
038380
030180
000000
01FC00
07FF00
0FFF80
1F03C0
3C01E0
7800E0
7000E0
7000E0
E000E0
E000E0
E000E0
C000E0
C000E0
C001C0
E001C0
E00380
700780
7C1F00
3FFE00
1FFC00
03F000
ENDCHAR
STARTCHAR 00D5
ENCODING 213
SWIDTH 792 0
DWIDTH 22 0
BBX 19 27 2 0
BITMAP
01E0C0
03F0C0
073980
061F80
000F00
000000
01FC00
07FF00
0FFF80
1F03C0
3C01E0
7800E0
7000E0
7000E0
E000E0
E000E0
E000E0
C000E0
C000E0
C001C0
E001C0
E00380
700780
7C1F00
3FFE00
1FFC00
03F000
ENDCHAR
STARTCHAR 00D6
ENCODING 214
SWIDTH 792 0
DWIDTH 22 0
BBX 19 26 2 0
BITMAP
038700
038700
038700
000000
000000
01FC00
07FF00
0FFF80
1F03C0
3C01E0
7800E0
7000E0
7000E0
E000E0
E000E0
E000E0
C000E0
C000E0
C001C0
E001C0
E00380
700780
7C1F00
3FFE00
1FFC00
03F000
ENDCHAR
STARTCHAR 00D7
ENCODING 215
SWIDTH 468 0
DWIDTH 13 0
BBX 11 11 1 3
BITMAP
C0C0
F1E0
FBC0
3F80
1F00
1F00
1F80
3F80
79C0
71C0
60C0
ENDCHAR
STARTCHAR 00D8
ENCODING 216
SWIDTH 792 0
DWIDTH 22 0
BBX 21 22 1 -1
BITMAP
00FE18
03FFB8
07FFF0
0F81F0
1E01F0
1C03F0
3C07F0
380F70
781E30
703C30
707870
707070
70E070
71C070
7380E0
7700E0
7E01E0
3C03C0
3E0780
7FFF00
E7FE00
C1F800
ENDCHAR
STARTCHAR 00D9
ENCODING 217
SWIDTH 756 0
DWIDTH 21 0
BBX 17 28 2 0
BITMAP
060000
070000
078000
03C000
01C000
00E000
00C000
600180
E00380
E00380
E00380
E00380
E00380
E00380
E00380
E00380
E00380
E00380
E00380
E00700
E00700
700700
700F00
780E00
3C1E00
3FFC00
1FF800
07E000
ENDCHAR
STARTCHAR 00DA
ENCODING 218
SWIDTH 756 0
DWIDTH 21 0
BBX 17 28 2 0
BITMAP
001800
003800
007000
00E000
01E000
01C000
000000
600180
E00380
E00380
E00380
E00380
E00380
E00380
E00380
E00380
E00380
E00380
E00380
E00700
E00700
700700
700F00
780E00
3C1E00
3FFC00
1FF800
07E000
ENDCHAR
STARTCHAR 00DB
ENCODING 219
SWIDTH 756 0
DWIDTH 21 0
BBX 17 29 2 0
BITMAP
00C000
01F000
03F000
03B800
071C00
0E0E00
0C0600
000000
600180
E00380
E00380
E00380
E00380
E00380
E00380
E00380
E00380
E00380
E00380
E00380
E00700
E00700
700700
700F00
780E00
3C1E00
3FFC00
1FF800
07E000
ENDCHAR
STARTCHAR 00DC
ENCODING 220
SWIDTH 756 0
DWIDTH 21 0
BBX 17 25 2 0
BITMAP
061C00
0F1E00
060C00
000000
600180
E00380
E00380
E00380
E00380
E00380
E00380
E00380
E00380
E00380
E00380
E00380
E00700
E00700
700700
700F00
780E00
3C1E00
3FFC00
1FF800
07E000
ENDCHAR
STARTCHAR 00DD
ENCODING 221
SWIDTH 648 0
DWIDTH 18 0
BBX 17 30 0 -1
BITMAP
001C00
003C00
003800
007000
00E000
00C000
000000
000000
600300
E00380
700700
780700
380E00
1C0E00
1E1E00
0E1C00
071C00
073800
07B800
03F800
01F000
00F000
00E000
01E000
01C000
03C000
038000
038000
070000
030000
ENDCHAR
STARTCHAR 00DE
ENCODING 222
SWIDTH 540 0
DWIDTH 15 0
BBX 13 21 1 0
BITMAP
6000
7000
7F00
7FC0
7FE0
60F0
6078
6038
6038
6038
6038
6070
E1F0
FFE0
FFC0
FF00
E000
E000
E000
E000
6000
ENDCHAR
STARTCHAR 00DF
ENCODING 223
SWIDTH 432 0
DWIDTH 12 0
BBX 11 24 1 -2
BITMAP
0F00
3F80
7FC0
71C0
70C0
E0C0
E0C0
E1C0
E380
E780
EF00
C780
C3C0
C1C0
C0E0
C0E0
C0E0
C0E0
F8E0
FFE0
EFC0
C780
C000
C000
ENDCHAR
STARTCHAR 00E0
ENCODING 224
SWIDTH 504 0
DWIDTH 14 0
BBX 13 22 1 0
BITMAP
0C00
1E00
0E00
0700
0380
0380
0180
0000
07C0
1FF0
3FF0
7870
7070
E070
E070
E070
E070
E070
F0F0
7FF0
7FF8
1F98
ENDCHAR
STARTCHAR 00E1
ENCODING 225
SWIDTH 504 0
DWIDTH 14 0
BBX 13 22 1 0
BITMAP
0070
00F0
00E0
01C0
0380
0300
0000
0000
07C0
1FF0
3FF0
7870
7070
E070
E070
E070
E070
E070
F0F0
7FF0
7FF8
1F98
ENDCHAR
STARTCHAR 00E2
ENCODING 226
SWIDTH 504 0
DWIDTH 14 0
BBX 13 23 1 0
BITMAP
0300
0780
0FC0
1FE0
3CF0
7870
3030
0000
0000
07C0
1FF0
3FF0
7870
7070
E070
E070
E070
E070
E070
F0F0
7FF0
7FF8
1F98
ENDCHAR
STARTCHAR 00E3
ENCODING 227
SWIDTH 504 0
DWIDTH 14 0
BBX 14 21 1 0
BITMAP
1E08
3F1C
7318
61F8
00F0
0000
0000
07C0
1FF0
3FF0
7870
7070
E070
E070
E070
E070
E070
F0F0
7FF0
7FF8
1F98
ENDCHAR
STARTCHAR 00E4
ENCODING 228
SWIDTH 504 0
DWIDTH 14 0
BBX 13 19 1 0
BITMAP
1870
3870
1870
0000
0000
07C0
1FF0
3FF0
7870
7070
E070
E070
E070
E070
E070
F0F0
7FF0
7FF8
1F98
ENDCHAR
STARTCHAR 00E5
ENCODING 229
SWIDTH 504 0
DWIDTH 14 0
BBX 13 24 1 0
BITMAP
07C0
0FE0
1C70
1830
1830
1C70
0FE0
07C0
0000
0000
07C0
1FF0
3FF0
7870
7070
E070
E070
E070
E070
E070
F0F0
7FF0
7FF8
1F98
ENDCHAR
STARTCHAR 00E6
ENCODING 230
SWIDTH 936 0
DWIDTH 26 0
BBX 24 15 1 -1
BITMAP
07C3F0
1FF7F8
3FFFFC
7C3E0C
70383C
E038F8
E037F0
E07FC0
E07F00
E03C00
F03806
787C0F
7FFFFE
3FF7FC
0F33F0
ENDCHAR
STARTCHAR 00E7
ENCODING 231
SWIDTH 504 0
DWIDTH 14 0
BBX 12 20 1 -6
BITMAP
07C0
0FE0
1FF0
3C30
3800
7000
6000
6000
E000
E000
6000
7870
3FF0
1FF0
0FC0
0180
0180
19C0
1F80
0F00
ENDCHAR
STARTCHAR 00E8
ENCODING 232
SWIDTH 540 0
DWIDTH 15 0
BBX 14 22 1 0
BITMAP
1800
1C00
0E00
0700
0380
0380
0180
0000
0FC0
1FF0
3FF0
7830
7070
E1E0
EF80
FE00
F000
E00C
783C
7FF8
3FF0
0FC0
ENDCHAR
STARTCHAR 00E9
ENCODING 233
SWIDTH 540 0
DWIDTH 15 0
BBX 14 22 1 0
BITMAP
0070
00F0
00E0
01C0
0380
0300
0000
0000
0FC0
1FF0
3FF0
7830
7070
E1E0
EF80
FE00
F000
E00C
783C
7FF8
3FF0
0FC0
ENDCHAR
STARTCHAR 00EA
ENCODING 234
SWIDTH 540 0
DWIDTH 15 0
BBX 14 23 1 0
BITMAP
0300
0780
0FC0
1EE0
3C70
3838
3018
0000
0000
0FC0
1FF0
3FF0
7830
7070
E1E0
EF80
FE00
F000
E00C
783C
7FF8
3FF0
0FC0
ENDCHAR
STARTCHAR 00EB
ENCODING 235
SWIDTH 540 0
DWIDTH 15 0
BBX 14 20 1 0
BITMAP
1C30
1C38
1838
0000
0000
0000
0FC0
1FF0
3FF0
7830
7070
E1E0
EF80
FE00
F000
E00C
783C
7FF8
3FF0
0FC0
ENDCHAR
STARTCHAR 00EC
ENCODING 236
SWIDTH 288 0
DWIDTH 8 0
BBX 6 22 0 0
BITMAP
60
F0
70
38
1C
1C
0C
00
18
18
18
18
18
38
38
38
38
38
38
18
18
18
ENDCHAR
STARTCHAR 00ED
ENCODING 237
SWIDTH 288 0
DWIDTH 8 0
BBX 6 22 1 0
BITMAP
0C
1C
38
70
F0
E0
00
00
30
30
30
30
30
70
70
70
70
70
70
30
30
30
ENDCHAR
STARTCHAR 00EE
ENCODING 238
SWIDTH 288 0
DWIDTH 8 0
BBX 11 22 -2 0
BITMAP
0600
0F00
1F80
3BC0
71E0
E0E0
C060
0000
0600
0600
0600
0600
0600
0E00
0E00
0E00
0E00
0E00
0E00
0600
0600
0600
ENDCHAR
STARTCHAR 00EF
ENCODING 239
SWIDTH 288 0
DWIDTH 8 0
BBX 11 19 -2 0
BITMAP
61C0
F1E0
60C0
0000
0000
0600
0600
0600
0600
0600
0E00
0E00
0E00
0E00
0E00
0E00
0600
0600
0600
ENDCHAR
STARTCHAR 00F0
ENCODING 240
SWIDTH 504 0
DWIDTH 14 0
BBX 11 22 3 0
BITMAP
2000
7000
79C0
3FC0
1F80
3E00
FF00
6300
0380
0380
0FC0
3FC0
78C0
E0E0
C0E0
C0C0
C0C0
C1C0
E3C0
FF80
7F00
3E00
ENDCHAR
STARTCHAR 00F1
ENCODING 241
SWIDTH 540 0
DWIDTH 15 0
BBX 13 21 2 0
BITMAP
3C18
7E38
E730
C3F0
01E0
0000
0000
C380
EFC0
FFE0
FCE0
F860
F060
E060
E0E0
E0E0
C060
C070
C070
E070
C060
ENDCHAR
STARTCHAR 00F2
ENCODING 242
SWIDTH 540 0
DWIDTH 15 0
BBX 12 22 1 0
BITMAP
0C00
0E00
0700
0380
01C0
01C0
00C0
0000
0780
1FE0
3FE0
7870
7070
E030
E030
E030
E030
E070
70F0
7FE0
3FC0
0F00
ENDCHAR
STARTCHAR 00F3
ENCODING 243
SWIDTH 540 0
DWIDTH 15 0
BBX 12 22 1 0
BITMAP
0070
00F0
01E0
01C0
0380
0300
0000
0000
0780
1FE0
3FE0
7870
7070
E030
E030
E030
E030
E070
70F0
7FE0
3FC0
0F00
ENDCHAR
STARTCHAR 00F4
ENCODING 244
SWIDTH 540 0
DWIDTH 15 0
BBX 13 23 1 0
BITMAP
0300
0780
0FC0
1EE0
3CF0
7878
3030
0000
0000
0780
1FE0
3FE0
7870
7070
E030
E030
E030
E030
E070
70F0
7FE0
3FC0
0F00
ENDCHAR
STARTCHAR 00F5
ENCODING 245
SWIDTH 540 0
DWIDTH 15 0
BBX 14 21 1 0
BITMAP
1E0C
3F0C
7398
61F8
00F0
0000
0000
0780
1FE0
3FE0
7870
7070
E030
E030
E030
E030
E070
70F0
7FE0
3FC0
0F00
ENDCHAR
STARTCHAR 00F6
ENCODING 246
SWIDTH 540 0
DWIDTH 15 0
BBX 13 19 1 0
BITMAP
1C30
1C78
1838
0000
0000
0780
1FE0
3FE0
7870
7070
E030
E030
E030
E030
E070
70F0
7FE0
3FC0
0F00
ENDCHAR
STARTCHAR 00F7
ENCODING 247
SWIDTH 468 0
DWIDTH 13 0
BBX 11 14 1 3
BITMAP
0C00
0C00
0C00
0000
0000
0000
FFE0
FFE0
FFE0
0000
0000
0400
0E00
0400
ENDCHAR
STARTCHAR 00F8
ENCODING 248
SWIDTH 540 0
DWIDTH 15 0
BBX 13 14 1 0
BITMAP
0F98
1FF8
3FF0
7870
70F0
E1B0
E330
E630
EC70
F870
70E0
7FE0
FFC0
8F80
ENDCHAR
STARTCHAR 00F9
ENCODING 249
SWIDTH 540 0
DWIDTH 15 0
BBX 12 22 1 0
BITMAP
0C00
0E00
0F00
0700
0380
0180
0180
0000
6030
7030
6070
6070
E070
E070
6070
6070
6070
7070
7070
7FF0
3FF0
1FB0
ENDCHAR
STARTCHAR 00FA
ENCODING 250
SWIDTH 540 0
DWIDTH 15 0
BBX 12 22 1 0
BITMAP
0060
00F0
01E0
01C0
0380
0300
0000
0000
6030
7030
6070
6070
E070
E070
6070
6070
6070
7070
7070
7FF0
3FF0
1FB0
ENDCHAR
STARTCHAR 00FB
ENCODING 251
SWIDTH 540 0
DWIDTH 15 0
BBX 12 23 1 0
BITMAP
0600
0F00
1F80
3DC0
78E0
7070
6030
0000
0000
6030
7030
6070
6070
E070
E070
6070
6070
6070
7070
7070
7FF0
3FF0
1FB0
ENDCHAR
STARTCHAR 00FC
ENCODING 252
SWIDTH 540 0
DWIDTH 15 0
BBX 12 20 1 0
BITMAP
3870
3870
3870
0000
0000
0000
6030
7030
6070
6070
E070
E070
6070
6070
6070
7070
7070
7FF0
3FF0
1FB0
ENDCHAR
STARTCHAR 00FD
ENCODING 253
SWIDTH 540 0
DWIDTH 15 0
BBX 14 30 0 -8
BITMAP
00E0
01E0
03C0
0380
0700
0600
0000
0000
E01C
E01C
F03C
7038
3878
3870
1C70
1CE0
0EE0
0FC0
07C0
0780
0380
0700
0700
0700
0E00
0E00
1C00
1C00
1C00
1800
ENDCHAR
STARTCHAR 00FE
ENCODING 254
SWIDTH 540 0
DWIDTH 15 0
BBX 12 28 2 -8
BITMAP
C000
C000
C000
C000
C000
C000
CF80
FFC0
FFE0
F0E0
E060
E070
E070
E070
E070
E070
E0E0
FFE0
FFC0
FF00
E000
E000
E000
E000
E000
E000
E000
C000
ENDCHAR
STARTCHAR 00FF
ENCODING 255
SWIDTH 540 0
DWIDTH 15 0
BBX 14 27 0 -8
BITMAP
3870
3870
3870
0000
0000
E01C
E01C
F03C
7038
3878
3870
1C70
1CE0
0EE0
0FC0
07C0
0780
0380
0700
0700
0700
0E00
0E00
1C00
1C00
1C00
1800
ENDCHAR
STARTCHAR 0100
ENCODING 256
SWIDTH 720 0
DWIDTH 20 0
BBX 16 24 2 0
BITMAP
01FF
01FF
0000
0030
0070
0078
00F8
00F8
01F8
03F8
039C
071C
071C
0E1C
0EFC
1FFE
3FFE
3E0E
300E
7007
7007
E007
E007
C003
ENDCHAR
STARTCHAR 0101
ENCODING 257
SWIDTH 504 0
DWIDTH 14 0
BBX 13 18 1 0
BITMAP
1FF0
1FF0
0000
0000
07C0
1FF0
3FF0
7870
F060
E060
E060
C060
C060
E070
F0F0
7FF0
7FF8
1F38
ENDCHAR
STARTCHAR 0102
ENCODING 258
SWIDTH 720 0
DWIDTH 20 0
BBX 16 28 2 0
BITMAP
0600
0601
0603
0307
03FE
00F8
0000
0030
0070
0078
00F8
00F8
01F8
03F8
039C
071C
071C
0E1C
0EFC
1FFE
3FFE
3E0E
300E
7007
7007
E007
E007
C003
ENDCHAR
STARTCHAR 0103
ENCODING 259
SWIDTH 504 0
DWIDTH 14 0
BBX 13 22 1 0
BITMAP
6000
6010
6030
3070
3FE0
0F80
0000
0000
07C0
1FF0
3FF0
7870
F060
E060
E060
C060
C060
E070
F0F0
7FF0
7FF8
1F38
ENDCHAR
STARTCHAR 0104
ENCODING 260
SWIDTH 720 0
DWIDTH 20 0
BBX 19 25 2 -4
BITMAP
003000
007000
007800
00F800
01F800
01F800
039800
079C00
071C00
0F1C00
0E3C00
1FFC00
3FFE00
3FCE00
3C0E00
780E00
700700
F00700
E00700
E00700
C00F00
000C00
000620
0007E0
0003C0
ENDCHAR
STARTCHAR 0105
ENCODING 261
SWIDTH 504 0
DWIDTH 14 0
BBX 17 18 1 -4
BITMAP
07C000
1FF000
3FF000
78F000
F06000
E06000
E06000
C06000
C06000
E07000
F0F000
7FF000
7FF800
1F3800
003000
003180
003F80
001F00
ENDCHAR
STARTCHAR 0106
ENCODING 262
SWIDTH 612 0
DWIDTH 17 0
BBX 15 28 1 0
BITMAP
001C
003C
0038
0070
00E0
00C0
0000
00FE
01FE
03FE
078E
0F06
1E00
3C00
3800
7800
7000
7000
E000
E000
E000
E000
E00C
701E
787C
3FF8
1FF0
0FC0
ENDCHAR
STARTCHAR 0107
ENCODING 263
SWIDTH 504 0
DWIDTH 14 0
BBX 12 22 1 0
BITMAP
00E0
01E0
01C0
0380
0700
0600
0000
0000
07C0
0FE0
1FF0
3830
7000
7000
6000
E000
E000
6030
7870
7FF0
3FE0
0F80
ENDCHAR
STARTCHAR 0108
ENCODING 264
SWIDTH 612 0
DWIDTH 17 0
BBX 15 29 1 0
BITMAP
0060
00F0
01F8
03FC
079E
0F0E
0606
0000
00FE
01FE
03FE
078E
0F06
1E00
3C00
3800
7800
7000
7000
E000
E000
E000
E000
E00C
701E
787C
3FF8
1FF0
0FC0
ENDCHAR
STARTCHAR 0109
ENCODING 265
SWIDTH 504 0
DWIDTH 14 0
BBX 13 23 1 0
BITMAP
0300
0780
0FC0
1EE0
3C70
3838
3018
0000
0000
07C0
0FE0
1FF0
3830
7000
7000
6000
E000
E000
6030
7870
7FF0
3FE0
0F80
ENDCHAR
STARTCHAR 010A
ENCODING 266
SWIDTH 612 0
DWIDTH 17 0
BBX 15 25 1 0
BITMAP
0060
0070
0030
0000
00FE
01FE
03FE
078E
0F06
1E00
3C00
3800
7800
7000
7000
E000
E000
E000
E000
E00C
701E
787C
3FF8
1FF0
0FC0
ENDCHAR
STARTCHAR 010B
ENCODING 267
SWIDTH 504 0
DWIDTH 14 0
BBX 12 19 1 0
BITMAP
0300
0380
0180
0000
0000
07C0
0FE0
1FF0
3830
7000
7000
6000
E000
E000
6030
7870
7FF0
3FE0
0F80
ENDCHAR
STARTCHAR 010C
ENCODING 268
SWIDTH 612 0
DWIDTH 17 0
BBX 15 28 1 0
BITMAP
0300
0386
038E
01FC
00F0
00E0
0000
00FE
01FE
03FE
078E
0F06
1E00
3C00
3800
7800
7000
7000
E000
E000
E000
E000
E00C
701E
787C
3FF8
1FF0
0FC0
ENDCHAR
STARTCHAR 010D
ENCODING 269
SWIDTH 612 0
DWIDTH 17 0
BBX 12 22 1 0
BITMAP
1800
1C30
0C70
0EE0
07C0
0300
0000
0000
07C0
0FE0
1FF0
3830
7000
7000
6000
E000
E000
6030
7870
7FF0
3FE0
0F80
ENDCHAR
STARTCHAR 010E
ENCODING 270
SWIDTH 720 0
DWIDTH 20 0
BBX 17 28 2 0
BITMAP
180000
1C3000
1C7000
0FE000
078000
070000
000000
700000
7C0000
7F8000
67E000
61F000
607800
601C00
600E00
600700
700700
700380
600380
600380
600380
600780
600700
600F00
F03E00
FFFC00
7FF800
1FE000
ENDCHAR
STARTCHAR 010F
ENCODING 271
SWIDTH 828 0
DWIDTH 23 0
BBX 20 22 1 0
BITMAP
000CE0
001CF0
001C70
001C60
001CE0
001CC0
001C00
001C00
07DC00
1FFC00
3FF800
783800
701800
601800
E01800
E01800
E01800
701800
787800
3FFC00
1FFC00
0FCC00
ENDCHAR
STARTCHAR 0110
ENCODING 272
SWIDTH 720 0
DWIDTH 20 0
BBX 20 22 -1 -1
BITMAP
0E0000
0F8000
0FE000
0CF800
0C3E00
0C0F00
0C0780
0C01C0
0E00E0
0E00E0
7FE060
FFE070
7FE070
0C0070
0C0070
0C00E0
0C00E0
0C01E0
1E07C0
0FFF80
0FFF00
01FC00
ENDCHAR
STARTCHAR 0111
ENCODING 273
SWIDTH 612 0
DWIDTH 17 0
BBX 16 22 1 0
BITMAP
000C
001C
001C
01FE
03FF
03FE
001C
001C
07DC
1FFC
3FFC
7838
7018
6018
E018
E018
E018
7018
7838
3FFC
1FFC
0FCC
ENDCHAR
STARTCHAR 0112
ENCODING 274
SWIDTH 612 0
DWIDTH 17 0
BBX 15 25 2 0
BITMAP
0FF8
0FF8
0000
0000
FFF8
FFFE
FFFC
E000
E000
E000
E000
E000
E1F8
FFFC
FFF8
FE00
E000
E000
E000
E000
E000
E000
FFF8
7FF8
3FF8
ENDCHAR
STARTCHAR 0113
ENCODING 275
SWIDTH 540 0
DWIDTH 15 0
BBX 14 18 1 0
BITMAP
1FF0
1FF0
0000
0000
0FC0
1FF0
3FF0
7830
7070
E1E0
EF80
FE00
F000
E00C
783C
7FF8
3FF0
0FC0
ENDCHAR
STARTCHAR 0114
ENCODING 276
SWIDTH 612 0
DWIDTH 17 0
BBX 15 29 2 0
BITMAP
1800
180C
180C
1C1C
0FF8
03E0
0000
0000
FFF8
FFFE
FFFC
E000
E000
E000
E000
E000
E1F8
FFFC
FFF8
FE00
E000
E000
E000
E000
E000
E000
FFF8
7FF8
3FF8
ENDCHAR
STARTCHAR 0115
ENCODING 277
SWIDTH 540 0
DWIDTH 15 0
BBX 14 22 1 0
BITMAP
6000
6018
7038
3870
1FE0
0FC0
0000
0000
0FC0
1FF0
3FF0
7830
7070
E1E0
EF80
FE00
F000
E00C
783C
7FF8
3FF0
0FC0
ENDCHAR
STARTCHAR 0116
ENCODING 278
SWIDTH 612 0
DWIDTH 17 0
BBX 15 26 2 0
BITMAP
01C0
01C0
00C0
0000
0000
FFF8
FFFE
FFFC
E000
E000
E000
E000
E000
E1F8
FFFC
FFF8
FE00
E000
E000
E000
E000
E000
E000
FFF8
7FF8
3FF8
ENDCHAR
STARTCHAR 0117
ENCODING 279
SWIDTH 540 0
DWIDTH 15 0
BBX 14 19 1 0
BITMAP
0600
0700
0300
0000
0000
0FC0
1FF0
3FF0
7830
7070
E1E0
EF80
FE00
F000
E00C
783C
7FF8
3FF0
0FC0
ENDCHAR
STARTCHAR 0118
ENCODING 280
SWIDTH 612 0
DWIDTH 17 0
BBX 14 25 3 -4
BITMAP
FFFC
FFFC
FFFC
E000
E000
E000
E000
E000
E1F8
FFF8
FFF8
FE00
E000
E000
C000
C000
E000
E000
FFF8
7FF8
3FF8
0180
018C
00FC
0078
ENDCHAR
STARTCHAR 0119
ENCODING 281
SWIDTH 540 0
DWIDTH 15 0
BBX 14 20 1 -6
BITMAP
0FC0
1FF0
3FF0
7870
7070
60F0
E7E0
FF00
FC00
F000
E008
783C
7FF8
3FF8
0FE0
0380
0300
0388
01F8
00F0
ENDCHAR
STARTCHAR 011A
ENCODING 282
SWIDTH 612 0
DWIDTH 17 0
BBX 15 29 2 0
BITMAP
0C00
0E18
0E38
0770
03C0
0380
0000
0000
FFF8
FFFE
FFFC
E000
E000
E000
E000
E000
E1F8
FFFC
FFF8
FE00
E000
E000
E000
E000
E000
E000
FFF8
7FF8
3FF8
ENDCHAR
STARTCHAR 011B
ENCODING 283
SWIDTH 540 0
DWIDTH 15 0
BBX 14 22 1 0
BITMAP
1800
1C30
0C70
0EE0
07C0
0300
0000
0000
0FC0
1FF0
3FF0
7830
7070
E1E0
EF80
FE00
F000
E00C
783C
7FF8
3FF0
0FC0
ENDCHAR
STARTCHAR 011C
ENCODING 284
SWIDTH 684 0
DWIDTH 19 0
BBX 18 29 1 0
BITMAP
006000
00F800
01F800
01DC00
038E00
070700
060300
000000
00F000
03FC00
07FE00
0F0F00
1E0600
1C0000
380000
380000
700000
70FF80
E7FFC0
E7FF80
E38380
E00700
E00700
E00E00
E01E00
707C00
7FF800
3FF000
0FC000
ENDCHAR
STARTCHAR 011D
ENCODING 285
SWIDTH 540 0
DWIDTH 15 0
BBX 13 31 1 -8
BITMAP
0380
03C0
07E0
0EF0
1C70
3838
3018
0000
0000
07C0
1FF0
3FF8
7838
F038
E038
E030
C070
E070
E0F0
F1F0
7FF0
3F70
1E70
0070
0070
0060
00E0
01E0
FFC0
FFC0
7F00
ENDCHAR
STARTCHAR 011E
ENCODING 286
SWIDTH 684 0
DWIDTH 19 0
BBX 18 28 1 0
BITMAP
040000
060300
060300
070F00
03FE00
01F800
000000
00F000
03FC00
07FE00
0F0F00
1E0600
1C0000
380000
380000
700000
70FF80
E7FFC0
E7FF80
E38380
E00700
E00700
E00E00
E01E00
707C00
7FF800
3FF000
0FC000
ENDCHAR
STARTCHAR 011F
ENCODING 287
SWIDTH 540 0
DWIDTH 15 0
BBX 13 30 1 -8
BITMAP
3000
3008
3018
1838
1FF0
07C0
0000
0000
07C0
1FF0
3FF8
7838
F038
E038
E030
C070
E070
E0F0
F1F0
7FF0
3F70
1E70
0070
0070
0060
00E0
01E0
FFC0
FFC0
7F00
ENDCHAR
STARTCHAR 0120
ENCODING 288
SWIDTH 684 0
DWIDTH 19 0
BBX 18 25 1 0
BITMAP
006000
007000
003000
000000
00F000
03FC00
07FE00
0F0F00
1E0600
1C0000
380000
380000
700000
70FF80
E7FFC0
E7FF80
E38380
E00700
E00700
E00E00
E01E00
707C00
7FF800
3FF000
0FC000
ENDCHAR
STARTCHAR 0121
ENCODING 289
SWIDTH 540 0
DWIDTH 15 0
BBX 13 27 1 -8
BITMAP
0180
01C0
00C0
0000
0000
07C0
1FF0
3FF8
7838
F038
E038
E030
C070
E070
E0F0
F1F0
7FF0
3F70
1E70
0070
0070
0060
00E0
01E0
FFC0
FFC0
7F00
ENDCHAR
STARTCHAR 0122
ENCODING 290
SWIDTH 684 0
DWIDTH 19 0
BBX 18 26 1 -5
BITMAP
00F000
03FC00
07FE00
0F0F00
1E0600
1C0000
380000
380000
700000
703F80
61FFC0
E7FF80
E7E380
E30700
E00700
E00F00
E01E00
707C00
7FF800
3FF000
1FC000
030000
038000
338000
3F0000
1E0000
ENDCHAR
STARTCHAR 0123
ENCODING 291
SWIDTH 540 0
DWIDTH 15 0
BBX 13 31 1 -8
BITMAP
0180
0380
0700
0700
0780
0300
0000
0000
0000
07C0
1FF0
3FF8
7838
F038
E038
E030
C070
E070
E0F0
F1F0
7FF0
3F70
1E70
0070
0070
0060
00E0
01E0
FFC0
FFC0
7F00
ENDCHAR
STARTCHAR 0124
ENCODING 292
SWIDTH 792 0
DWIDTH 22 0
BBX 18 29 2 0
BITMAP
00C000
01F000
03F000
03B800
071C00
0E0E00
0C0600
000000
6000C0
6001C0
6001C0
6001C0
6001C0
E001C0
E001C0
E001C0
E001C0
E03FC0
6FFF80
7FFF80
7FC180
F00180
E00180
E00180
E00180
E00180
E001C0
E001C0
C00180
ENDCHAR
STARTCHAR 0125
ENCODING 293
SWIDTH 576 0
DWIDTH 16 0
BBX 13 29 2 0
BITMAP
0180
03C0
07E0
0FF0
1E78
3C38
1818
E000
E000
E000
E000
E000
E000
E000
E000
E3C0
EFE0
FFF0
FC70
F870
F070
F070
E070
E070
E070
E030
E030
E038
C030
ENDCHAR
STARTCHAR 0126
ENCODING 294
SWIDTH 792 0
DWIDTH 22 0
BBX 22 21 0 0
BITMAP
180030
180070
180070
180070
FFFFFC
FFFFFC
FFFFF8
380070
380070
380FF0
38FFF0
1FFFE0
1FF060
3F0060
380060
380060
380060
380060
380070
380070
300060
ENDCHAR
STARTCHAR 0127
ENCODING 295
SWIDTH 576 0
DWIDTH 16 0
BBX 15 22 0 0
BITMAP
3800
3800
3800
FFC0
FFC0
FFC0
3800
3800
38F0
3BF8
3FFC
3F1C
3E1C
3C1C
3C1C
381C
381C
381C
380C
380C
380E
300C
ENDCHAR
STARTCHAR 0128
ENCODING 296
SWIDTH 540 0
DWIDTH 15 0
BBX 13 27 1 0
BITMAP
3C18
7E18
E730
C3F0
01E0
0000
FFF0
FFF8
FFF8
0700
0700
0700
0600
0600
0600
0600
0600
0600
0600
0600
0600
0600
0600
0600
7FF8
FFF8
7FF8
ENDCHAR
STARTCHAR 0129
ENCODING 297
SWIDTH 288 0
DWIDTH 8 0
BBX 12 21 -2 0
BITMAP
7830
FC30
CE70
87E0
03C0
0000
0000
0600
0600
0600
0600
0600
0E00
0E00
0E00
0E00
0E00
0E00
0600
0600
0600
ENDCHAR
STARTCHAR 012A
ENCODING 298
SWIDTH 540 0
DWIDTH 15 0
BBX 13 24 1 0
BITMAP
3FE0
3FE0
0000
FFF0
FFF8
FFF8
0700
0700
0700
0600
0600
0600
0600
0600
0600
0600
0600
0600
0600
0600
0600
7FF8
FFF8
7FF8
ENDCHAR
STARTCHAR 012B
ENCODING 299
SWIDTH 288 0
DWIDTH 8 0
BBX 9 18 -1 0
BITMAP
FF80
FF80
0000
0000
0C00
0C00
0C00
0C00
0C00
1C00
1C00
1C00
1C00
1C00
1C00
0C00
0C00
0C00
ENDCHAR
STARTCHAR 012C
ENCODING 300
SWIDTH 540 0
DWIDTH 15 0
BBX 13 28 1 0
BITMAP
6000
6030
6030
7070
3FE0
0F80
0000
FFF0
FFF8
FFF8
0700
0700
0700
0600
0600
0600
0600
0600
0600
0600
0600
0600
0600
0600
0600
7FF8
FFF8
7FF8
ENDCHAR
STARTCHAR 012D
ENCODING 301
SWIDTH 288 0
DWIDTH 8 0
BBX 12 22 -2 0
BITMAP
C000
C030
E070
70E0
3FE0
1F80
0000
0000
0600
0600
0600
0600
0600
0E00
0E00
0E00
0E00
0E00
0E00
0600
0600
0600
ENDCHAR
STARTCHAR 012E
ENCODING 302
SWIDTH 540 0
DWIDTH 15 0
BBX 13 26 1 -5
BITMAP
FFF0
FFF8
FFF8
0700
0700
0700
0600
0600
0600
0600
0600
0600
0600
0600
0600
0600
0600
0600
7FF8
FFF8
7FF8
0C00
0C00
0C60
07E0
07C0
ENDCHAR
STARTCHAR 012F
ENCODING 303
SWIDTH 288 0
DWIDTH 8 0
BBX 7 25 1 -5
BITMAP
38
38
38
00
00
00
30
30
30
30
30
70
70
70
70
70
70
70
F0
F0
C0
C0
C6
FE
7C
ENDCHAR
STARTCHAR 0130
ENCODING 304
SWIDTH 540 0
DWIDTH 15 0
BBX 13 25 1 0
BITMAP
0600
0700
0300
0000
FFF0
FFF8
FFF8
0700
0700
0700
0600
0600
0600
0600
0600
0600
0600
0600
0600
0600
0600
0600
7FF8
FFF8
7FF8
ENDCHAR
STARTCHAR 0131
ENCODING 305
SWIDTH 288 0
DWIDTH 8 0
BBX 3 14 2 0
BITMAP
60
60
60
60
60
E0
E0
E0
E0
E0
E0
60
60
60
ENDCHAR
STARTCHAR 0132
ENCODING 306
SWIDTH 1152 0
DWIDTH 32 0
BBX 30 23 1 -2
BITMAP
FFF07FF8
FFF87FFC
FFF87FF8
07000380
07000380
07000380
06000380
06000380
06000380
06000380
06000380
06000380
06000380
06000380
06000380
06070300
06070300
06070300
7FFB8700
FFFBE700
7FF9FE00
0000FE00
00003C00
ENDCHAR
STARTCHAR 0133
ENCODING 307
SWIDTH 540 0
DWIDTH 15 0
BBX 11 28 2 -8
BITMAP
7180
73C0
7180
0000
0000
0000
6180
61C0
61C0
61C0
61C0
E1C0
E1C0
E1C0
E1C0
E1C0
E1C0
60C0
60C0
60C0
00C0
30C0
70E0
38E0
39C0
1FC0
1F80
0700
ENDCHAR
STARTCHAR 0134
ENCODING 308
SWIDTH 684 0
DWIDTH 19 0
BBX 17 31 1 -2
BITMAP
00C000
01F000
01F800
03B800
071C00
0E0E00
0C0600
000000
0FFF00
0FFF80
0FFF00
007000
007000
007000
007000
007000
007000
007000
007000
007000
007000
007000
007000
607000
E06000
E06000
70E000
7CE000
3FE000
1FC000
078000
ENDCHAR
STARTCHAR 0135
ENCODING 309
SWIDTH 396 0
DWIDTH 11 0
BBX 11 31 -1 -8
BITMAP
0600
0F00
1F80
3FC0
79E0
F0E0
6060
0000
0000
0180
0380
0380
0380
0380
0180
0180
01C0
01C0
01C0
01C0
01C0
01C0
01C0
01C0
61C0
71C0
71C0
39C0
3F80
1F80
0F00
ENDCHAR
STARTCHAR 0136
ENCODING 310
SWIDTH 612 0
DWIDTH 17 0
BBX 14 27 3 -6
BITMAP
6018
E038
E078
E0F0
E1E0
E3C0
E780
EF00
FE00
FC00
F800
F800
FC00
FE00
EF00
E780
E3C0
E1F0
E0FC
EE7C
EF9C
0380
01C0
00C0
18C0
1F80
0F80
ENDCHAR
STARTCHAR 0137
ENCODING 311
SWIDTH 540 0
DWIDTH 15 0
BBX 13 27 2 -6
BITMAP
6000
6000
6000
6000
6000
6000
6070
60F0
60F0
61E0
63C0
6780
6F00
7F00
7F80
F3C0
E1C0
E0E0
E0F0
EE70
EF38
63B0
01C0
00C0
19C0
1F80
0F00
ENDCHAR
STARTCHAR 0138
ENCODING 312
SWIDTH 540 0
DWIDTH 15 0
BBX 12 16 2 0
BITMAP
C000
E000
E060
E0F0
E1E0
E3C0
E780
FF00
FF00
FF00
F380
E1C0
E1E0
C0F0
C070
C030
ENDCHAR
STARTCHAR 0139
ENCODING 313
SWIDTH 540 0
DWIDTH 15 0
BBX 14 28 1 0
BITMAP
00C0
01E0
03C0
0780
0700
0600
0000
6000
7000
7000
7000
7000
7000
7000
7000
7000
7000
7000
7000
6000
6000
6000
6000
6000
E07C
FFFC
FFFC
7FC0
ENDCHAR
STARTCHAR 013A
ENCODING 314
SWIDTH 288 0
DWIDTH 8 0
BBX 7 29 2 0
BITMAP
0E
0E
1C
38
70
60
00
60
70
70
60
60
60
60
60
60
60
60
60
60
60
60
60
E0
E0
E0
E0
E0
60
ENDCHAR
STARTCHAR 013B
ENCODING 315
SWIDTH 540 0
DWIDTH 15 0
BBX 14 26 1 -5
BITMAP
6000
7000
7000
7000
7000
7000
7000
7000
7000
7000
7000
7000
6000
6000
6000
6000
E01C
E1FC
FFFC
FFF0
7F80
01C0
00C0
19C0
1F80
0F80
ENDCHAR
STARTCHAR 013C
ENCODING 316
SWIDTH 288 0
DWIDTH 8 0
BBX 7 26 2 -5
BITMAP
60
70
70
60
60
60
60
60
60
60
60
60
60
60
60
E0
E0
E0
E0
F8
7C
0E
06
C6
7E
3C
ENDCHAR
STARTCHAR 013D
ENCODING 317
SWIDTH 540 0
DWIDTH 15 0
BBX 14 21 1 0
BITMAP
60E0
70E0
70E0
7060
70E0
70C0
7000
7000
7000
7000
7000
7000
6000
6000
6000
6000
6000
E07C
FFFC
FFFC
7FC0
ENDCHAR
STARTCHAR 013E
ENCODING 318
SWIDTH 468 0
DWIDTH 13 0
BBX 9 22 2 0
BITMAP
6300
7780
7380
6380
6700
6600
6000
6000
6000
6000
6000
6000
6000
6000
6000
6000
E000
E000
E000
E000
E000
6000
ENDCHAR
STARTCHAR 013F
ENCODING 319
SWIDTH 540 0
DWIDTH 15 0
BBX 14 21 1 0
BITMAP
6000
7000
7000
7000
7000
7000
7000
7000
7000
7000
7060
70F0
6060
6000
6000
6000
6000
E07C
FFFC
FFFC
7FC0
ENDCHAR
STARTCHAR 0140
ENCODING 320
SWIDTH 396 0
DWIDTH 11 0
BBX 9 22 2 0
BITMAP
6000
7000
7000
6000
6000
6000
6000
6000
6000
6000
6000
6380
6380
6380
6000
6000
E000
E000
E000
E000
E000
6000
ENDCHAR
STARTCHAR 0141
ENCODING 321
SWIDTH 540 0
DWIDTH 15 0
BBX 17 21 -2 0
BITMAP
0C0000
0E0000
0E0000
0E0000
0E0000
0E0000
0EC000
0FC000
0F8000
0E0000
3E0000
7E0000
FC0000
6C0000
0C0000
0C0000
1C0000
1C0F80
1FFF80
1FFF80
0FF800
ENDCHAR
STARTCHAR 0142
ENCODING 322
SWIDTH 216 0
DWIDTH 6 0
BBX 9 22 -1 0
BITMAP
1800
1C00
1C00
1C00
1C00
1C00
1C00
1C00
1F00
1F80
1F00
1E00
3C00
FC00
FC00
DC00
1C00
1C00
1800
1800
1800
1800
ENDCHAR
STARTCHAR 0143
ENCODING 323
SWIDTH 792 0
DWIDTH 22 0
BBX 19 28 2 0
BITMAP
003800
007800
00F000
00E000
01C000
018000
000000
C000C0
E001C0
F001E0
F800E0
F800E0
FC00E0
EE00E0
EF00E0
E700E0
E380E0
E1C0E0
E0E0E0
E0F0E0
E078E0
E03CE0
E01EE0
E00FE0
E007E0
E003E0
E001E0
C000C0
ENDCHAR
STARTCHAR 0144
ENCODING 324
SWIDTH 540 0
DWIDTH 15 0
BBX 12 22 2 0
BITMAP
0180
0380
0700
0F00
0E00
1C00
0000
0000
C380
EFC0
FFE0
FCE0
F860
F060
E060
E0E0
E0E0
C060
C070
C070
E070
C060
ENDCHAR
STARTCHAR 0145
ENCODING 325
SWIDTH 792 0
DWIDTH 22 0
BBX 19 27 2 -6
BITMAP
C000C0
E001C0
F001E0
F800E0
F800E0
FC00E0
EE00E0
EF00E0
E700E0
E380E0
E1C0E0
E0E0E0
E0F0E0
E078E0
E03CE0
E01EE0
E00FE0
E007E0
E003E0
E181E0
C1E0C0
00F000
003000
003000
063000
03F000
01E000
ENDCHAR
STARTCHAR 0146
ENCODING 326
SWIDTH 540 0
DWIDTH 15 0
BBX 12 20 2 -6
BITMAP
C380
EFC0
FFE0
FCE0
F860
F060
E060
E0E0
E0E0
C060
C070
C070
EC70
DF60
0780
0180
0180
3180
3F80
0F00
ENDCHAR
STARTCHAR 0147
ENCODING 327
SWIDTH 792 0
DWIDTH 22 0
BBX 19 28 2 0
BITMAP
060000
070C00
039C00
03B800
01F000
00C000
008000
C000C0
E001C0
F001E0
F800E0
F800E0
FC00E0
EE00E0
EF00E0
E700E0
E380E0
E1C0E0
E0E0E0
E0F0E0
E078E0
E03CE0
E01EE0
E00FE0
E007E0
E003E0
E001E0
C000C0
ENDCHAR
STARTCHAR 0148
ENCODING 328
SWIDTH 540 0
DWIDTH 15 0
BBX 12 22 2 0
BITMAP
3000
3860
18E0
1DC0
0F80
0600
0000
0000
C380
EFC0
FFE0
FCE0
F860
F060
E060
E0E0
E0E0
C060
C070
C070
E070
C060
ENDCHAR
STARTCHAR 0149
ENCODING 329
SWIDTH 612 0
DWIDTH 17 0
BBX 15 21 1 0
BITMAP
6000
6000
E000
E000
C000
C000
C000
0C78
0CFC
0DFE
0FCE
0F0E
0F0E
0E0E
0E0E
1C0E
1C0E
1C0E
1C06
0C06
0C06
ENDCHAR
STARTCHAR 014A
ENCODING 330
SWIDTH 792 0
DWIDTH 22 0
BBX 19 27 2 -6
BITMAP
C000C0
E001C0
F001E0
F000E0
F800E0
FC00E0
FE00E0
EE00E0
E700E0
E780E0
E3C0E0
E1C0E0
E0E0E0
E070E0
E038E0
E01CE0
E01EE0
E00FE0
E007E0
E003E0
C001E0
0000E0
0000E0
0001C0
001FC0
001F80
001F00
ENDCHAR
STARTCHAR 014B
ENCODING 331
SWIDTH 540 0
DWIDTH 15 0
BBX 12 22 2 -8
BITMAP
C380
EFC0
FFE0
FCE0
F8E0
F060
E060
E0E0
E0E0
C060
C060
C060
E070
C070
0070
0070
0870
1C70
0E70
0FE0
07E0
03C0
ENDCHAR
STARTCHAR 014C
ENCODING 332
SWIDTH 792 0
DWIDTH 22 0
BBX 19 24 2 0
BITMAP
01FF00
01FF00
000000
01FC00
07FF00
0FFF80
1F03C0
3C01E0
7800E0
7000E0
7000E0
E000E0
E000E0
E000E0
C000E0
C000E0
C001C0
E001C0
E00380
700780
7C1F00
3FFE00
1FFC00
03F000
ENDCHAR
STARTCHAR 014D
ENCODING 333
SWIDTH 540 0
DWIDTH 15 0
BBX 12 18 1 0
BITMAP
3FF0
3FF0
0000
0000
0F80
1FE0
3FE0
78F0
7070
E030
E030
E030
E030
E070
70E0
7FE0
3FC0
0F80
ENDCHAR
STARTCHAR 014E
ENCODING 334
SWIDTH 792 0
DWIDTH 22 0
BBX 19 28 2 0
BITMAP
030000
0300C0
0381C0
01C380
00FF00
007C00
000000
01FC00
07FF00
0FFF80
1F03C0
3C01E0
7800E0
7000E0
7000E0
E000E0
E000E0
E000E0
C000E0
C000E0
C001C0
E001C0
E00380
700780
7C1F00
3FFE00
1FFC00
03F000
ENDCHAR
STARTCHAR 014F
ENCODING 335
SWIDTH 540 0
DWIDTH 15 0
BBX 13 22 1 0
BITMAP
3000
3018
3018
3838
1FF0
0FC0
0000
0000
0F80
1FE0
3FE0
78F0
7070
E030
E030
E030
E030
E070
70E0
7FE0
3FC0
0F80
ENDCHAR
STARTCHAR 0150
ENCODING 336
SWIDTH 792 0
DWIDTH 22 0
BBX 19 28 2 0
BITMAP
001180
003380
007700
00EE00
01CE00
018C00
000000
01FC00
07FF00
0FFF80
1F03C0
3C01E0
7800E0
7000E0
7000E0
E000E0
E000E0
E000E0
C000E0
C000E0
C001C0
E001C0
E00380
700780
7C1F00
3FFE00
1FFC00
03F000
ENDCHAR
STARTCHAR 0151
ENCODING 337
SWIDTH 540 0
DWIDTH 15 0
BBX 13 22 1 0
BITMAP
0310
0738
0E70
1CE0
19C0
1180
0000
0000
0F80
1FE0
3FE0
78F0
7070
E030
E030
E030
E030
E070
70E0
7FE0
3FC0
0F80
ENDCHAR
STARTCHAR 0152
ENCODING 338
SWIDTH 1188 0
DWIDTH 33 0
BBX 31 21 2 0
BITMAP
01FC7FFE
07FF7FFE
0FFFFFFE
1F03F000
3C01F000
3800F000
7000F000
7000703C
E00073FC
E0007FFC
E000FFC0
E000FC00
E000E000
E001E000
E001E000
F003E000
7007E000
7C0F7000
3FFE7FFC
0FFC7FFC
03F01FF8
ENDCHAR
STARTCHAR 0153
ENCODING 339
SWIDTH 900 0
DWIDTH 25 0
BBX 24 15 1 -1
BITMAP
0F83F0
1FC7F8
3FEFFC
78FE1C
70783C
E038F8
E037F0
E03FC0
E03F00
E07C00
E07806
70FC0F
7FFFFE
3FCFFC
0F03F0
ENDCHAR
STARTCHAR 0154
ENCODING 340
SWIDTH 648 0
DWIDTH 18 0
BBX 15 29 2 0
BITMAP
00C0
01C0
0380
0700
0E00
0C00
0000
0000
FC00
FF80
FFC0
E3F0
E0F0
E078
E038
E01C
E01C
E01C
E038
E0F0
FFE0
FF80
FF80
CFE0
C1F0
C0F8
E03C
E01E
C00C
ENDCHAR
STARTCHAR 0155
ENCODING 341
SWIDTH 468 0
DWIDTH 13 0
BBX 11 22 2 0
BITMAP
0180
0380
0700
0E00
1C00
1800
0000
0000
C3C0
CFC0
DFC0
FCE0
F0E0
E0C0
C000
C000
C000
C000
C000
C000
C000
C000
ENDCHAR
STARTCHAR 0156
ENCODING 342
SWIDTH 648 0
DWIDTH 18 0
BBX 15 27 2 -6
BITMAP
FC00
FF80
FFC0
E3F0
E0F0
E078
E038
E01C
E01C
E01C
E038
E0F0
FFE0
FF80
FF80
CFE0
C1F0
C0F8
E03C
EE1E
CF0C
0380
01C0
00C0
19C0
1F80
0F00
ENDCHAR
STARTCHAR 0157
ENCODING 343
SWIDTH 468 0
DWIDTH 13 0
BBX 12 19 1 -5
BITMAP
63E0
6FE0
7FE0
7E70
7870
7060
6000
6000
6000
6000
6000
6000
7000
7800
0C00
0E00
8E00
FC00
7800
ENDCHAR
STARTCHAR 0158
ENCODING 344
SWIDTH 648 0
DWIDTH 18 0
BBX 15 28 2 0
BITMAP
3000
3060
38E0
1F80
0F00
0E00
0000
FC00
FF80
FFC0
E3F0
E0F0
E078
E038
E01C
E01C
E01C
E038
E0F0
FFE0
FF80
FF80
CFE0
C1F0
C0F8
E03C
E01E
C00C
ENDCHAR
STARTCHAR 0159
ENCODING 345
SWIDTH 468 0
DWIDTH 13 0
BBX 11 22 2 0
BITMAP
6000
60C0
7380
3F00
1E00
1C00
0000
0000
C3C0
CFC0
DFC0
FCE0
F0E0
E0C0
C000
C000
C000
C000
C000
C000
C000
C000
ENDCHAR
STARTCHAR 015A
ENCODING 346
SWIDTH 684 0
DWIDTH 19 0
BBX 16 29 2 -1
BITMAP
0030
0070
00E0
01E0
01C0
0380
0000
01F8
07FE
0FFE
1E0E
3800
3800
3800
3C00
3FF0
1FFC
07FE
003E
000F
0007
0007
0007
C007
E00E
F03E
7FFC
3FF0
0FC0
ENDCHAR
STARTCHAR 015B
ENCODING 347
SWIDTH 504 0
DWIDTH 14 0
BBX 11 22 1 0
BITMAP
00E0
01E0
03C0
0380
0700
0600
0000
00E0
0FE0
3FE0
7E60
7060
6000
7E00
3F80
03C0
00E0
00E0
C0E0
FFE0
FFC0
3F00
ENDCHAR
STARTCHAR 015C
ENCODING 348
SWIDTH 684 0
DWIDTH 19 0
BBX 16 30 2 -1
BITMAP
01C0
01E0
03F0
0778
0E3C
1C1C
180C
0000
01F8
07FE
0FFE
1E0E
3800
3800
3800
3C00
3FF0
1FFC
07FE
003E
000F
0007
0007
0007
C007
E00E
F03E
7FFC
3FF0
0FC0
ENDCHAR
STARTCHAR 015D
ENCODING 349
SWIDTH 504 0
DWIDTH 14 0
BBX 11 23 1 0
BITMAP
0E00
1F00
1F80
3B80
71C0
E0E0
C060
0000
00E0
0FE0
3FE0
7E60
7060
6000
7E00
3F80
03C0
00E0
00E0
C0E0
FFE0
FFC0
3F00
ENDCHAR
STARTCHAR 015E
ENCODING 350
SWIDTH 684 0
DWIDTH 19 0
BBX 16 27 2 -6
BITMAP
01F8
07FE
0FFE
1E0E
3C00
3800
3800
3800
3F00
1FF8
07FC
003E
000F
0007
0007
0007
C007
E00F
F03E
7FFC
3FF8
1FE0
0180
00C0
19C0
1FC0
0F80
ENDCHAR
STARTCHAR 015F
ENCODING 351
SWIDTH 504 0
DWIDTH 14 0
BBX 11 21 1 -5
BITMAP
00E0
0FE0
3FE0
7E60
7060
6000
7C00
7F00
1FC0
01E0
00E0
00E0
C0E0
FFE0
FFC0
3F80
0600
0700
6700
7E00
3C00
ENDCHAR
STARTCHAR 0160
ENCODING 352
SWIDTH 684 0
DWIDTH 19 0
BBX 16 29 2 -1
BITMAP
0300
0306
038E
01F8
00F0
00E0
0000
01F8
07FE
0FFE
1E0E
3800
3800
3800
3C00
3FF0
1FFC
07FE
003E
000F
0007
0007
0007
C007
E00E
F03E
7FFC
3FF8
0FC0
ENDCHAR
STARTCHAR 0161
ENCODING 353
SWIDTH 504 0
DWIDTH 14 0
BBX 11 22 1 0
BITMAP
3000
3060
38E0
1F80
0F00
0E00
0000
00E0
0FE0
3FE0
7E60
7060
6000
7E00
3F80
03C0
00E0
00E0
C0E0
FFE0
FFC0
3F00
ENDCHAR
STARTCHAR 0162
ENCODING 354
SWIDTH 684 0
DWIDTH 19 0
BBX 18 26 2 -5
BITMAP
FFFF80
FFFFC0
7FFFC0
018000
018000
01C000
01C000
01C000
01C000
01C000
01C000
01C000
01C000
01C000
01C000
01C000
01C000
01C000
01C000
03E000
00F000
007000
003000
063000
07F000
01E000
ENDCHAR
STARTCHAR 0163
ENCODING 355
SWIDTH 468 0
DWIDTH 13 0
BBX 11 25 1 -6
BITMAP
0C00
0E00
0E00
0E00
0E00
FFE0
FFE0
7FE0
0E00
0E00
0E00
0E00
0E00
0E00
0E00
0E00
0E00
0E00
0F80
03C0
01C0
00C0
18C0
1FC0
0780
ENDCHAR
STARTCHAR 0164
ENCODING 356
SWIDTH 684 0
DWIDTH 19 0
BBX 18 29 2 0
BITMAP
0C0000
0E1800
073800
077000
03E000
018000
010000
000000
FFFF80
FFFFC0
7FFFC0
018000
018000
01C000
01C000
01C000
01C000
01C000
01C000
01C000
01C000
01C000
01C000
01C000
01C000
01C000
01C000
01C000
00C000
ENDCHAR
STARTCHAR 0165
ENCODING 357
SWIDTH 648 0
DWIDTH 18 0
BBX 16 19 1 0
BITMAP
0C07
0E0F
0E07
0E07
0E06
FFEE
FFE0
7FE0
0E00
0E00
0E00
0E00
0E00
0E00
0E00
0E00
0E00
0E00
0600
ENDCHAR
STARTCHAR 0166
ENCODING 358
SWIDTH 684 0
DWIDTH 19 0
BBX 18 21 1 0
BITMAP
FFFF80
FFFFC0
FFFFC0
018000
018000
018000
01C000
01C000
01C000
1FF800
1FF800
1FF800
01C000
01C000
01C000
01C000
01C000
01C000
01C000
01C000
00C000
ENDCHAR
STARTCHAR 0167
ENCODING 359
SWIDTH 468 0
DWIDTH 13 0
BBX 11 19 1 0
BITMAP
0C00
0E00
0E00
0E00
0E00
FFE0
FFE0
FFE0
0E00
0E00
3FC0
7FC0
3FC0
0E00
0E00
0E00
0E00
0E00
0600
ENDCHAR
STARTCHAR 0168
ENCODING 360
SWIDTH 756 0
DWIDTH 21 0
BBX 17 27 2 0
BITMAP
070600
1F8600
18C600
18FC00
007800
000000
600180
E00380
E00380
E00380
E00380
E00380
E00380
E00380
E00380
E00380
E00380
E00380
E00700
E00700
700700
700F00
780E00
3C1E00
3FFC00
1FF800
07E000
ENDCHAR
STARTCHAR 0169
ENCODING 361
SWIDTH 540 0
DWIDTH 15 0
BBX 13 21 1 0
BITMAP
3C18
7E18
E730
C3F0
01E0
0000
0000
6030
7030
6070
6070
E070
E070
6070
6070
6070
7070
7070
7FF0
3FF0
1FB0
ENDCHAR
STARTCHAR 016A
ENCODING 362
SWIDTH 756 0
DWIDTH 21 0
BBX 17 24 2 0
BITMAP
07FC00
07FC00
000000
600180
E00380
E00380
E00380
E00380
E00380
E00380
E00380
E00380
E00380
E00380
E00380
E00700
E00700
700700
700F00
780E00
3C1E00
3FFC00
1FF800
07E000
ENDCHAR
STARTCHAR 016B
ENCODING 363
SWIDTH 540 0
DWIDTH 15 0
BBX 12 18 1 0
BITMAP
3FF0
3FF0
0000
0000
6030
7030
6070
6070
E070
E070
6070
6070
6070
7070
7070
7FF0
3FF0
1FB0
ENDCHAR
STARTCHAR 016C
ENCODING 364
SWIDTH 756 0
DWIDTH 21 0
BBX 17 28 2 0
BITMAP
080000
0C0600
0C0600
0E1E00
07FC00
03F000
000000
600180
E00380
E00380
E00380
E00380
E00380
E00380
E00380
E00380
E00380
E00380
E00380
E00700
E00700
700700
700F00
780E00
3C1E00
3FFC00
1FF800
07E000
ENDCHAR
STARTCHAR 016D
ENCODING 365
SWIDTH 540 0
DWIDTH 15 0
BBX 12 22 1 0
BITMAP
6000
6030
6030
7070
3FE0
0F80
0000
0000
6030
7030
6070
6070
E070
E070
6070
6070
6070
7070
7070
7FF0
3FF0
1FB0
ENDCHAR
STARTCHAR 016E
ENCODING 366
SWIDTH 756 0
DWIDTH 21 0
BBX 17 30 2 0
BITMAP
03E000
07F000
0E3800
0C1800
0C1800
0E3800
0FF000
03E000
000000
600180
E00380
E00380
E00380
E00380
E00380
E00380
E00380
E00380
E00380
E00380
E00380
E00700
E00700
700700
700F00
780E00
3C1E00
3FFC00
1FF800
07E000
ENDCHAR
STARTCHAR 016F
ENCODING 367
SWIDTH 540 0
DWIDTH 15 0
BBX 12 24 1 0
BITMAP
0F00
3FC0
30C0
60C0
60C0
70C0
3FC0
1F00
0000
0000
6030
7030
6070
6070
E070
E070
6070
6070
6070
7070
7070
7FF0
3FF0
1FB0
ENDCHAR
STARTCHAR 0170
ENCODING 368
SWIDTH 756 0
DWIDTH 21 0
BBX 17 28 2 0
BITMAP
004600
00EE00
01DC00
03BC00
073800
063000
000000
600180
E00380
E00380
E00380
E00380
E00380
E00380
E00380
E00380
E00380
E00380
E00380
E00700
E00700
700700
700F00
780E00
3C1E00
3FFC00
1FF800
07E000
ENDCHAR
STARTCHAR 0171
ENCODING 369
SWIDTH 540 0
DWIDTH 15 0
BBX 13 22 1 0
BITMAP
0118
0338
0770
0EE0
1CC0
1880
0000
0000
6030
7030
6070
6070
E070
E070
6070
6070
6070
7070
7070
7FF0
3FF0
1FB0
ENDCHAR
STARTCHAR 0172
ENCODING 370
SWIDTH 756 0
DWIDTH 21 0
BBX 17 27 2 -6
BITMAP
600180
E00380
E00380
E00380
E00380
E00380
E00380
E00380
E00380
E00380
E00380
E00380
E00700
E00700
700700
700F00
780E00
3C1E00
3FFC00
1FF800
07E000
038000
030000
030000
039800
01F800
00F000
ENDCHAR
STARTCHAR 0173
ENCODING 371
SWIDTH 540 0
DWIDTH 15 0
BBX 14 20 1 -6
BITMAP
6030
7030
6070
6070
E070
E070
6070
6070
6070
7070
7070
7FF0
3FF0
1FF0
01C0
0180
0180
01CC
00FC
0078
ENDCHAR
STARTCHAR 0174
ENCODING 372
SWIDTH 1044 0
DWIDTH 29 0
BBX 27 30 2 -1
BITMAP
000C0000
001E0000
003F0000
007B8000
00F1C000
00E0E000
00C06000
00000000
E00C00C0
E00E01E0
E01E01C0
701E01C0
703E01C0
703E0380
383F0380
387F0300
38770700
38770700
1C730600
1CE30E00
1CE38C00
1CE39C00
0DC39C00
0FC19800
0F81B800
0F81F000
0781F000
0701F000
0700E000
0000E000
ENDCHAR
STARTCHAR 0175
ENCODING 373
SWIDTH 684 0
DWIDTH 19 0
BBX 17 23 1 0
BITMAP
00C000
01E000
03F000
077800
0F3C00
1E1C00
180C00
000000
000000
C0C180
E1C180
E1C380
E3E380
E3E380
636300
676700
766700
767600
7E7E00
3C3E00
3C3C00
383C00
181800
ENDCHAR
STARTCHAR 0176
ENCODING 374
SWIDTH 648 0
DWIDTH 18 0
BBX 17 30 0 -1
BITMAP
018000
03C000
07E000
0F7000
1E3800
1C1C00
180C00
000000
600300
E00380
700700
780700
380E00
1C0E00
1E1E00
0E1C00
071C00
073800
07B800
03F800
01F000
00F000
00E000
01E000
01C000
03C000
038000
038000
070000
030000
ENDCHAR
STARTCHAR 0177
ENCODING 375
SWIDTH 540 0
DWIDTH 15 0
BBX 14 31 0 -8
BITMAP
0300
0780
0FC0
1FE0
3CF0
7870
3030
0000
0000
E01C
E01C
F03C
7038
3878
3870
1C70
1CE0
0EE0
0FC0
07C0
0780
0380
0700
0700
0700
0E00
0E00
1C00
1C00
1C00
1800
ENDCHAR
STARTCHAR 0178
ENCODING 376
SWIDTH 648 0
DWIDTH 18 0
BBX 17 26 0 -1
BITMAP
061C00
0E1C00
061C00
000000
600300
E00380
700700
780700
380E00
1C0E00
1E1E00
0E1C00
071C00
073800
07B800
03F800
01F000
00F000
00E000
01E000
01C000
03C000
038000
038000
070000
030000
ENDCHAR
STARTCHAR 0179
ENCODING 377
SWIDTH 684 0
DWIDTH 19 0
BBX 18 29 1 0
BITMAP
003800
007800
007000
00E000
01C000
018000
000000
000000
7FFF80
FFFFC0
7FFF80
000F00
001E00
003C00
007800
00F000
01E000
01C000
038000
070000
0F0000
0E0000
1C0000
380000
780000
700000
FFFF80
FFFFC0
FFFFC0
ENDCHAR
STARTCHAR 017A
ENCODING 378
SWIDTH 540 0
DWIDTH 15 0
BBX 12 22 2 0
BITMAP
00C0
01C0
0380
0700
0E00
0C00
0000
0000
FFF0
FFF0
FFF0
00E0
01C0
0380
0700
0700
0E00
1C00
3800
7FF0
FFF0
FFF0
ENDCHAR
STARTCHAR 017B
ENCODING 379
SWIDTH 684 0
DWIDTH 19 0
BBX 18 25 1 0
BITMAP
00C000
00E000
00E000
000000
7FFF80
FFFFC0
7FFF80
000F00
001E00
003C00
007800
00F000
01E000
01C000
038000
070000
0F0000
0E0000
1C0000
380000
780000
700000
FFFF80
FFFFC0
FFFFC0
ENDCHAR
STARTCHAR 017C
ENCODING 380
SWIDTH 540 0
DWIDTH 15 0
BBX 12 19 2 0
BITMAP
0600
0700
0300
0000
0000
FFF0
FFF0
FFF0
00E0
01C0
0380
0700
0700
0E00
1C00
3800
7FF0
FFF0
FFF0
ENDCHAR
STARTCHAR 017D
ENCODING 381
SWIDTH 684 0
DWIDTH 19 0
BBX 18 30 1 0
BITMAP
060000
070C00
039C00
03B800
01F000
00C000
008000
000000
000000
7FFF80
FFFFC0
7FFF80
000F00
001E00
003C00
007800
00F000
01E000
01C000
038000
070000
0F0000
0E0000
1C0000
380000
780000
700000
FFFF80
FFFFC0
FFFFC0
ENDCHAR
STARTCHAR 017E
ENCODING 382
SWIDTH 540 0
DWIDTH 15 0
BBX 12 22 2 0
BITMAP
6000
6080
7380
3F00
1E00
1C00
0000
0000
FFF0
FFF0
FFF0
00E0
01C0
0380
0700
0700
0E00
1C00
3800
7FF0
FFF0
FFF0
ENDCHAR
STARTCHAR 017F
ENCODING 383
SWIDTH 504 0
DWIDTH 14 0
BBX 9 23 4 -2
BITMAP
0F00
1F80
3F80
7800
7000
7000
6000
6000
6000
6000
6000
6000
6000
6000
6000
6000
6000
6000
6000
E000
E000
E000
6000
ENDCHAR
STARTCHAR 0192
ENCODING 402
SWIDTH 432 0
DWIDTH 12 0
BBX 17 27 -1 -5
BITMAP
000F00
001F80
003F00
007800
007000
00E000
00E000
00C000
01C000
01C000
0FFC00
1FFC00
1FF800
038000
038000
030000
030000
070000
070000
070000
060000
0E0000
1E0000
3C0000
FC0000
F00000
E00000
ENDCHAR
STARTCHAR 01FA
ENCODING 506
SWIDTH 720 0
DWIDTH 20 0
BBX 16 32 2 0
BITMAP
000C
000C
001C
0018
0018
0000
007C
00FE
01C7
0183
0183
01F7
01FE
007C
00F8
00F8
01F8
03F8
039C
071C
071C
0E1C
0EFC
1FFE
3FFE
3E0E
300E
7007
7007
E007
E007
C003
ENDCHAR
STARTCHAR 01FB
ENCODING 507
SWIDTH 504 0
DWIDTH 14 0
BBX 13 29 1 0
BITMAP
00C0
01C0
01C0
0380
0100
0000
0000
0000
07C0
0FE0
1C70
1830
1830
1C70
0FE0
07C0
1FF0
3FF0
7870
7070
E070
E070
E070
E070
E070
F0F0
7FF0
7FF8
1F98
ENDCHAR
STARTCHAR 01FC
ENCODING 508
SWIDTH 1080 0
DWIDTH 30 0
BBX 29 30 1 -1
BITMAP
00000300
00000700
00000E00
00001C00
00003C00
00003800
00000000
0001FFF0
0007FFF8
000FFFF8
001FE000
001DC000
0039C000
0079C000
00F1C000
00C1C3F0
01FFFFF0
03FFFFF0
07FFFF00
06018000
0C018000
1C018000
38018000
38018000
70018000
70018000
E001C000
E001FFF0
C000FFF0
00007FF0
ENDCHAR
STARTCHAR 01FD
ENCODING 509
SWIDTH 936 0
DWIDTH 26 0
BBX 24 23 1 -1
BITMAP
000300
000700
000E00
001E00
001C00
003800
000000
000000
07C3F0
1FF7F8
3FFFFC
7C3E0C
70383C
E038F8
E037F0
E07FC0
E07F00
E03C00
F03806
787C0F
7FFFFE
3FF7FC
0F33F0
ENDCHAR
STARTCHAR 01FE
ENCODING 510
SWIDTH 792 0
DWIDTH 22 0
BBX 21 29 1 -1
BITMAP
000C00
001C00
003800
007000
00F000
00E000
000000
00FE18
03FFB8
07FFF0
0F81F0
1E01F0
1C03F0
3C07F0
380F70
781E30
703C30
707870
707070
70E070
71C070
7380E0
7700E0
7E01E0
3C03C0
3E0780
7FFF00
E7FE00
C1F800
ENDCHAR
STARTCHAR 01FF
ENCODING 511
SWIDTH 540 0
DWIDTH 15 0
BBX 13 22 1 0
BITMAP
00E0
01E0
01C0
0380
0700
0600
0000
0000
0F98
1FF8
3FF0
7870
70F0
E1B0
E330
E630
EC70
F870
70E0
7FE0
FFC0
8F80
ENDCHAR
STARTCHAR 0218
ENCODING 536
SWIDTH 684 0
DWIDTH 19 0
BBX 16 29 2 -8
BITMAP
01F8
07FE
0FFE
1E0E
3800
3800
3800
3C00
3FF0
1FFC
07FE
003E
000F
0007
0007
0007
C007
E00E
F03E
7FFC
3FF0
0FC0
0000
01C0
01C0
01C0
01C0
0180
0180
ENDCHAR
STARTCHAR 0219
ENCODING 537
SWIDTH 504 0
DWIDTH 14 0
BBX 11 23 1 -8
BITMAP
00E0
0FE0
3FE0
7E60
7060
6000
7E00
3F80
03C0
00E0
00E0
C0E0
FFE0
FFC0
3F00
0000
0000
0600
0F00
0700
0700
0E00
0C00
ENDCHAR
STARTCHAR 021A
ENCODING 538
SWIDTH 684 0
DWIDTH 19 0
BBX 18 29 2 -8
BITMAP
FFFF80
FFFFC0
7FFFC0
018000
018000
01C000
01C000
01C000
01C000
01C000
01C000
01C000
01C000
01C000
01C000
01C000
01C000
01C000
01C000
01C000
00C000
000000
000000
018000
03C000
01C000
01C000
018000
030000
ENDCHAR
STARTCHAR 021B
ENCODING 539
SWIDTH 468 0
DWIDTH 13 0
BBX 11 27 1 -8
BITMAP
0C00
0E00
0E00
0E00
0E00
FFE0
FFE0
7FE0
0E00
0E00
0E00
0E00
0E00
0E00
0E00
0E00
0E00
0E00
0600
0000
0000
0E00
0E00
0E00
0600
0E00
0C00
ENDCHAR
STARTCHAR 02C6
ENCODING 710
SWIDTH 576 0
DWIDTH 16 0
BBX 11 7 3 16
BITMAP
0C00
1E00
3F00
7B80
F1C0
E0E0
C060
ENDCHAR
STARTCHAR 02C7
ENCODING 711
SWIDTH 576 0
DWIDTH 16 0
BBX 9 6 4 15
BITMAP
C000
E180
6380
7700
3E00
1800
ENDCHAR
STARTCHAR 02C9
ENCODING 713
SWIDTH 576 0
DWIDTH 16 0
BBX 9 2 4 16
BITMAP
FF80
FF80
ENDCHAR
STARTCHAR 02D8
ENCODING 728
SWIDTH 576 0
DWIDTH 16 0
BBX 11 6 3 16
BITMAP
C000
C020
C060
60E0
7FC0
1F00
ENDCHAR
STARTCHAR 02D9
ENCODING 729
SWIDTH 576 0
DWIDTH 16 0
BBX 4 3 4 16
BITMAP
60
F0
60
ENDCHAR
STARTCHAR 02DA
ENCODING 730
SWIDTH 576 0
DWIDTH 16 0
BBX 9 8 4 16
BITMAP
3E00
7F00
C380
C180
C180
E380
FF00
3E00
ENDCHAR
STARTCHAR 02DB
ENCODING 731
SWIDTH 576 0
DWIDTH 16 0
BBX 7 8 4 -5
BITMAP
30
70
E0
C0
C0
E6
7E
3C
ENDCHAR
STARTCHAR 02DC
ENCODING 732
SWIDTH 576 0
DWIDTH 16 0
BBX 13 5 2 16
BITMAP
3C18
7E18
E730
C3F0
01E0
ENDCHAR
STARTCHAR 02DD
ENCODING 733
SWIDTH 576 0
DWIDTH 16 0
BBX 10 6 3 16
BITMAP
18C0
19C0
3B80
7700
E600
C400
ENDCHAR
STARTCHAR 037E
ENCODING 894
SWIDTH 288 0
DWIDTH 8 0
BBX 5 17 1 -3
BITMAP
30
38
38
30
00
00
00
00
00
00
00
30
38
70
E0
E0
C0
ENDCHAR
STARTCHAR 0384
ENCODING 900
SWIDTH 576 0
DWIDTH 16 0
BBX 4 5 6 17
BITMAP
30
70
70
E0
40
ENDCHAR
STARTCHAR 0385
ENCODING 901
SWIDTH 576 0
DWIDTH 16 0
BBX 12 5 2 16
BITMAP
0300
0700
E770
EE70
C470
ENDCHAR
STARTCHAR 0386
ENCODING 902
SWIDTH 720 0
DWIDTH 20 0
BBX 16 23 2 0
BITMAP
1800
1800
3830
3070
2078
00F8
00F8
01F8
03F8
039C
071C
071C
0E1C
0EFC
1FFE
3FFE
3E0E
300E
7007
7007
E007
E007
C003
ENDCHAR
STARTCHAR 0387
ENCODING 903
SWIDTH 252 0
DWIDTH 7 0
BBX 3 3 2 9
BITMAP
E0
E0
E0
ENDCHAR
STARTCHAR 0388
ENCODING 904
SWIDTH 792 0
DWIDTH 22 0
BBX 19 23 2 0
BITMAP
600000
700000
E7FFC0
C7FFE0
C7FFE0
070000
070000
070000
070000
070000
070FC0
07FFC0
07FFC0
07F000
060000
060000
060000
060000
060000
070000
07FFC0
07FFC0
01FF80
ENDCHAR
STARTCHAR 0389
ENCODING 905
SWIDTH 1008 0
DWIDTH 28 0
BBX 23 23 3 0
BITMAP
600000
600000
E30006
C3000E
C3000E
03000E
03000E
03000E
07000E
07000E
07000E
0301FE
037FFC
03FFFC
03FE0C
07800C
07000C
07000C
07000C
07000C
07000E
07000E
06000C
ENDCHAR
STARTCHAR 038A
ENCODING 906
SWIDTH 756 0
DWIDTH 21 0
BBX 19 23 1 0
BITMAP
600000
600000
E3FF80
C3FFE0
83FFE0
001C00
001800
001800
001800
001800
003800
003800
003800
003800
003800
001800
001800
001800
001800
001800
01FFE0
03FFE0
01FFE0
ENDCHAR
STARTCHAR 038C
ENCODING 908
SWIDTH 900 0
DWIDTH 25 0
BBX 22 23 1 0
BITMAP
300000
700000
603F80
E0FFE0
C1FFF8
03E078
07803C
07001C
0E001C
0E000C
1C000C
1C000C
1C001C
1C001C
1C001C
1C003C
1C0038
1E0078
0E00F0
0F81E0
07FFC0
01FF80
007E00
ENDCHAR
STARTCHAR 038E
ENCODING 910
SWIDTH 864 0
DWIDTH 24 0
BBX 22 24 1 -1
BITMAP
600000
600000
E30018
C7801C
838038
03C038
01C070
00E070
00F0F0
0070E0
0038E0
0039C0
001DC0
001FC0
000F80
000780
000700
000700
000E00
001E00
001C00
001C00
003800
001800
ENDCHAR
STARTCHAR 038F
ENCODING 911
SWIDTH 972 0
DWIDTH 27 0
BBX 25 25 1 -2
BITMAP
60000000
70000000
E007F000
C03FFC00
C0FFFC00
01F81E00
03E00E00
07800600
0F000600
0E000600
0E000600
1C000600
1C000E00
1C000E00
0C000C00
0C001C00
0E001800
0E003800
07007000
0700E000
0381FF80
0381FF80
3FC0FF80
FF800000
FC000000
ENDCHAR
STARTCHAR 0390
ENCODING 912
SWIDTH 288 0
DWIDTH 8 0
BBX 12 21 -1 0
BITMAP
0300
0700
C670
EE70
CC70
0000
0000
0C00
0C00
0C00
0C00
0C00
1C00
1C00
1C00
1C00
1C00
1C00
0C00
0C00
0C00
ENDCHAR
STARTCHAR 0391
ENCODING 913
SWIDTH 720 0
DWIDTH 20 0
BBX 16 21 2 0
BITMAP
0030
0070
0078
00F8
00F8
01F8
03F8
039C
071C
071C
0E1C
0EFC
1FFE
3FFE
3E0E
300E
7007
7007
E007
E007
C003
ENDCHAR
STARTCHAR 0392
ENCODING 914
SWIDTH 648 0
DWIDTH 18 0
BBX 13 22 3 -1
BITMAP
7F00
FF80
FFE0
E1E0
E070
E070
E070
E070
E0F0
E1E0
FFE0
FFC0
FFE0
C1F0
C038
C018
C038
C078
C3F0
FFE0
FFC0
FE00
ENDCHAR
STARTCHAR 0393
ENCODING 915
SWIDTH 612 0
DWIDTH 17 0
BBX 14 21 2 0
BITMAP
7FFC
FFFC
FFFC
6000
7000
7000
7000
7000
7000
7000
7000
7000
7000
7000
7000
7000
7000
3000
3000
7000
3000
ENDCHAR
STARTCHAR 0394
ENCODING 916
SWIDTH 792 0
DWIDTH 22 0
BBX 21 23 1 -1
BITMAP
003000
007000
007800
00F800
00FC00
01CC00
01CE00
018E00
038700
038700
070380
070380
0E01C0
0E01C0
1C00E0
1C00E0
380060
380070
700030
7FFF38
7FFFF8
FFFFF8
000020
ENDCHAR
STARTCHAR 0395
ENCODING 917
SWIDTH 612 0
DWIDTH 17 0
BBX 15 21 2 0
BITMAP
FFF8
FFFE
FFFC
E000
E000
E000
E000
E000
E1F8
FFFC
FFF8
FE00
E000
E000
E000
E000
E000
E000
FFF8
7FF8
3FF8
ENDCHAR
STARTCHAR 0396
ENCODING 918
SWIDTH 684 0
DWIDTH 19 0
BBX 18 21 1 0
BITMAP
7FFF80
FFFFC0
7FFF80
000F00
001E00
003C00
007800
00F000
01E000
01C000
038000
070000
0F0000
0E0000
1C0000
380000
780000
700000
FFFF80
FFFFC0
FFFFC0
ENDCHAR
STARTCHAR 0397
ENCODING 919
SWIDTH 792 0
DWIDTH 22 0
BBX 18 21 2 0
BITMAP
6000C0
6001C0
6001C0
6001C0
6001C0
E001C0
E001C0
E001C0
E001C0
E03FC0
6FFF80
7FFF80
7FC180
F00180
E00180
E00180
E00180
E00180
E001C0
E001C0
C00180
ENDCHAR
STARTCHAR 0398
ENCODING 920
SWIDTH 792 0
DWIDTH 22 0
BBX 19 21 2 0
BITMAP
01FC00
07FF00
0FFF80
1F03C0
3C01E0
7800E0
7000E0
7000E0
E7FCE0
E7FCE0
E7FCE0
C000E0
C000E0
C001C0
E001C0
E00380
700780
7C1F00
3FFE00
1FFC00
03F000
ENDCHAR
STARTCHAR 0399
ENCODING 921
SWIDTH 540 0
DWIDTH 15 0
BBX 13 21 1 0
BITMAP
FFF0
FFF8
FFF8
0700
0700
0700
0600
0600
0600
0600
0600
0600
0600
0600
0600
0600
0600
0600
7FF8
FFF8
7FF8
ENDCHAR
STARTCHAR 039A
ENCODING 922
SWIDTH 612 0
DWIDTH 17 0
BBX 14 21 3 0
BITMAP
6018
E038
E078
E0F0
E1E0
E3C0
E780
EF00
FE00
FC00
F800
F800
FC00
FE00
EF00
E780
E3C0
E1F0
E0FC
E07C
E01C
ENDCHAR
STARTCHAR 039B
ENCODING 923
SWIDTH 684 0
DWIDTH 19 0
BBX 19 21 0 0
BITMAP
003000
007000
007800
00F800
00F800
00FC00
01FC00
01DE00
03CE00
038E00
078700
070700
0F0780
0E0380
1C0380
1C01C0
3801C0
7801E0
7000E0
E000E0
E00060
ENDCHAR
STARTCHAR 039C
ENCODING 924
SWIDTH 900 0
DWIDTH 25 0
BBX 22 22 2 -1
BITMAP
0C0180
0E03C0
1E03C0
1E03C0
1F03C0
1F07C0
3F07E0
3F07E0
3F07E0
3B0EE0
3B8E60
738E60
739C70
739C70
71DC70
E1F870
E1F838
E0F838
E0F038
E0F038
C0F01C
C06018
ENDCHAR
STARTCHAR 039D
ENCODING 925
SWIDTH 792 0
DWIDTH 22 0
BBX 19 21 2 0
BITMAP
C000C0
E001C0
F001E0
F800E0
F800E0
FC00E0
EE00E0
EF00E0
E700E0
E380E0
E1C0E0
E0E0E0
E0F0E0
E078E0
E03CE0
E01EE0
E00FE0
E007E0
E003E0
E001E0
C000C0
ENDCHAR
STARTCHAR 039E
ENCODING 926
SWIDTH 720 0
DWIDTH 20 0
BBX 18 21 1 0
BITMAP
7FFF80
FFFFC0
7FFF80
000000
000000
000000
000000
000000
3FFE00
3FFE00
3FFE00
000000
000000
000000
000000
000000
000000
000000
FFFFC0
FFFFC0
7FFFC0
ENDCHAR
STARTCHAR 039F
ENCODING 927
SWIDTH 792 0
DWIDTH 22 0
BBX 19 21 2 0
BITMAP
01FC00
07FF00
0FFF80
1F03C0
3C01E0
7800E0
7000E0
7000E0
E000E0
E000E0
E000E0
C000E0
C000E0
C001C0
E001C0
E00380
700780
7C1F00
3FFE00
1FFC00
03F000
ENDCHAR
STARTCHAR 03A0
ENCODING 928
SWIDTH 900 0
DWIDTH 25 0
BBX 23 21 1 0
BITMAP
7FFFFE
FFFFFE
7FFFFE
0E0070
0E0070
0E0070
0E0070
0E0070
0E0070
0E0070
0E0070
0E0070
0E0070
0E0070
0E0070
0E0070
0E0070
0E0030
0E0030
0E0030
0C0030
ENDCHAR
STARTCHAR 03A1
ENCODING 929
SWIDTH 540 0
DWIDTH 15 0
BBX 13 21 1 0
BITMAP
7F00
7FC0
7FE0
60F0
6070
6038
6038
6038
6070
60F0
7FE0
7FC0
FF00
E000
E000
E000
E000
E000
E000
E000
6000
ENDCHAR
STARTCHAR 03A3
ENCODING 931
SWIDTH 756 0
DWIDTH 21 0
BBX 17 21 2 0
BITMAP
7FFE00
FFFF00
7FFE00
780000
3C0000
1E0000
0E0000
070000
038000
01C000
01E000
03C000
078000
070000
0E0000
1C0000
3C0000
780000
7FFF80
FFFF80
FFFF80
ENDCHAR
STARTCHAR 03A4
ENCODING 932
SWIDTH 684 0
DWIDTH 19 0
BBX 18 21 2 0
BITMAP
FFFF80
FFFFC0
7FFFC0
018000
018000
01C000
01C000
01C000
01C000
01C000
01C000
01C000
01C000
01C000
01C000
01C000
01C000
01C000
01C000
01C000
00C000
ENDCHAR
STARTCHAR 03A5
ENCODING 933
SWIDTH 648 0
DWIDTH 18 0
BBX 17 22 0 -1
BITMAP
600300
E00380
700700
780700
380E00
1C0E00
1E1E00
0E1C00
071C00
073800
07B800
03F800
01F000
00F000
00E000
01E000
01C000
03C000
038000
038000
070000
030000
ENDCHAR
STARTCHAR 03A6
ENCODING 934
SWIDTH 648 0
DWIDTH 18 0
BBX 16 22 1 -1
BITMAP
0FF8
1FFC
1FFC
01C0
03F0
0FFC
1FFE
3DCF
71C7
71C3
E1C3
E1C3
E1C7
E1C7
F9DE
7FFC
3FF8
0FE0
01FC
0FFC
0FF8
0F00
ENDCHAR
STARTCHAR 03A7
ENCODING 935
SWIDTH 720 0
DWIDTH 20 0
BBX 18 21 1 0
BITMAP
6000C0
7001C0
7803C0
3C0780
1E0700
0F0E00
071E00
03BC00
03F800
01F000
00F000
01F000
03F800
07BC00
0F1C00
1E0E00
3C0F00
780780
700380
E001C0
C000C0
ENDCHAR
STARTCHAR 03A8
ENCODING 936
SWIDTH 684 0
DWIDTH 19 0
BBX 17 21 1 0
BITMAP
C0C180
E1C380
E1C380
E1C380
E1C380
E1C380
E1C380
E1C700
E1C700
F1CF00
79DE00
7FFC00
3FF800
0FE000
01C000
018000
018000
018000
018000
018000
018000
ENDCHAR
STARTCHAR 03A9
ENCODING 937
SWIDTH 972 0
DWIDTH 27 0
BBX 25 23 1 -2
BITMAP
000FE000
003FF800
00FFFC00
01F81E00
03C00E00
07800E00
0F000E00
0E000E00
1C000E00
1C000E00
1C000E00
1C000E00
1C000C00
1C001C00
0E001800
0E003000
0E007000
0700E000
0701FF00
0381FF80
3F81FF80
FF800000
FC000000
ENDCHAR
STARTCHAR 03AA
ENCODING 938
SWIDTH 540 0
DWIDTH 15 0
BBX 13 25 1 0
BITMAP
1870
3870
3870
0000
FFF0
FFF8
FFF8
0700
0700
0700
0600
0600
0600
0600
0600
0600
0600
0600
0600
0600
0600
0600
7FF8
FFF8
7FF8
ENDCHAR
STARTCHAR 03AB
ENCODING 939
SWIDTH 648 0
DWIDTH 18 0
BBX 17 26 0 -1
BITMAP
061C00
0E1C00
061C00
000000
600300
E00380
700700
780700
380E00
1C0E00
1E1E00
0E1C00
071C00
073800
07B800
03F800
01F000
00F000
00E000
01E000
01C000
03C000
038000
038000
070000
030000
ENDCHAR
STARTCHAR 03AC
ENCODING 940
SWIDTH 540 0
DWIDTH 15 0
BBX 13 22 1 0
BITMAP
0080
01C0
0180
0380
0300
0000
0000
0000
0798
1FF8
3FF0
7870
F070
E070
E070
C070
C070
E070
F0F0
7FF0
7FD8
1F18
ENDCHAR
STARTCHAR 03AD
ENCODING 941
SWIDTH 504 0
DWIDTH 14 0
BBX 10 23 2 -1
BITMAP
0600
0600
0E00
0C00
0C00
0000
0000
0000
1F00
3F80
7FC0
71C0
6000
7000
3C00
3C00
7000
E000
E0C0
E1C0
FFC0
7F80
1F00
ENDCHAR
STARTCHAR 03AE
ENCODING 942
SWIDTH 540 0
DWIDTH 15 0
BBX 12 26 2 -4
BITMAP
0300
0700
0600
0E00
0C00
0000
0000
0000
C380
EFC0
FFE0
FCE0
F8E0
F060
F060
E0E0
E0E0
E060
C060
C060
E070
C070
0070
0070
0070
0030
ENDCHAR
STARTCHAR 03AF
ENCODING 943
SWIDTH 288 0
DWIDTH 8 0
BBX 4 22 2 0
BITMAP
30
70
70
E0
40
00
00
00
60
60
60
60
60
E0
E0
E0
E0
E0
E0
60
60
60
ENDCHAR
STARTCHAR 03B0
ENCODING 944
SWIDTH 540 0
DWIDTH 15 0
BBX 13 21 1 0
BITMAP
0180
0380
73B8
7738
6238
0000
0000
6030
E038
E038
E038
E038
E038
E030
E030
E070
E070
70E0
7FE0
3FC0
0F80
ENDCHAR
STARTCHAR 03B1
ENCODING 945
SWIDTH 540 0
DWIDTH 15 0
BBX 13 14 1 0
BITMAP
0798
1FF8
3FF0
7870
F070
E070
E070
C070
C070
E070
F0F0
7FF0
7FD8
1F18
ENDCHAR
STARTCHAR 03B2
ENCODING 946
SWIDTH 576 0
DWIDTH 16 0
BBX 13 25 2 -5
BITMAP
1E00
7F00
7F80
7380
E380
E380
E3C0
E7E0
E7F0
E070
E038
E038
E038
E038
E038
E078
F0F0
FFF0
FFE0
DF80
C000
C000
C000
C000
C000
ENDCHAR
STARTCHAR 03B3
ENCODING 947
SWIDTH 504 0
DWIDTH 14 0
BBX 12 18 1 -4
BITMAP
C030
E070
E070
7060
70E0
70E0
39C0
39C0
1980
1F80
1F00
0F00
0E00
0E00
0E00
0E00
0E00
0600
ENDCHAR
STARTCHAR 03B4
ENCODING 948
SWIDTH 540 0
DWIDTH 15 0
BBX 13 21 1 0
BITMAP
7FF0
7FF8
3FF0
1E00
0F00
0780
0380
0FC0
1FE0
3FE0
78F0
7070
E030
E030
E030
E030
E070
70E0
7FE0
3FC0
0F80
ENDCHAR
STARTCHAR 03B5
ENCODING 949
SWIDTH 504 0
DWIDTH 14 0
BBX 10 15 2 -1
BITMAP
1F00
3F80
7FC0
71C0
6000
7000
3C00
3C00
7000
E000
E0C0
E1C0
FFC0
7F80
1F00
ENDCHAR
STARTCHAR 03B6
ENCODING 950
SWIDTH 504 0
DWIDTH 14 0
BBX 13 27 1 -6
BITMAP
7FF8
FFF8
7FF0
01C0
0380
0700
0600
0C00
1C00
3800
3000
7000
7000
6000
E000
E000
E000
6000
7000
7E00
3FC0
07E0
0060
00E0
07E0
0FE0
0780
ENDCHAR
STARTCHAR 03B7
ENCODING 951
SWIDTH 540 0
DWIDTH 15 0
BBX 12 18 2 -4
BITMAP
C380
EFC0
FFE0
FCE0
F8E0
F060
F060
E0E0
E0E0
E060
C060
C060
E070
C070
0070
0070
0070
0030
ENDCHAR
STARTCHAR 03B8
ENCODING 952
SWIDTH 612 0
DWIDTH 17 0
BBX 15 21 1 0
BITMAP
07C0
1FF0
3FF8
383C
701C
600E
E00E
E00E
FFFE
FFFE
FFFE
E00E
E00E
E00E
E00E
701C
701C
7878
3FF8
1FF0
07C0
ENDCHAR
STARTCHAR 03B9
ENCODING 953
SWIDTH 288 0
DWIDTH 8 0
BBX 3 14 2 0
BITMAP
60
60
60
60
60
E0
E0
E0
E0
E0
E0
60
60
60
ENDCHAR
STARTCHAR 03BA
ENCODING 954
SWIDTH 540 0
DWIDTH 15 0
BBX 12 14 2 0
BITMAP
E0C0
E1E0
E3C0
E780
EF00
FE00
FF00
FF80
E380
E1C0
C0E0
C0F0
C070
C030
ENDCHAR
STARTCHAR 03BB
ENCODING 955
SWIDTH 504 0
DWIDTH 14 0
BBX 12 19 1 0
BITMAP
0600
0E00
0E00
0E00
0E00
0E00
0F00
1F00
1F80
1B80
39C0
39C0
38C0
70E0
70E0
7070
E070
E070
C030
ENDCHAR
STARTCHAR 03BC
ENCODING 956
SWIDTH 540 0
DWIDTH 15 0
BBX 12 19 1 -5
BITMAP
6030
7030
6070
6070
E070
E070
6070
6070
6070
7070
70F0
7FF0
7FF0
7F30
6000
6000
6000
6000
6000
ENDCHAR
STARTCHAR 03BD
ENCODING 957
SWIDTH 504 0
DWIDTH 14 0
BBX 12 15 1 -1
BITMAP
C030
E070
E070
6060
70E0
70E0
39C0
39C0
1980
1F80
1F00
0F00
0F00
0600
0200
ENDCHAR
STARTCHAR 03BE
ENCODING 958
SWIDTH 504 0
DWIDTH 14 0
BBX 11 27 1 -6
BITMAP
07C0
1FC0
3FC0
3C00
7000
7000
7800
3F80
1F80
0F80
1C00
3800
7000
6000
6000
E000
E000
7000
7E00
3FC0
1FE0
03E0
0060
00E0
07E0
0FC0
0780
ENDCHAR
STARTCHAR 03BF
ENCODING 959
SWIDTH 540 0
DWIDTH 15 0
BBX 12 14 1 0
BITMAP
0F80
1FE0
3FE0
78F0
7070
E030
E030
E030
E030
E070
70E0
7FE0
3FC0
0F80
ENDCHAR
STARTCHAR 03C0
ENCODING 960
SWIDTH 648 0
DWIDTH 18 0
BBX 16 14 1 0
BITMAP
7FFF
FFFF
FFFF
CC18
0C38
0C38
1C38
1C38
1C30
1C30
1C30
1838
183C
181C
ENDCHAR
STARTCHAR 03C1
ENCODING 961
SWIDTH 540 0
DWIDTH 15 0
BBX 13 20 0 -6
BITMAP
03C0
0FF0
1FF0
3C78
3838
7018
7018
7018
7038
7038
7870
7FF0
7FE0
7780
7000
7000
6000
6000
E000
6000
ENDCHAR
STARTCHAR 03C2
ENCODING 962
SWIDTH 504 0
DWIDTH 14 0
BBX 12 19 1 -5
BITMAP
0780
1FE0
1FF0
3870
7000
7000
6000
E000
E000
7000
7E00
7FC0
3FE0
07E0
0060
00E0
07E0
0FC0
0780
ENDCHAR
STARTCHAR 03C3
ENCODING 963
SWIDTH 540 0
DWIDTH 15 0
BBX 14 14 1 0
BITMAP
0FFC
1FFC
3FFC
78E0
7070
E030
E030
E030
E030
E070
70F0
7FE0
3FC0
0F00
ENDCHAR
STARTCHAR 03C4
ENCODING 964
SWIDTH 468 0
DWIDTH 13 0
BBX 11 14 1 0
BITMAP
FFE0
FFE0
FFE0
0E00
0E00
0E00
0E00
0E00
0E00
0E00
0E00
0E00
0E00
0600
ENDCHAR
STARTCHAR 03C5
ENCODING 965
SWIDTH 540 0
DWIDTH 15 0
BBX 13 14 1 0
BITMAP
6030
E038
E038
E038
E038
E038
E030
E030
E070
E070
70E0
7FE0
3FC0
0F80
ENDCHAR
STARTCHAR 03C6
ENCODING 966
SWIDTH 612 0
DWIDTH 17 0
BBX 14 19 2 -5
BITMAP
01E0
63F0
67F0
E738
E738
C618
C61C
C71C
C71C
C71C
F738
7FF8
7FF0
1FC0
0700
0700
0700
0700
0600
ENDCHAR
STARTCHAR 03C7
ENCODING 967
SWIDTH 612 0
DWIDTH 17 0
BBX 15 19 0 -5
BITMAP
300C
380E
381C
1C38
1E38
0E70
07E0
07E0
03C0
03C0
07C0
0FE0
0EF0
1C70
3C38
383C
701C
F00E
600E
ENDCHAR
STARTCHAR 03C8
ENCODING 968
SWIDTH 576 0
DWIDTH 16 0
BBX 15 19 1 -5
BITMAP
E30C
E38C
E38C
E38E
E38E
E38C
E31C
E31C
E31C
F33C
7B78
3FF0
3FF0
0FC0
0300
0300
0300
0300
0300
ENDCHAR
STARTCHAR 03C9
ENCODING 969
SWIDTH 756 0
DWIDTH 21 0
BBX 19 14 1 0
BITMAP
6000C0
6000E0
E0C0E0
E0E0E0
E0E0E0
C0E0E0
E0E0E0
E0E0E0
E0E1C0
E1E1C0
71F3C0
7FFF80
3FFF00
1F3E00
ENDCHAR
STARTCHAR 03CA
ENCODING 970
SWIDTH 288 0
DWIDTH 8 0
BBX 11 19 -2 0
BITMAP
61C0
F1E0
60C0
0000
0000
0600
0600
0600
0600
0600
0E00
0E00
0E00
0E00
0E00
0E00
0600
0600
0600
ENDCHAR
STARTCHAR 03CB
ENCODING 971
SWIDTH 540 0
DWIDTH 15 0
BBX 13 19 1 0
BITMAP
3860
38F0
3070
0000
0000
6030
E038
E038
E038
E038
E038
E030
E030
E070
E070
70E0
7FE0
3FC0
0F80
ENDCHAR
STARTCHAR 03CC
ENCODING 972
SWIDTH 540 0
DWIDTH 15 0
BBX 12 22 1 0
BITMAP
0300
0380
0700
0700
0600
0000
0000
0000
0F80
1FE0
3FE0
78F0
7070
E030
E030
E030
E030
E070
70E0
7FE0
3FC0
0F80
ENDCHAR
STARTCHAR 03CD
ENCODING 973
SWIDTH 540 0
DWIDTH 15 0
BBX 13 22 1 0
BITMAP
0300
0300
0700
0600
0600
0000
0000
0000
6030
E038
E038
E038
E038
E038
E030
E030
E070
E070
70E0
7FE0
3FC0
0F80
ENDCHAR
STARTCHAR 03CE
ENCODING 974
SWIDTH 756 0
DWIDTH 21 0
BBX 19 22 1 0
BITMAP
006000
007000
00E000
00C000
00C000
000000
000000
000000
6000C0
6000E0
E0C0E0
E0E0E0
E0E0E0
C0E0E0
E0E0E0
E0E0E0
E0E1C0
E1E1C0
71F3C0
7FFF80
3FFF00
1F3E00
ENDCHAR
STARTCHAR 0401
ENCODING 1025
SWIDTH 612 0
DWIDTH 17 0
BBX 15 27 2 0
BITMAP
0E18
0E3C
0C1C
0000
0000
0000
FFF8
FFFE
FFFC
E000
E000
E000
E000
E000
E1F8
FFFC
FFF8
FE00
E000
E000
E000
E000
E000
E000
FFF8
7FF8
3FF8
ENDCHAR
STARTCHAR 0402
ENCODING 1026
SWIDTH 864 0
DWIDTH 24 0
BBX 21 25 1 -4
BITMAP
FFFF80
FFFFC0
7FFFC0
018000
018000
01C000
01DF80
01FFE0
01FFF0
01E0F8
01C038
01C038
01C018
01C018
01C018
01C018
01C018
01C038
01C038
01C030
00C070
0000E0
0001E0
0003C0
000380
ENDCHAR
STARTCHAR 0403
ENCODING 1027
SWIDTH 612 0
DWIDTH 17 0
BBX 14 28 2 0
BITMAP
0060
00E0
01C0
0380
0700
0700
0000
7FFC
FFFC
FFFC
6000
7000
7000
7000
7000
7000
7000
7000
7000
7000
7000
7000
7000
7000
3000
3000
7000
3000
ENDCHAR
STARTCHAR 0404
ENCODING 1028
SWIDTH 612 0
DWIDTH 17 0
BBX 15 21 1 0
BITMAP
00F6
03FE
07FE
0F0E
1E06
3C00
3800
7000
71E0
7FF0
FFE0
FF00
E000
E000
E000
E00C
701E
787C
3FF8
1FF0
0FC0
ENDCHAR
STARTCHAR 0405
ENCODING 1029
SWIDTH 684 0
DWIDTH 19 0
BBX 16 22 2 -1
BITMAP
01F8
07FE
0FFE
1E0E
3800
3800
3800
3C00
3FF0
1FFC
07FE
003E
000F
0007
0007
0007
C007
E00E
F03E
7FFC
3FF0
0FC0
ENDCHAR
STARTCHAR 0406
ENCODING 1030
SWIDTH 540 0
DWIDTH 15 0
BBX 13 21 1 0
BITMAP
FFF0
FFF8
FFF8
0700
0700
0700
0600
0600
0600
0600
0600
0600
0600
0600
0600
0600
0600
0600
7FF8
FFF8
7FF8
ENDCHAR
STARTCHAR 0407
ENCODING 1031
SWIDTH 540 0
DWIDTH 15 0
BBX 13 25 1 0
BITMAP
1870
3870
3870
0000
FFF0
FFF8
FFF8
0700
0700
0700
0600
0600
0600
0600
0600
0600
0600
0600
0600
0600
0600
0600
7FF8
FFF8
7FF8
ENDCHAR
STARTCHAR 0408
ENCODING 1032
SWIDTH 684 0
DWIDTH 19 0
BBX 17 23 1 -2
BITMAP
0FFF00
0FFF80
0FFF00
007000
007000
007000
007000
007000
007000
007000
007000
007000
007000
007000
007000
607000
E06000
E06000
70E000
7CE000
3FE000
1FC000
078000
ENDCHAR
STARTCHAR 0409
ENCODING 1033
SWIDTH 1008 0
DWIDTH 28 0
BBX 27 21 0 0
BITMAP
0FFF8000
0FFF8000
0FFF8000
0E038000
0E038000
0E038000
0E038000
0E038000
0E03FE00
0E03FF80
0E03FFC0
0E0381E0
0E0380E0
0E0380E0
0E0380E0
0E0380E0
0E0380E0
1C0383E0
7C03FFC0
FC03FF80
7003FE00
ENDCHAR
STARTCHAR 040A
ENCODING 1034
SWIDTH 972 0
DWIDTH 27 0
BBX 25 21 1 0
BITMAP
60060000
E0060000
E0060000
E0060000
E0060000
E0060000
E0060000
E0060000
FFFFF800
FFFFFE00
FFFFFF00
E00E0780
E00E0380
E00E0380
E00E0180
E00E0380
E00E0380
E00E0780
C00FFF00
C00FFE00
C00FF800
ENDCHAR
STARTCHAR 040B
ENCODING 1035
SWIDTH 864 0
DWIDTH 24 0
BBX 21 21 1 0
BITMAP
FFFF80
FFFFC0
7FFFC0
018000
018000
01C000
01DF80
01FFE0
01FFE0
01E070
01C070
01C030
01C038
01C038
01C038
01C038
01C038
01C038
01C030
01C030
00C030
ENDCHAR
STARTCHAR 040C
ENCODING 1036
SWIDTH 648 0
DWIDTH 18 0
BBX 15 28 2 0
BITMAP
00C0
01C0
0380
0700
0F00
0E00
0000
601C
E03C
E07C
E070
E0E0
E0E0
E1C0
E7C0
FF00
FF00
FF80
E3C0
E1E0
E0F0
E070
E078
E03C
E01C
E01C
E00E
600C
ENDCHAR
STARTCHAR 040E
ENCODING 1038
SWIDTH 648 0
DWIDTH 18 0
BBX 17 28 0 0
BITMAP
180000
180400
180C00
0C1C00
0FF800
03E000
000000
600300
F00380
700700
780700
3C0E00
1C0E00
1E1C00
0E1C00
071C00
073800
03B800
03F000
01F000
00E000
00E000
01E000
03C000
07C000
3F8000
7F0000
3C0000
ENDCHAR
STARTCHAR 040F
ENCODING 1039
SWIDTH 720 0
DWIDTH 20 0
BBX 17 25 2 -4
BITMAP
C00180
C00380
C00380
E00300
E00300
E00700
E00700
E00700
E00700
E00700
E00300
E00300
E00300
E00300
E00300
E00300
E00300
E00300
FFFF00
FFFF00
FFFF00
038000
038000
038000
018000
ENDCHAR
STARTCHAR 0410
ENCODING 1040
SWIDTH 720 0
DWIDTH 20 0
BBX 16 21 2 0
BITMAP
0030
0070
0078
00F8
00F8
01F8
03F8
039C
071C
071C
0E1C
0EFC
1FFE
3FFE
3E0E
300E
7007
7007
E007
E007
C003
ENDCHAR
STARTCHAR 0411
ENCODING 1041
SWIDTH 612 0
DWIDTH 17 0
BBX 13 21 2 0
BITMAP
7FF8
FFF8
FFF8
E000
E000
E000
E000
E000
FF80
7FE0
7FF0
6078
6038
E018
E018
E018
E038
E078
FFF0
FFE0
7FC0
ENDCHAR
STARTCHAR 0412
ENCODING 1042
SWIDTH 648 0
DWIDTH 18 0
BBX 13 22 3 -1
BITMAP
7F00
FF80
FFE0
E1E0
E070
E070
E070
E070
E0F0
E1E0
FFE0
FFC0
FFE0
C1F0
C038
C018
C038
C078
C3F0
FFE0
FFC0
FE00
ENDCHAR
STARTCHAR 0413
ENCODING 1043
SWIDTH 612 0
DWIDTH 17 0
BBX 14 21 2 0
BITMAP
7FFC
FFFC
FFFC
6000
7000
7000
7000
7000
7000
7000
7000
7000
7000
7000
7000
7000
7000
3000
3000
7000
3000
ENDCHAR
STARTCHAR 0414
ENCODING 1044
SWIDTH 792 0
DWIDTH 22 0
BBX 19 26 1 -5
BITMAP
07FFC0
07FFC0
07FFC0
0701C0
0701C0
0701C0
0701C0
0701C0
0601C0
0601C0
0E01C0
0E01C0
0E01C0
0E01C0
0C01C0
1C01C0
1C01C0
1801C0
3FFFC0
FFFFE0
FFFFE0
E00060
E000E0
E000E0
E00060
600060
ENDCHAR
STARTCHAR 0415
ENCODING 1045
SWIDTH 612 0
DWIDTH 17 0
BBX 15 21 2 0
BITMAP
FFF8
FFFE
FFFC
E000
E000
E000
E000
E000
E1F8
FFFC
FFF8
FE00
E000
E000
E000
E000
E000
E000
FFF8
7FF8
3FF8
ENDCHAR
STARTCHAR 0416
ENCODING 1046
SWIDTH 864 0
DWIDTH 24 0
BBX 23 21 0 0
BITMAP
70180E
78381E
3C3838
1C3838
0E3870
0E3870
0638E0
0739E0
03FFC0
01FF80
03FFC0
0799E0
0F18F0
1E1878
1C1838
3C183C
78181C
70380E
70380E
E03806
601806
ENDCHAR
STARTCHAR 0417
ENCODING 1047
SWIDTH 612 0
DWIDTH 17 0
BBX 14 21 1 0
BITMAP
07E0
1FF0
3FF8
7C3C
301C
001C
001C
0078
03F8
07F0
03F8
003C
001C
000C
000C
001C
E01C
F03C
FFF8
7FF0
1FC0
ENDCHAR
STARTCHAR 0418
ENCODING 1048
SWIDTH 756 0
DWIDTH 21 0
BBX 17 21 2 0
BITMAP
C00380
E00380
E00780
E00F80
E01F80
E03F80
E07F80
E0FB80
E1F380
E3E380
E7C380
E78380
EF0380
FE0380
FE0380
FC0380
F80380
F00380
F00380
E00380
C00300
ENDCHAR
STARTCHAR 0419
ENCODING 1049
SWIDTH 756 0
DWIDTH 21 0
BBX 17 28 2 0
BITMAP
180000
180C00
180C00
1C1C00
0FF800
03E000
000000
C00380
E00380
E00780
E00F80
E01F80
E03F80
E07F80
E0FB80
E1F380
E3E380
E7C380
E78380
EF0380
FE0380
FE0380
FC0380
F80380
F00380
F00380
E00380
C00300
ENDCHAR
STARTCHAR 041A
ENCODING 1050
SWIDTH 648 0
DWIDTH 18 0
BBX 15 21 2 0
BITMAP
601C
E03C
E07C
E070
E0E0
E0E0
E1C0
E7C0
FF00
FF00
FF80
E3C0
E1E0
E0F0
E070
E078
E03C
E01C
E01C
E00E
600C
ENDCHAR
STARTCHAR 041B
ENCODING 1051
SWIDTH 756 0
DWIDTH 21 0
BBX 18 21 0 0
BITMAP
0FFFC0
0FFFC0
0FFFC0
0E01C0
0E01C0
0E01C0
0E01C0
0E01C0
0E01C0
0E01C0
0E01C0
0E01C0
0E01C0
0E01C0
0E01C0
0E01C0
0E01C0
1C01C0
7C01C0
FC01C0
7000C0
ENDCHAR
STARTCHAR 041C
ENCODING 1052
SWIDTH 900 0
DWIDTH 25 0
BBX 22 22 2 -1
BITMAP
0C0180
0E03C0
1E03C0
1E03C0
1F03C0
1F07C0
3F07E0
3F07E0
3F07E0
3B0EE0
3B8E60
738E60
739C70
739C70
71DC70
E1F870
E1F838
E0F838
E0F038
E0F038
C0F01C
C06018
ENDCHAR
STARTCHAR 041D
ENCODING 1053
SWIDTH 792 0
DWIDTH 22 0
BBX 18 21 2 0
BITMAP
6000C0
6001C0
6001C0
6001C0
6001C0
E001C0
E001C0
E001C0
E001C0
E03FC0
6FFF80
7FFF80
7FC180
F00180
E00180
E00180
E00180
E00180
E001C0
E001C0
C00180
ENDCHAR
STARTCHAR 041E
ENCODING 1054
SWIDTH 792 0
DWIDTH 22 0
BBX 19 21 2 0
BITMAP
01FC00
07FF00
0FFF80
1F03C0
3C01E0
7800E0
7000E0
7000E0
E000E0
E000E0
E000E0
C000E0
C000E0
C001C0
E001C0
E00380
700780
7C1F00
3FFE00
1FFC00
03F000
ENDCHAR
STARTCHAR 041F
ENCODING 1055
SWIDTH 900 0
DWIDTH 25 0
BBX 23 21 1 0
BITMAP
7FFFFE
FFFFFE
7FFFFE
0E0070
0E0070
0E0070
0E0070
0E0070
0E0070
0E0070
0E0070
0E0070
0E0070
0E0070
0E0070
0E0070
0E0070
0E0030
0E0030
0E0030
0C0030
ENDCHAR
STARTCHAR 0420
ENCODING 1056
SWIDTH 540 0
DWIDTH 15 0
BBX 13 21 1 0
BITMAP
7F00
7FC0
7FE0
60F0
6070
6038
6038
6038
6070
60F0
7FE0
7FC0
FF00
E000
E000
E000
E000
E000
E000
E000
6000
ENDCHAR
STARTCHAR 0421
ENCODING 1057
SWIDTH 612 0
DWIDTH 17 0
BBX 15 21 1 0
BITMAP
00FE
01FE
03FE
078E
0F06
1E00
3C00
3800
7800
7000
7000
E000
E000
E000
E000
E00C
701E
787C
3FF8
1FF0
0FC0
ENDCHAR
STARTCHAR 0422
ENCODING 1058
SWIDTH 684 0
DWIDTH 19 0
BBX 18 21 2 0
BITMAP
FFFF80
FFFFC0
7FFFC0
018000
018000
01C000
01C000
01C000
01C000
01C000
01C000
01C000
01C000
01C000
01C000
01C000
01C000
01C000
01C000
01C000
00C000
ENDCHAR
STARTCHAR 0423
ENCODING 1059
SWIDTH 648 0
DWIDTH 18 0
BBX 17 21 0 0
BITMAP
600300
F00380
700700
780700
3C0E00
1C0E00
1E1C00
0E1C00
071C00
073800
03B800
03F000
01F000
00E000
00E000
01E000
03C000
07C000
3F8000
7F0000
3C0000
ENDCHAR
STARTCHAR 0424
ENCODING 1060
SWIDTH 648 0
DWIDTH 18 0
BBX 16 22 1 -1
BITMAP
0FF8
1FFC
1FFC
01C0
03F0
0FFC
1FFE
3DCF
71C7
71C3
E1C3
E1C3
E1C7
E1C7
F9DE
7FFC
3FF8
0FE0
01FC
0FFC
0FF8
0F00
ENDCHAR
STARTCHAR 0425
ENCODING 1061
SWIDTH 720 0
DWIDTH 20 0
BBX 18 21 1 0
BITMAP
6000C0
7001C0
7803C0
3C0780
1E0700
0F0E00
071E00
03BC00
03F800
01F000
00F000
01F000
03F800
07BC00
0F1C00
1E0E00
3C0F00
780780
700380
E001C0
C000C0
ENDCHAR
STARTCHAR 0426
ENCODING 1062
SWIDTH 792 0
DWIDTH 22 0
BBX 19 25 2 -4
BITMAP
C00300
C00380
C00300
E00300
E00300
E00300
E00300
E00300
E00300
E00300
E00300
E00300
E00300
E00300
E00300
E00300
E00300
E00300
FFFFC0
FFFFE0
FFFFE0
0000E0
0000E0
0000E0
000060
ENDCHAR
STARTCHAR 0427
ENCODING 1063
SWIDTH 612 0
DWIDTH 17 0
BBX 14 21 1 0
BITMAP
600C
600C
600C
600C
600C
E00C
E00C
E00C
600C
700C
781C
3FFC
1FFC
07EC
000C
000C
000C
000C
000C
000C
000C
ENDCHAR
STARTCHAR 0428
ENCODING 1064
SWIDTH 900 0
DWIDTH 25 0
BBX 23 21 1 0
BITMAP
60380C
E0380E
E0380E
E0380E
E0380C
60380C
60380C
60380C
60380C
60380C
60380C
60380C
60380C
60380C
60380C
60380C
60380C
60380C
7FFFFE
FFFFFE
FFFFFC
ENDCHAR
STARTCHAR 0429
ENCODING 1065
SWIDTH 972 0
DWIDTH 27 0
BBX 25 25 1 -4
BITMAP
60380C00
E0380E00
E0380E00
E0380E00
E0380C00
60380C00
60380C00
60380C00
60380C00
60380C00
60380C00
60380C00
60380C00
60380C00
60380C00
60380C00
60380C00
60380C00
7FFFFE00
FFFFFF80
FFFFFF80
00000380
00000380
00000380
00000180
ENDCHAR
STARTCHAR 042A
ENCODING 1066
SWIDTH 756 0
DWIDTH 21 0
BBX 19 21 1 0
BITMAP
FF0000
FF0000
FF0000
030000
030000
038000
038000
038000
03FE00
03FF80
03FFC0
0383C0
0380E0
0380E0
0380E0
0380E0
0300E0
0303C0
07FFC0
03FF80
03FE00
ENDCHAR
STARTCHAR 042B
ENCODING 1067
SWIDTH 1080 0
DWIDTH 30 0
BBX 27 21 2 0
BITMAP
6003FF80
E007FFE0
E003FFE0
E0003800
E0003800
E0003800
E0003800
E0003800
7F803800
7FE03800
7FF03800
60783800
60383800
E0183800
E0183800
E0183800
E0383800
E0783800
FFF3FFC0
FFE3FFC0
7FC3FFC0
ENDCHAR
STARTCHAR 042C
ENCODING 1068
SWIDTH 612 0
DWIDTH 17 0
BBX 13 21 2 0
BITMAP
6000
E000
E000
E000
E000
E000
E000
E000
7F80
7FE0
7FF0
6078
6038
E018
E018
E018
E038
E078
FFF0
FFE0
7FC0
ENDCHAR
STARTCHAR 042D
ENCODING 1069
SWIDTH 648 0
DWIDTH 18 0
BBX 16 21 1 0
BITMAP
1FC0
7FF0
7FF8
607C
001C
001E
000E
0006
0007
07FF
07FF
07FF
0007
0007
000E
000E
601C
F07C
FFF8
3FF0
0FC0
ENDCHAR
STARTCHAR 042E
ENCODING 1070
SWIDTH 1152 0
DWIDTH 32 0
BBX 29 21 1 0
BITMAP
60003F00
7001FFE0
7003FFF0
6007C0F0
600F0078
600E0038
601E0038
601C0018
60180018
60380018
FFF80038
FFF80038
FFF80038
E0380038
E0380070
E03C00F0
E01E01E0
E01F03C0
E00FFF80
E003FF00
E000FC00
ENDCHAR
STARTCHAR 042F
ENCODING 1071
SWIDTH 648 0
DWIDTH 18 0
BBX 16 21 0 0
BITMAP
007E
01FF
07FF
0F87
1E07
3C07
3807
3807
3807
3C07
1F07
0FFF
03FF
01FF
07F7
0FC7
1F07
3C07
7807
F007
6003
ENDCHAR
STARTCHAR 0430
ENCODING 1072
SWIDTH 504 0
DWIDTH 14 0
BBX 13 14 1 0
BITMAP
07C0
1FF0
3FF0
7870
F060
E060
E060
C060
C060
E070
F0F0
7FF0
7FF8
1F38
ENDCHAR
STARTCHAR 0431
ENCODING 1073
SWIDTH 540 0
DWIDTH 15 0
BBX 13 21 1 0
BITMAP
0018
03F8
0FF8
1FF0
3C00
3800
7000
7F80
7FE0
FFE0
F8F0
F070
E030
E030
E030
E070
E070
70E0
7FE0
3FC0
0F00
ENDCHAR
STARTCHAR 0432
ENCODING 1074
SWIDTH 504 0
DWIDTH 14 0
BBX 11 14 2 0
BITMAP
FE00
FF80
FFC0
C1C0
E1C0
FFC0
FF00
FFC0
C1E0
C0E0
C1E0
FFE0
FF80
FE00
ENDCHAR
STARTCHAR 0433
ENCODING 1075
SWIDTH 468 0
DWIDTH 13 0
BBX 11 14 2 0
BITMAP
7FC0
FFE0
FFE0
E000
E000
E000
E000
E000
E000
E000
E000
E000
E000
6000
ENDCHAR
STARTCHAR 0434
ENCODING 1076
SWIDTH 612 0
DWIDTH 17 0
BBX 16 17 0 -3
BITMAP
07FC
0FFC
0FFC
0E1C
0E1C
0E1C
0E1C
0C1C
1C1C
1C1C
381C
7FFF
FFFF
FFFF
E007
E007
6003
ENDCHAR
STARTCHAR 0435
ENCODING 1077
SWIDTH 540 0
DWIDTH 15 0
BBX 14 14 1 0
BITMAP
0FC0
1FF0
3FF0
7830
7070
E1E0
EF80
FE00
F000
E00C
783C
7FF8
3FF0
0FC0
ENDCHAR
STARTCHAR 0436
ENCODING 1078
SWIDTH 684 0
DWIDTH 19 0
BBX 17 14 1 0
BITMAP
E18700
F18700
398E00
19DC00
1FF800
0FF800
0FF800
1DDC00
39DE00
71CE00
71C700
E1C300
E1C380
C18180
ENDCHAR
STARTCHAR 0437
ENCODING 1079
SWIDTH 432 0
DWIDTH 12 0
BBX 10 14 1 0
BITMAP
1E00
7F80
7FC0
61C0
01C0
0380
1F80
1F80
0380
01C0
61C0
FFC0
7F80
3F00
ENDCHAR
STARTCHAR 0438
ENCODING 1080
SWIDTH 648 0
DWIDTH 18 0
BBX 15 14 1 0
BITMAP
600C
E01E
E03E
E07E
E07E
E0EE
61EE
63CE
678E
6F0E
7E0E
7C0E
780E
600C
ENDCHAR
STARTCHAR 0439
ENCODING 1081
SWIDTH 648 0
DWIDTH 18 0
BBX 15 22 1 0
BITMAP
3000
300C
381C
1C38
0FF0
07E0
0000
0000
600C
E01E
E03E
E07E
E07E
E0EE
61EE
63CE
678E
6F0E
7E0E
7C0E
780E
600C
ENDCHAR
STARTCHAR 043A
ENCODING 1082
SWIDTH 504 0
DWIDTH 14 0
BBX 11 15 2 0
BITMAP
C000
E0E0
E1E0
E380
E700
FF00
FE00
FF00
E780
E380
E3C0
E1E0
E0E0
E0E0
C060
ENDCHAR
STARTCHAR 043B
ENCODING 1083
SWIDTH 648 0
DWIDTH 18 0
BBX 16 14 0 0
BITMAP
07FF
0FFF
0FFF
0E07
0E07
0607
0607
0607
0E07
0E07
0E07
FE07
FC07
7803
ENDCHAR
STARTCHAR 043C
ENCODING 1084
SWIDTH 756 0
DWIDTH 21 0
BBX 19 14 1 0
BITMAP
0C0600
1C0F00
1C0F00
3E0F00
361F00
361B00
761B80
773180
633180
E37180
E3E1C0
E1E0C0
C1C0E0
C0C0E0
ENDCHAR
STARTCHAR 043D
ENCODING 1085
SWIDTH 576 0
DWIDTH 16 0
BBX 13 14 1 0
BITMAP
E018
E038
E038
E038
E038
E038
FFF8
FFF8
FFF8
E038
E038
E038
E038
C038
ENDCHAR
STARTCHAR 043E
ENCODING 1086
SWIDTH 612 0
DWIDTH 17 0
BBX 15 14 1 0
BITMAP
07E0
1FF8
3FFC
7C1C
700E
F00E
E00E
E00C
E01C
E03C
F878
7FF0
3FE0
0FC0
ENDCHAR
STARTCHAR 043F
ENCODING 1087
SWIDTH 648 0
DWIDTH 18 0
BBX 13 14 3 0
BITMAP
7FF8
FFF8
FFF8
E038
E038
E038
E038
E038
E038
E038
E038
E038
E038
C018
ENDCHAR
STARTCHAR 0440
ENCODING 1088
SWIDTH 540 0
DWIDTH 15 0
BBX 12 23 2 -8
BITMAP
C000
CF80
FFC0
FFE0
F0E0
E060
E070
E070
E070
E070
E070
E0E0
FFE0
FFC0
FF00
E000
E000
E000
E000
E000
E000
E000
C000
ENDCHAR
STARTCHAR 0441
ENCODING 1089
SWIDTH 504 0
DWIDTH 14 0
BBX 12 14 1 0
BITMAP
07C0
0FE0
1FF0
3830
7000
7000
6000
E000
E000
6030
7870
7FF0
3FE0
0F80
ENDCHAR
STARTCHAR 0442
ENCODING 1090
SWIDTH 468 0
DWIDTH 13 0
BBX 11 14 1 0
BITMAP
FFE0
FFE0
FFE0
0E00
0E00
0E00
0E00
0E00
0E00
0E00
0E00
0E00
0E00
0600
ENDCHAR
STARTCHAR 0443
ENCODING 1091
SWIDTH 540 0
DWIDTH 15 0
BBX 14 22 0 -8
BITMAP
E01C
E01C
F03C
7038
3878
3870
1C70
1CE0
0EE0
0FC0
07C0
0780
0380
0700
0700
0700
0E00
0E00
1C00
1C00
1C00
1800
ENDCHAR
STARTCHAR 0444
ENCODING 1092
SWIDTH 828 0
DWIDTH 23 0
BBX 21 23 1 -8
BITMAP
006000
0F73C0
3FEFE0
7FFFF0
70F870
707038
E07038
E07038
E07038
E07038
E07038
70F870
7FFFF0
3FFFE0
1F7780
007000
007000
007000
007000
007000
007000
007000
006000
ENDCHAR
STARTCHAR 0445
ENCODING 1093
SWIDTH 612 0
DWIDTH 17 0
BBX 15 15 1 -1
BITMAP
300C
780E
383C
1C78
0EF0
07E0
07C0
0780
0FC0
1CE0
38F0
7070
E038
C01C
000C
ENDCHAR
STARTCHAR 0446
ENCODING 1094
SWIDTH 612 0
DWIDTH 17 0
BBX 15 17 2 -3
BITMAP
6018
7038
7038
7038
7038
7038
7038
6038
6038
6038
6038
7FFC
FFFE
7FFC
000C
000C
000C
ENDCHAR
STARTCHAR 0447
ENCODING 1095
SWIDTH 540 0
DWIDTH 15 0
BBX 12 14 1 0
BITMAP
E030
E030
E030
E030
E030
E070
70F0
7FF0
3FF0
1FB0
0030
0030
0030
0030
ENDCHAR
STARTCHAR 0448
ENCODING 1096
SWIDTH 792 0
DWIDTH 22 0
BBX 19 14 1 0
BITMAP
606060
70E0E0
70E0E0
70E0E0
70E0E0
70E0E0
70E0E0
70E0E0
60E0E0
60E0E0
60E0E0
7FFFE0
FFFFE0
7FFFC0
ENDCHAR
STARTCHAR 0449
ENCODING 1097
SWIDTH 792 0
DWIDTH 22 0
BBX 21 18 1 -4
BITMAP
606060
70E0E0
70E0E0
70E0E0
70E0E0
70E0E0
70E0E0
70E0E0
60E0E0
60E0E0
60E0E0
7FFFF8
FFFFF8
7FFFF8
000038
000038
000038
000038
ENDCHAR
STARTCHAR 044A
ENCODING 1098
SWIDTH 612 0
DWIDTH 17 0
BBX 17 14 0 0
BITMAP
FF0000
FF8000
7F8000
038000
038000
03FC00
03FF00
03FF00
038780
038380
038780
03FF00
03FF00
03FC00
ENDCHAR
STARTCHAR 044B
ENCODING 1099
SWIDTH 792 0
DWIDTH 22 0
BBX 19 14 2 0
BITMAP
C03FE0
E03FE0
E03FE0
E00300
E00300
FF0300
FF8300
FFC300
E1C300
E0E300
E1C300
FFDFE0
FF9FE0
FF1FE0
ENDCHAR
STARTCHAR 044C
ENCODING 1100
SWIDTH 504 0
DWIDTH 14 0
BBX 11 14 2 0
BITMAP
C000
E000
E000
E000
E000
FF00
FFC0
FFC0
E1C0
E0E0
E1C0
FFC0
FF80
FF00
ENDCHAR
STARTCHAR 044D
ENCODING 1101
SWIDTH 504 0
DWIDTH 14 0
BBX 12 14 1 0
BITMAP
1F00
7FC0
7FE0
60E0
0070
0FF0
0FF0
0FF0
0070
0070
61F0
FFE0
7FC0
3F00
ENDCHAR
STARTCHAR 044E
ENCODING 1102
SWIDTH 900 0
DWIDTH 25 0
BBX 23 14 1 0
BITMAP
6003F0
600FF8
601FFC
603C1E
60780E
60700E
FFF00E
FFE00E
FFE00E
E0701C
E0783C
E07FF8
E03FF0
C00FC0
ENDCHAR
STARTCHAR 044F
ENCODING 1103
SWIDTH 504 0
DWIDTH 14 0
BBX 11 14 1 0
BITMAP
07E0
1FE0
3FE0
7CE0
70E0
E0E0
78E0
7FE0
3FE0
0FE0
3E60
7860
F060
C060
ENDCHAR
STARTCHAR 0451
ENCODING 1105
SWIDTH 540 0
DWIDTH 15 0
BBX 14 20 1 0
BITMAP
1C30
1C38
1838
0000
0000
0000
0FC0
1FF0
3FF0
7830
7070
E1E0
EF80
FE00
F000
E00C
783C
7FF8
3FF0
0FC0
ENDCHAR
STARTCHAR 0452
ENCODING 1106
SWIDTH 576 0
DWIDTH 16 0
BBX 15 28 -1 -6
BITMAP
1C00
1C00
1C00
7FF0
FFF0
FFF0
1C00
1C00
1C78
1DFC
1FFE
1F8E
1F0E
1E0E
1C0E
1C0E
1C0E
1C0E
1C0E
1C0E
1C0E
180E
000E
000E
001E
01FC
01FC
00F0
ENDCHAR
STARTCHAR 0453
ENCODING 1107
SWIDTH 468 0
DWIDTH 13 0
BBX 11 22 2 0
BITMAP
0380
0780
0F00
0E00
1C00
1800
0000
0000
7FC0
FFE0
FFE0
E000
E000
E000
E000
E000
E000
E000
E000
E000
E000
6000
ENDCHAR
STARTCHAR 0454
ENCODING 1108
SWIDTH 504 0
DWIDTH 14 0
BBX 12 14 1 0
BITMAP
0F80
3FE0
3FF0
7060
6000
FF00
FF00
FF00
E000
F000
7800
7FE0
3FF0
0FE0
ENDCHAR
STARTCHAR 0455
ENCODING 1109
SWIDTH 504 0
DWIDTH 14 0
BBX 11 15 1 0
BITMAP
00E0
0FE0
3FE0
7E60
7060
6000
7E00
3F80
03C0
00E0
00E0
C0E0
FFE0
FFC0
3F00
ENDCHAR
STARTCHAR 0456
ENCODING 1110
SWIDTH 288 0
DWIDTH 8 0
BBX 4 20 2 0
BITMAP
70
70
70
00
00
00
60
60
60
60
60
E0
E0
E0
E0
E0
E0
60
60
60
ENDCHAR
STARTCHAR 0457
ENCODING 1111
SWIDTH 288 0
DWIDTH 8 0
BBX 11 19 -2 0
BITMAP
61C0
F1E0
60C0
0000
0000
0600
0600
0600
0600
0600
0E00
0E00
0E00
0E00
0E00
0E00
0600
0600
0600
ENDCHAR
STARTCHAR 0458
ENCODING 1112
SWIDTH 396 0
DWIDTH 11 0
BBX 9 28 0 -8
BITMAP
0700
0700
0700
0000
0000
0000
0300
0700
0700
0700
0300
0300
0300
0380
0380
0380
0380
0380
0380
0380
0380
C380
E380
E380
7380
7F00
3F00
1E00
ENDCHAR
STARTCHAR 0459
ENCODING 1113
SWIDTH 900 0
DWIDTH 25 0
BBX 24 14 0 0
BITMAP
07FF00
07FF00
07FF00
070700
070700
0703F8
0703FE
0703FF
070307
070307
670707
FF07FF
7E07FE
3C03F8
ENDCHAR
STARTCHAR 045A
ENCODING 1114
SWIDTH 792 0
DWIDTH 22 0
BBX 20 14 1 0
BITMAP
E06000
E07000
E07000
E07000
E07000
FFFF80
FFFFC0
FFFFE0
E070E0
E07070
E070E0
E07FE0
E07FC0
607F80
ENDCHAR
STARTCHAR 045B
ENCODING 1115
SWIDTH 576 0
DWIDTH 16 0
BBX 16 22 -1 0
BITMAP
1C00
1C00
1C00
7FF0
FFF0
FFF0
1C00
1C00
1C78
1DFC
1FFE
1F8E
1F0E
1E0E
1C0E
1C0E
1C0E
1C0E
1C06
1C06
1C07
1806
ENDCHAR
STARTCHAR 045C
ENCODING 1116
SWIDTH 504 0
DWIDTH 14 0
BBX 11 22 2 0
BITMAP
0180
0380
0700
0E00
1C00
1C00
0000
C000
E0E0
E1E0
E380
E700
FF00
FE00
FF00
E780
E380
E3C0
E1E0
E0E0
E0E0
C060
ENDCHAR
STARTCHAR 045E
ENCODING 1118
SWIDTH 540 0
DWIDTH 15 0
BBX 14 30 0 -8
BITMAP
6000
6030
6030
7070
3FE0
0F80
0000
0000
E01C
E01C
F03C
7038
3878
3870
1C70
1CE0
0EE0
0FC0
07C0
0780
0380
0700
0700
0700
0E00
0E00
1C00
1C00
1C00
1800
ENDCHAR
STARTCHAR 045F
ENCODING 1119
SWIDTH 612 0
DWIDTH 17 0
BBX 13 18 2 -4
BITMAP
6018
E038
E038
E038
E038
E038
E038
E038
E038
E038
E038
FFF8
FFF8
FFF8
0700
0700
0700
0600
ENDCHAR
STARTCHAR 0490
ENCODING 1168
SWIDTH 612 0
DWIDTH 17 0
BBX 14 25 2 0
BITMAP
0018
001C
001C
001C
7FFC
FFFC
FFFC
6000
7000
7000
7000
7000
7000
7000
7000
7000
7000
7000
7000
7000
7000
3000
3000
7000
3000
ENDCHAR
STARTCHAR 0491
ENCODING 1169
SWIDTH 468 0
DWIDTH 13 0
BBX 11 18 2 0
BITMAP
00C0
00E0
00E0
00E0
FFE0
FFE0
FFC0
E000
E000
E000
E000
E000
E000
E000
E000
E000
E000
6000
ENDCHAR
STARTCHAR 1E80
ENCODING 7808
SWIDTH 1044 0
DWIDTH 29 0
BBX 27 30 2 -1
BITMAP
00600000
00700000
00780000
00380000
001C0000
000C0000
000C0000
00000000
E00C00C0
E00E01E0
E01E01C0
701E01C0
703E01C0
703E0380
383F0380
387F0300
38770700
38770700
1C730600
1CE30E00
1CE38C00
1CE39C00
0DC39C00
0FC19800
0F81B800
0F81F000
0781F000
0701F000
0700E000
0000E000
ENDCHAR
STARTCHAR 1E81
ENCODING 7809
SWIDTH 684 0
DWIDTH 19 0
BBX 17 22 1 0
BITMAP
030000
038000
03C000
01C000
00E000
006000
006000
000000
C0C180
E1C180
E1C380
E3E380
E3E380
636300
676700
766700
767600
7E7E00
3C3E00
3C3C00
383C00
181800
ENDCHAR
STARTCHAR 1E82
ENCODING 7810
SWIDTH 1044 0
DWIDTH 29 0
BBX 27 29 2 -1
BITMAP
00038000
00078000
00070000
000E0000
001C0000
00180000
00000000
E00C00C0
E00E01E0
E01E01C0
701E01C0
703E01C0
703E0380
383F0380
387F0300
38770700
38770700
1C730600
1CE30E00
1CE38C00
1CE39C00
0DC39C00
0FC19800
0F81B800
0F81F000
0781F000
0701F000
0700E000
0000E000
ENDCHAR
STARTCHAR 1E83
ENCODING 7811
SWIDTH 684 0
DWIDTH 19 0
BBX 17 22 1 0
BITMAP
003800
007800
00F000
00E000
01C000
018000
000000
000000
C0C180
E1C180
E1C380
E3E380
E3E380
636300
676700
766700
767600
7E7E00
3C3E00
3C3C00
383C00
181800
ENDCHAR
STARTCHAR 1E84
ENCODING 7812
SWIDTH 1044 0
DWIDTH 29 0
BBX 27 26 2 -1
BITMAP
00E1C000
00E1C000
00E1C000
00000000
E00C00C0
E00E01E0
E01E01C0
701E01C0
703E01C0
703E0380
383F0380
387F0300
38770700
38770700
1C730600
1CE30E00
1CE38C00
1CE39C00
0DC39C00
0FC19800
0F81B800
0F81F000
0781F000
0701F000
0700E000
0000E000
ENDCHAR
STARTCHAR 1E85
ENCODING 7813
SWIDTH 684 0
DWIDTH 19 0
BBX 17 19 1 0
BITMAP
0E1800
0E1C00
0C1C00
000000
000000
C0C180
E1C180
E1C380
E3E380
E3E380
636300
676700
766700
767600
7E7E00
3C3E00
3C3C00
383C00
181800
ENDCHAR
STARTCHAR 1EF2
ENCODING 7922
SWIDTH 648 0
DWIDTH 18 0
BBX 17 29 0 -1
BITMAP
030000
038000
03C000
01C000
00E000
006000
006000
600300
E00380
700700
780700
380E00
1C0E00
1E1E00
0E1C00
071C00
073800
07B800
03F800
01F000
00F000
00E000
01E000
01C000
03C000
038000
038000
070000
030000
ENDCHAR
STARTCHAR 1EF3
ENCODING 7923
SWIDTH 540 0
DWIDTH 15 0
BBX 14 30 0 -8
BITMAP
1800
1C00
0E00
0700
0380
0380
0180
0000
E01C
E01C
F03C
7038
3878
3870
1C70
1CE0
0EE0
0FC0
07C0
0780
0380
0700
0700
0700
0E00
0E00
1C00
1C00
1C00
1800
ENDCHAR
STARTCHAR 2013
ENCODING 8211
SWIDTH 432 0
DWIDTH 12 0
BBX 10 3 1 7
BITMAP
FFC0
FFC0
FFC0
ENDCHAR
STARTCHAR 2014
ENCODING 8212
SWIDTH 900 0
DWIDTH 25 0
BBX 22 3 1 7
BITMAP
FFFFFC
FFFFFC
FFFFFC
ENDCHAR
STARTCHAR 2015
ENCODING 8213
SWIDTH 900 0
DWIDTH 25 0
BBX 22 3 1 7
BITMAP
FFFFFC
FFFFFC
FFFFFC
ENDCHAR
STARTCHAR 2017
ENCODING 8215
SWIDTH 648 0
DWIDTH 18 0
BBX 18 6 0 -8
BITMAP
FFFFC0
FFFFC0
000000
000000
FFFFC0
FFFFC0
ENDCHAR
STARTCHAR 2018
ENCODING 8216
SWIDTH 180 0
DWIDTH 5 0
BBX 3 7 1 14
BITMAP
C0
C0
E0
E0
E0
60
60
ENDCHAR
STARTCHAR 2019
ENCODING 8217
SWIDTH 180 0
DWIDTH 5 0
BBX 3 7 1 14
BITMAP
60
60
E0
E0
C0
C0
C0
ENDCHAR
STARTCHAR 201A
ENCODING 8218
SWIDTH 288 0
DWIDTH 8 0
BBX 5 6 1 -3
BITMAP
30
38
70
E0
E0
C0
ENDCHAR
STARTCHAR 201B
ENCODING 8219
SWIDTH 180 0
DWIDTH 5 0
BBX 3 7 1 14
BITMAP
60
60
E0
E0
C0
C0
C0
ENDCHAR
STARTCHAR 201C
ENCODING 8220
SWIDTH 396 0
DWIDTH 11 0
BBX 8 7 1 14
BITMAP
CE
EE
E6
67
67
77
63
ENDCHAR
STARTCHAR 201D
ENCODING 8221
SWIDTH 396 0
DWIDTH 11 0
BBX 9 7 1 14
BITMAP
3180
7380
7380
7300
6700
E700
6600
ENDCHAR
STARTCHAR 201E
ENCODING 8222
SWIDTH 432 0
DWIDTH 12 0
BBX 9 6 1 -3
BITMAP
3180
3B80
7380
E700
E600
C600
ENDCHAR
STARTCHAR 2020
ENCODING 8224
SWIDTH 612 0
DWIDTH 17 0
BBX 15 26 1 -3
BITMAP
0300
0380
0380
0380
0300
0300
0300
FFFC
FFFE
FFFC
0300
0300
0700
0700
0700
0700
0700
0700
0700
0700
0700
0700
0700
0700
0700
0300
ENDCHAR
STARTCHAR 2021
ENCODING 8225
SWIDTH 612 0
DWIDTH 17 0
BBX 15 26 1 -3
BITMAP
0300
0380
0380
0380
0380
FFFE
FFFE
FFFC
0300
0300
0300
0300
0700
0700
7FF8
7FFC
7FF8
0700
0700
0700
0700
0700
0700
0700
0700
0300
ENDCHAR
STARTCHAR 2022
ENCODING 8226
SWIDTH 396 0
DWIDTH 11 0
BBX 6 5 2 8
BITMAP
38
7C
FC
7C
38
ENDCHAR
STARTCHAR 2026
ENCODING 8230
SWIDTH 684 0
DWIDTH 19 0
BBX 15 3 2 -1
BITMAP
638E
E38E
638E
ENDCHAR
STARTCHAR 2030
ENCODING 8240
SWIDTH 1260 0
DWIDTH 35 0
BBX 30 22 2 0
BITMAP
00060000
3C0E0000
7E0C0000
E71C0000
C3180000
C3380000
E3380000
7F700000
3C700000
00600000
00E00000
00C00000
01C00000
0187C0F0
038FE3F8
031C731C
0718370C
0618370C
0E18770C
0C1C631C
0C0FE3F8
0C0781F0
ENDCHAR
STARTCHAR 2032
ENCODING 8242
SWIDTH 180 0
DWIDTH 5 0
BBX 3 7 1 14
BITMAP
60
60
E0
E0
C0
C0
C0
ENDCHAR
STARTCHAR 2033
ENCODING 8243
SWIDTH 324 0
DWIDTH 9 0
BBX 7 7 1 14
BITMAP
66
66
E6
E6
C6
CE
C4
ENDCHAR
STARTCHAR 2039
ENCODING 8249
SWIDTH 396 0
DWIDTH 11 0
BBX 9 12 1 3
BITMAP
0100
0380
0700
0E00
3C00
7800
F800
3C00
1E00
0F00
0700
0300
ENDCHAR
STARTCHAR 203A
ENCODING 8250
SWIDTH 396 0
DWIDTH 11 0
BBX 9 12 1 3
BITMAP
6000
F000
7800
3C00
1E00
0F00
0780
1F00
1C00
3800
7000
6000
ENDCHAR
STARTCHAR 203C
ENCODING 8252
SWIDTH 468 0
DWIDTH 13 0
BBX 9 23 2 -1
BITMAP
C300
E380
E380
E380
E380
E380
E380
E380
E380
E380
E380
E380
E380
E380
E380
E380
E380
C300
0000
0000
C300
C300
C300
ENDCHAR
STARTCHAR 203E
ENCODING 8254
SWIDTH 612 0
DWIDTH 17 0
BBX 20 3 -2 19
BITMAP
FFFFF0
FFFFF0
FFFFF0
ENDCHAR
STARTCHAR 2044
ENCODING 8260
SWIDTH 828 0
DWIDTH 23 0
BBX 22 23 0 0
BITMAP
000008
00001C
00003C
000078
0000F0
0001E0
0001C0
000380
000700
000F00
001E00
003C00
007800
00F000
01E000
03C000
078000
0F0000
1E0000
3C0000
780000
F00000
E00000
ENDCHAR
STARTCHAR 207F
ENCODING 8319
SWIDTH 540 0
DWIDTH 15 0
BBX 9 11 3 10
BITMAP
DE00
FF00
FF00
E300
E380
C380
C380
C380
C380
C180
C180
ENDCHAR
STARTCHAR 20A3
ENCODING 8355
SWIDTH 1008 0
DWIDTH 28 0
BBX 25 21 2 0
BITMAP
7FF00000
7FFC0000
7FFC0000
780C0000
60000000
60000000
60000000
60030F00
67FBBF80
FFFBFF80
FFFBF380
F803C380
E0038300
E0038000
E0038000
E0038000
E0038000
E0038000
E0038000
E0038000
60038000
ENDCHAR
STARTCHAR 20A4
ENCODING 8356
SWIDTH 792 0
DWIDTH 22 0
BBX 19 23 1 -2
BITMAP
00FC00
03FF00
07FF80
0F0780
0E0380
1C0180
1C0000
1C0000
FFE000
FFF000
7FE000
0C0000
0C0000
7FF000
7FF000
7FF000
0E0060
0E00E0
0F80E0
1FE1E0
3FFFC0
307F80
001F00
ENDCHAR
STARTCHAR 20A7
ENCODING 8359
SWIDTH 1188 0
DWIDTH 33 0
BBX 31 22 1 -1
BITMAP
3F000000
7FC00000
7FE18000
60F38000
60738000
603B8000
603B801C
603FF8FE
607FFBFE
60FFFFCE
7FE18F06
7FC18E00
FF018F80
E00187F0
E00183F8
E001803C
E001800C
E001C00E
E001DC1E
E001DFFC
60018FF8
000183F0
ENDCHAR
STARTCHAR 20AC
ENCODING 8364
SWIDTH 612 0
DWIDTH 17 0
BBX 18 21 -1 0
BITMAP
003FC0
00FFC0
01FFC0
03E1C0
0780C0
7FFE00
FFFE00
7FFE00
0E0000
0C0000
7FF000
FFF000
7FF000
1C0000
0C0000
0E0300
0E0780
0F0F00
07FE00
03FC00
01F800
ENDCHAR
STARTCHAR 2105
ENCODING 8453
SWIDTH 828 0
DWIDTH 23 0
BBX 21 21 1 0
BITMAP
1E0300
3E0700
7E0600
E00E00
E00C00
E01C00
E01C00
E03800
7F3000
7F7000
1E7000
0063C0
00E7F0
01CFF8
01CE38
038C18
038C18
070E38
070FF0
0607F0
0603C0
ENDCHAR
STARTCHAR 2113
ENCODING 8467
SWIDTH 504 0
DWIDTH 14 0
BBX 11 21 0 0
BITMAP
0380
07C0
0FE0
0EE0
1C60
1C60
1CE0
1CE0
1DC0
1F80
7F00
FE00
7C00
1C00
1C00
1C00
1C00
0E00
0FE0
07E0
03E0
ENDCHAR
STARTCHAR 2116
ENCODING 8470
SWIDTH 1152 0
DWIDTH 32 0
BBX 29 21 2 0
BITMAP
C0060000
E0070000
F0070000
F8070000
F8070000
FC0387C0
FC038FE0
EE039FF0
E703BC70
E703B870
E383B830
E3C3B870
E1E3BC70
E0E39FF0
E0F38FE0
E07B87C0
E03F8000
E01F8000
E01F3FF0
E00F7FF8
C0037FF8
ENDCHAR
STARTCHAR 2120
ENCODING 8480
SWIDTH 1188 0
DWIDTH 33 0
BBX 31 15 1 6
BITMAP
0F80C060
1FE1C0F0
3FE1E0F0
7063E0F0
6003E1F0
7C03E1F0
7F8361B8
3FC773B8
07E77318
00E6371C
00EE3F1C
C0EE3E1C
FFEE1E0E
7FCC1C0E
1F0C0C0E
ENDCHAR
STARTCHAR 2122
ENCODING 8482
SWIDTH 900 0
DWIDTH 25 0
BBX 23 10 1 12
BITMAP
FFF430
FFFE30
0C0E78
0C0F78
061B78
061BCC
061BCC
0633CC
06318E
062106
ENDCHAR
STARTCHAR 2126
ENCODING 8486
SWIDTH 972 0
DWIDTH 27 0
BBX 25 23 1 -2
BITMAP
000FE000
003FF800
00FFFC00
01F81E00
03C00E00
07800E00
0F000E00
0E000E00
1C000E00
1C000E00
1C000E00
1C000E00
1C000C00
1C001C00
0E001800
0E003000
0E007000
0700E000
0701FF00
0381FF80
3F81FF80
FF800000
FC000000
ENDCHAR
STARTCHAR 212E
ENCODING 8494
SWIDTH 540 0
DWIDTH 15 0
BBX 14 14 1 0
BITMAP
0F80
3060
6010
4018
C018
C018
FFFC
C000
C000
C000
4000
4010
3070
0FC0
ENDCHAR
STARTCHAR 215B
ENCODING 8539
SWIDTH 648 0
DWIDTH 18 0
BBX 15 29 2 -6
BITMAP
0300
0700
0F00
0F00
0300
0300
0300
0300
0300
0FE0
0FE0
0000
0000
FFFC
FFFE
0000
0780
0FC0
0CC0
1840
0CC0
0FC0
0FC0
1CE0
1860
1860
1860
0FC0
0780
ENDCHAR
STARTCHAR 215C
ENCODING 8540
SWIDTH 648 0
DWIDTH 18 0
BBX 15 30 2 -6
BITMAP
0780
0FC0
00C0
00C0
01C0
03C0
03C0
00E0
0060
00E0
0FC0
0F80
0000
0000
FFFC
FFFE
0000
0780
0FC0
0CC0
1840
0CC0
0FC0
0FC0
1CE0
1860
1860
1860
0FC0
0780
ENDCHAR
STARTCHAR 215D
ENCODING 8541
SWIDTH 648 0
DWIDTH 18 0
BBX 15 30 2 -6
BITMAP
1FE0
0FE0
0800
1BC0
1FE0
1C60
1860
0060
0060
18E0
1FC0
0F80
0000
0000
FFFC
FFFE
0000
0780
0FC0
0CC0
1840
0CC0
0FC0
0FC0
1CE0
1860
1860
1860
0FC0
0780
ENDCHAR
STARTCHAR 215E
ENCODING 8542
SWIDTH 648 0
DWIDTH 18 0
BBX 15 30 2 -6
BITMAP
0FF8
0FF0
0070
00E0
00C0
01C0
0180
0180
0300
0300
0700
0600
0000
0000
FFFC
FFFE
0000
0780
0FC0
0CC0
1840
0CC0
0FC0
0FC0
1CE0
1860
1860
1860
0FC0
0780
ENDCHAR
STARTCHAR 2202
ENCODING 8706
SWIDTH 504 0
DWIDTH 14 0
BBX 11 22 3 -1
BITMAP
6000
7800
3800
1C00
0E00
0600
0700
0380
0380
0FC0
3FC0
70C0
60C0
C0E0
C0E0
C0C0
C0C0
C1C0
E3C0
FF80
7F00
1E00
ENDCHAR
STARTCHAR 2206
ENCODING 8710
SWIDTH 792 0
DWIDTH 22 0
BBX 21 23 1 -1
BITMAP
003000
007000
007800
00F800
00FC00
01CC00
01CE00
018E00
038700
038700
070380
070380
0E01C0
0E01C0
1C00E0
1C00E0
380060
380070
700030
7FFF38
7FFFF8
FFFFF8
000020
ENDCHAR
STARTCHAR 220F
ENCODING 8719
SWIDTH 900 0
DWIDTH 25 0
BBX 23 25 1 -4
BITMAP
7FFFFE
FFFFFE
7FFFFE
0E0070
0E0070
0E0070
0E0070
0E0070
0E0070
0E0070
0E0070
0E0070
0E0070
0E0070
0E0070
0E0070
0E0070
0E0070
0E0070
0E0070
0E0070
0E0030
0E0030
0E0030
0C0030
ENDCHAR
STARTCHAR 2211
ENCODING 8721
SWIDTH 756 0
DWIDTH 21 0
BBX 19 24 1 -4
BITMAP
7FFF80
FFFFC0
FFFF80
780000
3C0000
1E0000
0F0000
078000
038000
01C000
00E000
00F000
01F000
03C000
038000
070000
0F0000
1E0000
1C0000
380000
780000
FFFFE0
FFFFE0
FFFFE0
ENDCHAR
STARTCHAR 2212
ENCODING 8722
SWIDTH 468 0
DWIDTH 13 0
BBX 11 3 1 7
BITMAP
FFE0
FFE0
FFE0
ENDCHAR
STARTCHAR 2215
ENCODING 8725
SWIDTH 828 0
DWIDTH 23 0
BBX 22 23 0 0
BITMAP
000008
00001C
00003C
000078
0000F0
0001E0
0001C0
000380
000700
000F00
001E00
003C00
007800
00F000
01E000
03C000
078000
0F0000
1E0000
3C0000
780000
F00000
E00000
ENDCHAR
STARTCHAR 2219
ENCODING 8729
SWIDTH 252 0
DWIDTH 7 0
BBX 3 3 2 9
BITMAP
E0
E0
E0
ENDCHAR
STARTCHAR 221A
ENCODING 8730
SWIDTH 612 0
DWIDTH 17 0
BBX 15 23 1 -1
BITMAP
00FE
00FE
00C0
01C0
01C0
01C0
01C0
0180
0380
0380
0380
0380
0300
0700
0700
C600
EE00
EE00
EC00
7C00
7C00
3800
1800
ENDCHAR
STARTCHAR 221E
ENCODING 8734
SWIDTH 828 0
DWIDTH 23 0
BBX 19 9 2 4
BITMAP
3E0F80
7F1FC0
E3F860
C0F060
C0E060
C0F060
63B8E0
7F9FC0
1E0780
ENDCHAR
STARTCHAR 222B
ENCODING 8747
SWIDTH 720 0
DWIDTH 20 0
BBX 17 29 1 -6
BITMAP
001E00
003F00
007F80
007380
00E000
00E000
00E000
00E000
00E000
00E000
00E000
00E000
00E000
00E000
00E000
00E000
00E000
00E000
00E000
00E000
00C000
01C000
E1C000
E1C000
E1C000
F3C000
7F8000
3F8000
1E0000
ENDCHAR
STARTCHAR 2248
ENCODING 8776
SWIDTH 612 0
DWIDTH 17 0
BBX 14 13 2 3
BITMAP
0E00
3F0C
3B8C
71CC
60FC
0078
0000
1C00
7E18
E718
C3B8
C1F0
00E0
ENDCHAR
STARTCHAR 2260
ENCODING 8800
SWIDTH 504 0
DWIDTH 14 0
BBX 11 17 1 1
BITMAP
00C0
01C0
01C0
7FE0
FFE0
7FE0
0300
0700
0600
0E00
0E00
7FE0
FFE0
7FE0
1800
3800
1000
ENDCHAR
STARTCHAR 2264
ENCODING 8804
SWIDTH 396 0
DWIDTH 11 0
BBX 10 17 0 -2
BITMAP
0300
0780
0F00
1E00
3C00
7800
F000
7C00
1C00
0E00
0700
0300
0000
0000
7FC0
FFC0
7FC0
ENDCHAR
STARTCHAR 2265
ENCODING 8805
SWIDTH 396 0
DWIDTH 11 0
BBX 10 18 0 -2
BITMAP
3000
3800
1C00
0600
0100
0380
07C0
0FC0
1F00
3E00
7C00
7800
6000
0000
0000
7FC0
FFC0
7FC0
ENDCHAR
STARTCHAR 2500
ENCODING 9472
SWIDTH 720 0
DWIDTH 20 0
BBX 20 2 0 7
BITMAP
FFFFF0
FFFFF0
ENDCHAR
STARTCHAR 2502
ENCODING 9474
SWIDTH 720 0
DWIDTH 20 0
BBX 2 33 9 -8
BITMAP
C0
C0
C0
C0
C0
C0
C0
C0
C0
C0
C0
C0
C0
C0
C0
C0
C0
C0
C0
C0
C0
C0
C0
C0
C0
C0
C0
C0
C0
C0
C0
C0
C0
ENDCHAR
STARTCHAR 250C
ENCODING 9484
SWIDTH 720 0
DWIDTH 20 0
BBX 11 17 9 -8
BITMAP
FFE0
FFE0
C000
C000
C000
C000
C000
C000
C000
C000
C000
C000
C000
C000
C000
C000
C000
ENDCHAR
STARTCHAR 2510
ENCODING 9488
SWIDTH 720 0
DWIDTH 20 0
BBX 11 17 0 -8
BITMAP
FFE0
FFE0
0060
0060
0060
0060
0060
0060
0060
0060
0060
0060
0060
0060
0060
0060
0060
ENDCHAR
STARTCHAR 2514
ENCODING 9492
SWIDTH 720 0
DWIDTH 20 0
BBX 11 17 9 8
BITMAP
C000
C000
C000
C000
C000
C000
C000
C000
C000
C000
C000
C000
C000
C000
C000
FFE0
FFE0
ENDCHAR
STARTCHAR 2518
ENCODING 9496
SWIDTH 720 0
DWIDTH 20 0
BBX 11 17 0 8
BITMAP
0060
0060
0060
0060
0060
0060
0060
0060
0060
0060
0060
0060
0060
0060
0060
FFE0
FFE0
ENDCHAR
STARTCHAR 25A1
ENCODING 9633
SWIDTH 756 0
DWIDTH 21 0
BBX 11 11 5 0
BITMAP
FFE0
8020
8020
8020
8020
8020
8020
8020
8020
8020
FFE0
ENDCHAR
STARTCHAR 25AA
ENCODING 9642
SWIDTH 648 0
DWIDTH 18 0
BBX 8 7 5 2
BITMAP
FF
FF
FF
FF
FF
FF
FF
ENDCHAR
STARTCHAR 25AB
ENCODING 9643
SWIDTH 648 0
DWIDTH 18 0
BBX 8 8 5 1
BITMAP
FF
81
81
81
81
81
81
FF
ENDCHAR
STARTCHAR 25CA
ENCODING 9674
SWIDTH 720 0
DWIDTH 20 0
BBX 19 23 1 -1
BITMAP
00C000
01C000
03E000
077000
063800
0E3C00
1C1E00
1C0E00
380700
780780
7003C0
E001E0
E003C0
F00380
780700
1C0E00
0E0E00
0F1C00
073800
03B800
01F000
00E000
004000
ENDCHAR
STARTCHAR 25CF
ENCODING 9679
SWIDTH 648 0
DWIDTH 18 0
BBX 8 7 5 2
BITMAP
3C
7E
FE
FF
FE
7E
3C
ENDCHAR
STARTCHAR 25E6
ENCODING 9702
SWIDTH 648 0
DWIDTH 18 0
BBX 8 8 5 1
BITMAP
3C
42
81
81
81
81
42
3C
ENDCHAR
STARTCHAR 266A
ENCODING 9834
SWIDTH 504 0
DWIDTH 14 0
BBX 13 20 1 -1
BITMAP
03C0
03E0
03F0
0230
0210
0210
0218
0200
0200
0200
0200
0200
0200
0200
7A00
FE00
FE00
FE00
FC00
7800
ENDCHAR
STARTCHAR FB01
ENCODING 64257
SWIDTH 648 0
DWIDTH 18 0
BBX 16 24 1 -2
BITMAP
01E0
03F0
07F6
0F0F
0E06
0E00
0C00
0C00
7FFE
FFFE
FFFE
0C0E
0C0E
0C0E
0C0E
0C0E
0C0E
0C0E
0C0E
0C0E
0C0E
1C0E
1C00
0C00
ENDCHAR
STARTCHAR FB02
ENCODING 64258
SWIDTH 648 0
DWIDTH 18 0
BBX 16 24 1 -2
BITMAP
007F
03FF
07FF
0787
0E07
0E07
0E07
0C07
0C07
0C07
7FE7
FFE7
FFE7
0C07
0C07
0C07
0C07
0C07
0C07
0C07
0C06
1C06
1C00
0C00
ENDCHAR
ENDFONT
